<mxfile host="app.diagrams.net" agent="Mozilla/5.0 (Windows NT 10.0; Win64; x64) AppleWebKit/537.36 (KHTML, like Gecko) Chrome/138.0.0.0 Safari/537.36" version="27.1.6">
  <diagram name="Trang-1" id="lKO_-viZrgqjmMFy0Pk6">
    <mxGraphModel dx="6660" dy="3140" grid="1" gridSize="10" guides="1" tooltips="1" connect="1" arrows="1" fold="1" page="1" pageScale="1" pageWidth="827" pageHeight="1169" math="0" shadow="0">
      <root>
        <mxCell id="0" />
        <mxCell id="1" parent="0" />
        <mxCell id="ym168RmoMdldGewynsLo-213" value="" style="group" parent="1" vertex="1" connectable="0">
          <mxGeometry x="40" y="140" width="780" height="360" as="geometry" />
        </mxCell>
        <mxCell id="ym168RmoMdldGewynsLo-202" value="" style="rounded=0;whiteSpace=wrap;html=1;" parent="ym168RmoMdldGewynsLo-213" vertex="1">
          <mxGeometry width="780" height="360" as="geometry" />
        </mxCell>
        <mxCell id="ym168RmoMdldGewynsLo-45" value="Biểu đồ trình tự Đăng nhập" style="text;html=1;strokeColor=none;fillColor=none;align=left;verticalAlign=middle;whiteSpace=wrap;rounded=0;labelBackgroundColor=none;fontSize=16;fontStyle=1" parent="ym168RmoMdldGewynsLo-213" vertex="1">
          <mxGeometry x="40" y="10" width="460" height="40" as="geometry" />
        </mxCell>
        <mxCell id="ym168RmoMdldGewynsLo-46" value="Kế toán kho&lt;br&gt;&lt;br&gt;&lt;br&gt;&lt;br&gt;&lt;br&gt;&lt;br&gt;&lt;br&gt;&lt;br&gt;" style="shape=umlLifeline;perimeter=lifelinePerimeter;whiteSpace=wrap;html=1;container=1;dropTarget=0;collapsible=0;recursiveResize=0;outlineConnect=0;portConstraint=eastwest;newEdgeStyle={&quot;curved&quot;:0,&quot;rounded&quot;:0};participant=umlActor;" parent="ym168RmoMdldGewynsLo-213" vertex="1">
          <mxGeometry x="30" y="117.5" width="20" height="227.5" as="geometry" />
        </mxCell>
        <mxCell id="ym168RmoMdldGewynsLo-47" value="" style="html=1;points=[[0,0,0,0,5],[0,1,0,0,-5],[1,0,0,0,5],[1,1,0,0,-5]];perimeter=orthogonalPerimeter;outlineConnect=0;targetShapes=umlLifeline;portConstraint=eastwest;newEdgeStyle={&quot;curved&quot;:0,&quot;rounded&quot;:0};" parent="ym168RmoMdldGewynsLo-46" vertex="1">
          <mxGeometry x="5" y="65" width="10" height="155" as="geometry" />
        </mxCell>
        <mxCell id="ym168RmoMdldGewynsLo-48" value="frmLogin&lt;br&gt;&lt;br&gt;&lt;br&gt;&lt;br&gt;&lt;br&gt;" style="shape=umlLifeline;perimeter=lifelinePerimeter;whiteSpace=wrap;html=1;container=1;dropTarget=0;collapsible=0;recursiveResize=0;outlineConnect=0;portConstraint=eastwest;newEdgeStyle={&quot;curved&quot;:0,&quot;rounded&quot;:0};participant=umlBoundary;size=43;" parent="ym168RmoMdldGewynsLo-213" vertex="1">
          <mxGeometry x="210" y="112.5" width="50" height="232.5" as="geometry" />
        </mxCell>
        <mxCell id="ym168RmoMdldGewynsLo-49" value="" style="html=1;points=[[0,0,0,0,5],[0,1,0,0,-5],[1,0,0,0,5],[1,1,0,0,-5]];perimeter=orthogonalPerimeter;outlineConnect=0;targetShapes=umlLifeline;portConstraint=eastwest;newEdgeStyle={&quot;curved&quot;:0,&quot;rounded&quot;:0};" parent="ym168RmoMdldGewynsLo-48" vertex="1">
          <mxGeometry x="20" y="70" width="10" height="140" as="geometry" />
        </mxCell>
        <mxCell id="ym168RmoMdldGewynsLo-50" value="Tài khoản&lt;br&gt;&lt;br&gt;&lt;br&gt;&lt;br&gt;&lt;br&gt;&lt;br&gt;" style="shape=umlLifeline;perimeter=lifelinePerimeter;whiteSpace=wrap;html=1;container=1;dropTarget=0;collapsible=0;recursiveResize=0;outlineConnect=0;portConstraint=eastwest;newEdgeStyle={&quot;curved&quot;:0,&quot;rounded&quot;:0};participant=umlEntity;" parent="ym168RmoMdldGewynsLo-213" vertex="1">
          <mxGeometry x="615" y="112.5" width="40" height="232.5" as="geometry" />
        </mxCell>
        <mxCell id="ym168RmoMdldGewynsLo-51" value="" style="html=1;points=[[0,0,0,0,5],[0,1,0,0,-5],[1,0,0,0,5],[1,1,0,0,-5]];perimeter=orthogonalPerimeter;outlineConnect=0;targetShapes=umlLifeline;portConstraint=eastwest;newEdgeStyle={&quot;curved&quot;:0,&quot;rounded&quot;:0};" parent="ym168RmoMdldGewynsLo-50" vertex="1">
          <mxGeometry x="15" y="95" width="10" height="55" as="geometry" />
        </mxCell>
        <mxCell id="ym168RmoMdldGewynsLo-52" value="Truy xuất và so sánh&amp;nbsp;" style="html=1;align=left;spacingLeft=2;endArrow=block;rounded=0;edgeStyle=orthogonalEdgeStyle;curved=0;rounded=0;" parent="ym168RmoMdldGewynsLo-50" source="ym168RmoMdldGewynsLo-51" target="ym168RmoMdldGewynsLo-51" edge="1">
          <mxGeometry relative="1" as="geometry">
            <mxPoint x="25" y="102.5" as="sourcePoint" />
            <Array as="points">
              <mxPoint x="45" y="103" />
              <mxPoint x="45" y="123" />
            </Array>
            <mxPoint x="30" y="132.5" as="targetPoint" />
          </mxGeometry>
        </mxCell>
        <mxCell id="ym168RmoMdldGewynsLo-53" value="login_ctr&lt;br&gt;&lt;br&gt;&lt;br&gt;&lt;br&gt;&lt;br&gt;" style="shape=umlLifeline;perimeter=lifelinePerimeter;whiteSpace=wrap;html=1;container=1;dropTarget=0;collapsible=0;recursiveResize=0;outlineConnect=0;portConstraint=eastwest;newEdgeStyle={&quot;curved&quot;:0,&quot;rounded&quot;:0};participant=umlControl;" parent="ym168RmoMdldGewynsLo-213" vertex="1">
          <mxGeometry x="415" y="112.5" width="40" height="232.5" as="geometry" />
        </mxCell>
        <mxCell id="ym168RmoMdldGewynsLo-54" value="" style="html=1;points=[[0,0,0,0,5],[0,1,0,0,-5],[1,0,0,0,5],[1,1,0,0,-5]];perimeter=orthogonalPerimeter;outlineConnect=0;targetShapes=umlLifeline;portConstraint=eastwest;newEdgeStyle={&quot;curved&quot;:0,&quot;rounded&quot;:0};" parent="ym168RmoMdldGewynsLo-53" vertex="1">
          <mxGeometry x="15" y="82.5" width="10" height="77.5" as="geometry" />
        </mxCell>
        <mxCell id="ym168RmoMdldGewynsLo-55" value="Nhập username và password" style="rounded=0;orthogonalLoop=1;jettySize=auto;html=1;verticalAlign=middle;" parent="ym168RmoMdldGewynsLo-213" target="ym168RmoMdldGewynsLo-49" edge="1">
          <mxGeometry x="0.027" y="18" relative="1" as="geometry">
            <mxPoint x="45" y="192.5" as="sourcePoint" />
            <mxPoint x="200" y="193" as="targetPoint" />
            <mxPoint y="1" as="offset" />
          </mxGeometry>
        </mxCell>
        <mxCell id="ym168RmoMdldGewynsLo-56" value="Xác minh username và password" style="rounded=0;orthogonalLoop=1;jettySize=auto;html=1;verticalAlign=middle;" parent="ym168RmoMdldGewynsLo-213" target="ym168RmoMdldGewynsLo-54" edge="1">
          <mxGeometry x="0.027" y="18" relative="1" as="geometry">
            <mxPoint x="240" y="199.75" as="sourcePoint" />
            <mxPoint x="425" y="200.25" as="targetPoint" />
            <mxPoint y="1" as="offset" />
          </mxGeometry>
        </mxCell>
        <mxCell id="ym168RmoMdldGewynsLo-57" value="Gửi thông tin đến database" style="rounded=0;orthogonalLoop=1;jettySize=auto;html=1;verticalAlign=middle;" parent="ym168RmoMdldGewynsLo-213" edge="1">
          <mxGeometry x="0.027" y="18" relative="1" as="geometry">
            <mxPoint x="440" y="209.75" as="sourcePoint" />
            <mxPoint x="630" y="210" as="targetPoint" />
            <mxPoint y="1" as="offset" />
          </mxGeometry>
        </mxCell>
        <mxCell id="ym168RmoMdldGewynsLo-58" value="" style="rounded=0;orthogonalLoop=1;jettySize=auto;html=1;verticalAlign=middle;" parent="ym168RmoMdldGewynsLo-213" target="ym168RmoMdldGewynsLo-51" edge="1">
          <mxGeometry x="0.027" y="18" relative="1" as="geometry">
            <mxPoint x="640" y="225" as="sourcePoint" />
            <mxPoint x="640" y="245" as="targetPoint" />
            <mxPoint y="1" as="offset" />
          </mxGeometry>
        </mxCell>
        <mxCell id="ym168RmoMdldGewynsLo-59" value="Kết quả xác thực" style="rounded=0;orthogonalLoop=1;jettySize=auto;html=1;verticalAlign=middle;dashed=1;startArrow=classic;startFill=1;endArrow=none;endFill=0;" parent="ym168RmoMdldGewynsLo-213" edge="1">
          <mxGeometry x="0.027" y="18" relative="1" as="geometry">
            <mxPoint x="440" y="249.65999999999985" as="sourcePoint" />
            <mxPoint x="630" y="249.90999999999985" as="targetPoint" />
            <mxPoint y="1" as="offset" />
          </mxGeometry>
        </mxCell>
        <mxCell id="ym168RmoMdldGewynsLo-60" value="Thông báo kết quả đăng nhập" style="rounded=0;orthogonalLoop=1;jettySize=auto;html=1;verticalAlign=middle;dashed=1;startArrow=classic;startFill=1;endArrow=none;endFill=0;" parent="ym168RmoMdldGewynsLo-213" edge="1">
          <mxGeometry x="0.027" y="18" relative="1" as="geometry">
            <mxPoint x="240" y="262.3299999999999" as="sourcePoint" />
            <mxPoint x="430" y="262.5799999999999" as="targetPoint" />
            <mxPoint y="1" as="offset" />
          </mxGeometry>
        </mxCell>
        <mxCell id="ym168RmoMdldGewynsLo-61" value="Hiển thị thông báo&amp;nbsp;" style="html=1;align=left;spacingLeft=2;endArrow=block;rounded=0;edgeStyle=orthogonalEdgeStyle;curved=0;rounded=0;" parent="ym168RmoMdldGewynsLo-213" edge="1">
          <mxGeometry relative="1" as="geometry">
            <mxPoint x="240" y="285" as="sourcePoint" />
            <Array as="points">
              <mxPoint x="260" y="285" />
              <mxPoint x="260" y="305" />
            </Array>
            <mxPoint x="240" y="305" as="targetPoint" />
          </mxGeometry>
        </mxCell>
        <mxCell id="ym168RmoMdldGewynsLo-214" value="" style="group" parent="1" vertex="1" connectable="0">
          <mxGeometry x="40" y="560" width="760" height="540" as="geometry" />
        </mxCell>
        <mxCell id="ym168RmoMdldGewynsLo-211" value="" style="rounded=0;whiteSpace=wrap;html=1;" parent="ym168RmoMdldGewynsLo-214" vertex="1">
          <mxGeometry width="760" height="540" as="geometry" />
        </mxCell>
        <mxCell id="ym168RmoMdldGewynsLo-175" value="Khách hàng" style="shape=umlActor;verticalLabelPosition=bottom;verticalAlign=top;html=1;outlineConnect=0;" parent="ym168RmoMdldGewynsLo-214" vertex="1">
          <mxGeometry x="55.25" y="62" width="30" height="60" as="geometry" />
        </mxCell>
        <mxCell id="ym168RmoMdldGewynsLo-176" value="" style="shape=umlLifeline;perimeter=lifelinePerimeter;whiteSpace=wrap;html=1;container=1;dropTarget=0;collapsible=0;recursiveResize=0;outlineConnect=0;portConstraint=eastwest;newEdgeStyle={&quot;curved&quot;:0,&quot;rounded&quot;:0};participant=umlBoundary;" parent="ym168RmoMdldGewynsLo-214" vertex="1">
          <mxGeometry x="213.38" y="103.5" width="50" height="416.5" as="geometry" />
        </mxCell>
        <mxCell id="ym168RmoMdldGewynsLo-177" value="" style="html=1;points=[[0,0,0,0,5],[0,1,0,0,-5],[1,0,0,0,5],[1,1,0,0,-5]];perimeter=orthogonalPerimeter;outlineConnect=0;targetShapes=umlLifeline;portConstraint=eastwest;newEdgeStyle={&quot;curved&quot;:0,&quot;rounded&quot;:0};" parent="ym168RmoMdldGewynsLo-176" vertex="1">
          <mxGeometry x="20" y="76.5" width="10" height="50" as="geometry" />
        </mxCell>
        <mxCell id="ym168RmoMdldGewynsLo-178" value="Boundary Kiểm tra tồn" style="text;html=1;strokeColor=none;fillColor=none;align=center;verticalAlign=middle;whiteSpace=wrap;rounded=0;" parent="ym168RmoMdldGewynsLo-214" vertex="1">
          <mxGeometry x="203.8800000000001" y="60" width="69" height="30" as="geometry" />
        </mxCell>
        <mxCell id="ym168RmoMdldGewynsLo-179" value="" style="shape=umlLifeline;perimeter=lifelinePerimeter;whiteSpace=wrap;html=1;container=1;dropTarget=0;collapsible=0;recursiveResize=0;outlineConnect=0;portConstraint=eastwest;newEdgeStyle={&quot;curved&quot;:0,&quot;rounded&quot;:0};participant=umlControl;" parent="ym168RmoMdldGewynsLo-214" vertex="1">
          <mxGeometry x="380.88" y="103.5" width="40" height="416.5" as="geometry" />
        </mxCell>
        <mxCell id="ym168RmoMdldGewynsLo-180" value="" style="html=1;points=[[0,0,0,0,5],[0,1,0,0,-5],[1,0,0,0,5],[1,1,0,0,-5]];perimeter=orthogonalPerimeter;outlineConnect=0;targetShapes=umlLifeline;portConstraint=eastwest;newEdgeStyle={&quot;curved&quot;:0,&quot;rounded&quot;:0};" parent="ym168RmoMdldGewynsLo-179" vertex="1">
          <mxGeometry x="15" y="96.5" width="10" height="120" as="geometry" />
        </mxCell>
        <mxCell id="ym168RmoMdldGewynsLo-181" value="Control Kiểm tra tồn" style="text;html=1;strokeColor=none;fillColor=none;align=center;verticalAlign=middle;whiteSpace=wrap;rounded=0;" parent="ym168RmoMdldGewynsLo-214" vertex="1">
          <mxGeometry x="370.8800000000001" y="62" width="67.5" height="30" as="geometry" />
        </mxCell>
        <mxCell id="ym168RmoMdldGewynsLo-182" value="" style="shape=umlLifeline;perimeter=lifelinePerimeter;whiteSpace=wrap;html=1;container=1;dropTarget=0;collapsible=0;recursiveResize=0;outlineConnect=0;portConstraint=eastwest;newEdgeStyle={&quot;curved&quot;:0,&quot;rounded&quot;:0};participant=umlEntity;" parent="ym168RmoMdldGewynsLo-214" vertex="1">
          <mxGeometry x="524.75" y="103.5" width="40" height="416.5" as="geometry" />
        </mxCell>
        <mxCell id="ym168RmoMdldGewynsLo-183" value="" style="html=1;points=[[0,0,0,0,5],[0,1,0,0,-5],[1,0,0,0,5],[1,1,0,0,-5]];perimeter=orthogonalPerimeter;outlineConnect=0;targetShapes=umlLifeline;portConstraint=eastwest;newEdgeStyle={&quot;curved&quot;:0,&quot;rounded&quot;:0};" parent="ym168RmoMdldGewynsLo-182" vertex="1">
          <mxGeometry x="15" y="171" width="10" height="199" as="geometry" />
        </mxCell>
        <mxCell id="ym168RmoMdldGewynsLo-184" value="Hóa đơn" style="text;html=1;strokeColor=none;fillColor=none;align=center;verticalAlign=middle;whiteSpace=wrap;rounded=0;" parent="ym168RmoMdldGewynsLo-214" vertex="1">
          <mxGeometry x="514.75" y="65" width="60" height="30" as="geometry" />
        </mxCell>
        <mxCell id="ym168RmoMdldGewynsLo-185" value="" style="shape=umlLifeline;perimeter=lifelinePerimeter;whiteSpace=wrap;html=1;container=1;dropTarget=0;collapsible=0;recursiveResize=0;outlineConnect=0;portConstraint=eastwest;newEdgeStyle={&quot;curved&quot;:0,&quot;rounded&quot;:0};participant=umlEntity;" parent="ym168RmoMdldGewynsLo-214" vertex="1">
          <mxGeometry x="665.75" y="103.5" width="40" height="416.5" as="geometry" />
        </mxCell>
        <mxCell id="ym168RmoMdldGewynsLo-186" value="" style="html=1;points=[[0,0,0,0,5],[0,1,0,0,-5],[1,0,0,0,5],[1,1,0,0,-5]];perimeter=orthogonalPerimeter;outlineConnect=0;targetShapes=umlLifeline;portConstraint=eastwest;newEdgeStyle={&quot;curved&quot;:0,&quot;rounded&quot;:0};" parent="ym168RmoMdldGewynsLo-185" vertex="1">
          <mxGeometry x="15" y="196" width="10" height="174" as="geometry" />
        </mxCell>
        <mxCell id="ym168RmoMdldGewynsLo-187" value="Database" style="text;html=1;strokeColor=none;fillColor=none;align=center;verticalAlign=middle;whiteSpace=wrap;rounded=0;" parent="ym168RmoMdldGewynsLo-214" vertex="1">
          <mxGeometry x="654.75" y="62" width="60" height="30" as="geometry" />
        </mxCell>
        <mxCell id="ym168RmoMdldGewynsLo-188" value="" style="endArrow=none;dashed=1;html=1;rounded=0;" parent="ym168RmoMdldGewynsLo-214" edge="1">
          <mxGeometry width="50" height="50" relative="1" as="geometry">
            <mxPoint x="70" y="520" as="sourcePoint" />
            <mxPoint x="70" y="150" as="targetPoint" />
          </mxGeometry>
        </mxCell>
        <mxCell id="ym168RmoMdldGewynsLo-191" value="" style="html=1;points=[[0,0,0,0,5],[0,1,0,0,-5],[1,0,0,0,5],[1,1,0,0,-5]];perimeter=orthogonalPerimeter;outlineConnect=0;targetShapes=umlLifeline;portConstraint=eastwest;newEdgeStyle={&quot;curved&quot;:0,&quot;rounded&quot;:0};" parent="ym168RmoMdldGewynsLo-214" vertex="1">
          <mxGeometry x="65.25" y="172" width="10" height="318" as="geometry" />
        </mxCell>
        <mxCell id="ym168RmoMdldGewynsLo-192" value="Lựa chọn đơn hàng" style="html=1;verticalAlign=bottom;startArrow=oval;endArrow=block;startSize=8;curved=0;rounded=0;entryX=0;entryY=0;entryDx=0;entryDy=5;" parent="ym168RmoMdldGewynsLo-214" source="ym168RmoMdldGewynsLo-191" target="ym168RmoMdldGewynsLo-177" edge="1">
          <mxGeometry relative="1" as="geometry">
            <mxPoint x="154.3800000000001" y="195" as="sourcePoint" />
          </mxGeometry>
        </mxCell>
        <mxCell id="ym168RmoMdldGewynsLo-193" value="Lấy thông tin đơn hàng" style="html=1;verticalAlign=bottom;startArrow=oval;endArrow=block;startSize=8;curved=0;rounded=0;entryX=0;entryY=0;entryDx=0;entryDy=5;" parent="ym168RmoMdldGewynsLo-214" target="ym168RmoMdldGewynsLo-180" edge="1">
          <mxGeometry relative="1" as="geometry">
            <mxPoint x="244.3800000000001" y="205" as="sourcePoint" />
          </mxGeometry>
        </mxCell>
        <mxCell id="ym168RmoMdldGewynsLo-194" value="Thêm mới thông tin" style="html=1;verticalAlign=bottom;startArrow=oval;endArrow=block;startSize=8;curved=0;rounded=0;entryX=0;entryY=0;entryDx=0;entryDy=5;" parent="ym168RmoMdldGewynsLo-214" edge="1">
          <mxGeometry relative="1" as="geometry">
            <mxPoint x="410.0000000000001" y="290" as="sourcePoint" />
            <mxPoint x="541.37" y="290" as="targetPoint" />
          </mxGeometry>
        </mxCell>
        <mxCell id="ym168RmoMdldGewynsLo-195" value="Thêm mới thông tin" style="html=1;verticalAlign=bottom;startArrow=oval;endArrow=block;startSize=8;curved=0;rounded=0;" parent="ym168RmoMdldGewynsLo-214" edge="1">
          <mxGeometry relative="1" as="geometry">
            <mxPoint x="549.75" y="309.5" as="sourcePoint" />
            <mxPoint x="680" y="310.5" as="targetPoint" />
          </mxGeometry>
        </mxCell>
        <mxCell id="ym168RmoMdldGewynsLo-196" value="Kết quả" style="html=1;verticalAlign=bottom;endArrow=open;dashed=1;endSize=8;curved=0;rounded=0;" parent="ym168RmoMdldGewynsLo-214" edge="1">
          <mxGeometry relative="1" as="geometry">
            <mxPoint x="680" y="340" as="sourcePoint" />
            <mxPoint x="550.0000000000001" y="339.5" as="targetPoint" />
          </mxGeometry>
        </mxCell>
        <mxCell id="ym168RmoMdldGewynsLo-197" value="Kết quả đặt hàng" style="html=1;verticalAlign=bottom;endArrow=open;dashed=1;endSize=8;curved=0;rounded=0;" parent="ym168RmoMdldGewynsLo-214" target="ym168RmoMdldGewynsLo-191" edge="1">
          <mxGeometry relative="1" as="geometry">
            <mxPoint x="537.31" y="356.5499999999997" as="sourcePoint" />
            <mxPoint x="405.00000000000045" y="356.5499999999997" as="targetPoint" />
          </mxGeometry>
        </mxCell>
        <mxCell id="ym168RmoMdldGewynsLo-198" value="Kết quả kiểm tồn" style="html=1;verticalAlign=bottom;endArrow=open;dashed=1;endSize=8;curved=0;rounded=0;" parent="ym168RmoMdldGewynsLo-214" source="ym168RmoMdldGewynsLo-180" edge="1">
          <mxGeometry relative="1" as="geometry">
            <mxPoint x="380" y="270" as="sourcePoint" />
            <mxPoint x="75.25" y="270" as="targetPoint" />
          </mxGeometry>
        </mxCell>
        <mxCell id="ym168RmoMdldGewynsLo-201" value="&lt;font style=&quot;font-size: 14px;&quot;&gt;&lt;b style=&quot;&quot;&gt;Biểu đồ trình tự Tạo đơn đặt hàng&lt;/b&gt;&lt;/font&gt;" style="text;html=1;strokeColor=none;fillColor=none;align=center;verticalAlign=middle;whiteSpace=wrap;rounded=0;" parent="ym168RmoMdldGewynsLo-214" vertex="1">
          <mxGeometry x="0.37999999999999545" y="10" width="316.62" height="30" as="geometry" />
        </mxCell>
        <mxCell id="ym168RmoMdldGewynsLo-206" value="so sánh" style="html=1;align=left;spacingLeft=2;endArrow=block;rounded=0;edgeStyle=orthogonalEdgeStyle;curved=0;rounded=0;" parent="ym168RmoMdldGewynsLo-214" edge="1">
          <mxGeometry relative="1" as="geometry">
            <mxPoint x="405.43000000000006" y="219.8900000000001" as="sourcePoint" />
            <Array as="points">
              <mxPoint x="435.43000000000006" y="249.8900000000001" />
            </Array>
            <mxPoint x="410.43000000000006" y="249.9426315789476" as="targetPoint" />
          </mxGeometry>
        </mxCell>
        <mxCell id="ym168RmoMdldGewynsLo-207" value="Thanh toán" style="html=1;verticalAlign=bottom;startArrow=oval;endArrow=block;startSize=8;curved=0;rounded=0;" parent="ym168RmoMdldGewynsLo-214" edge="1">
          <mxGeometry relative="1" as="geometry">
            <mxPoint x="75.25" y="408.0899999999999" as="sourcePoint" />
            <mxPoint x="540" y="408" as="targetPoint" />
          </mxGeometry>
        </mxCell>
        <mxCell id="ym168RmoMdldGewynsLo-208" value="Thêm mới thông tin" style="html=1;verticalAlign=bottom;startArrow=oval;endArrow=block;startSize=8;curved=0;rounded=0;" parent="ym168RmoMdldGewynsLo-214" edge="1">
          <mxGeometry relative="1" as="geometry">
            <mxPoint x="549.75" y="432" as="sourcePoint" />
            <mxPoint x="680" y="433" as="targetPoint" />
          </mxGeometry>
        </mxCell>
        <mxCell id="ym168RmoMdldGewynsLo-209" value="Kết quả" style="html=1;verticalAlign=bottom;endArrow=open;dashed=1;endSize=8;curved=0;rounded=0;" parent="ym168RmoMdldGewynsLo-214" edge="1">
          <mxGeometry relative="1" as="geometry">
            <mxPoint x="680" y="462.5" as="sourcePoint" />
            <mxPoint x="550.0000000000001" y="462" as="targetPoint" />
          </mxGeometry>
        </mxCell>
        <mxCell id="ym168RmoMdldGewynsLo-210" value="Kết quả thanh toán" style="html=1;verticalAlign=bottom;endArrow=open;dashed=1;endSize=8;curved=0;rounded=0;" parent="ym168RmoMdldGewynsLo-214" edge="1">
          <mxGeometry relative="1" as="geometry">
            <mxPoint x="537.31" y="467.56999999999994" as="sourcePoint" />
            <mxPoint x="75" y="468.0200000000002" as="targetPoint" />
          </mxGeometry>
        </mxCell>
        <mxCell id="ym168RmoMdldGewynsLo-217" value="" style="group" parent="1" vertex="1" connectable="0">
          <mxGeometry x="40" y="1160" width="820" height="785" as="geometry" />
        </mxCell>
        <mxCell id="ym168RmoMdldGewynsLo-216" value="" style="rounded=0;whiteSpace=wrap;html=1;" parent="ym168RmoMdldGewynsLo-217" vertex="1">
          <mxGeometry width="820" height="785" as="geometry" />
        </mxCell>
        <mxCell id="ym168RmoMdldGewynsLo-1" value="" style="shape=umlLifeline;perimeter=lifelinePerimeter;whiteSpace=wrap;html=1;container=1;dropTarget=0;collapsible=0;recursiveResize=0;outlineConnect=0;portConstraint=eastwest;newEdgeStyle={&quot;curved&quot;:0,&quot;rounded&quot;:0};participant=umlActor;" parent="ym168RmoMdldGewynsLo-217" vertex="1">
          <mxGeometry x="43.5" y="97.5" width="20" height="657.5" as="geometry" />
        </mxCell>
        <mxCell id="ym168RmoMdldGewynsLo-2" value="" style="shape=umlLifeline;perimeter=lifelinePerimeter;whiteSpace=wrap;html=1;container=1;dropTarget=0;collapsible=0;recursiveResize=0;outlineConnect=0;portConstraint=eastwest;newEdgeStyle={&quot;curved&quot;:0,&quot;rounded&quot;:0};participant=umlBoundary;" parent="ym168RmoMdldGewynsLo-217" vertex="1">
          <mxGeometry x="184.5" y="91" width="55.5" height="664" as="geometry" />
        </mxCell>
        <mxCell id="ym168RmoMdldGewynsLo-3" value="" style="html=1;points=[[0,0,0,0,5],[0,1,0,0,-5],[1,0,0,0,5],[1,1,0,0,-5]];perimeter=orthogonalPerimeter;outlineConnect=0;targetShapes=umlLifeline;portConstraint=eastwest;newEdgeStyle={&quot;curved&quot;:0,&quot;rounded&quot;:0};" parent="ym168RmoMdldGewynsLo-2" vertex="1">
          <mxGeometry x="20" y="60" width="10" height="120" as="geometry" />
        </mxCell>
        <mxCell id="ym168RmoMdldGewynsLo-4" value="" style="shape=umlLifeline;perimeter=lifelinePerimeter;whiteSpace=wrap;html=1;container=1;dropTarget=0;collapsible=0;recursiveResize=0;outlineConnect=0;portConstraint=eastwest;newEdgeStyle={&quot;curved&quot;:0,&quot;rounded&quot;:0};participant=umlEntity;" parent="ym168RmoMdldGewynsLo-217" vertex="1">
          <mxGeometry x="479.5" y="92" width="40" height="663" as="geometry" />
        </mxCell>
        <mxCell id="ym168RmoMdldGewynsLo-5" value="" style="html=1;points=[[0,0,0,0,5],[0,1,0,0,-5],[1,0,0,0,5],[1,1,0,0,-5]];perimeter=orthogonalPerimeter;outlineConnect=0;targetShapes=umlLifeline;portConstraint=eastwest;newEdgeStyle={&quot;curved&quot;:0,&quot;rounded&quot;:0};" parent="ym168RmoMdldGewynsLo-4" vertex="1">
          <mxGeometry x="14" y="100" width="10" height="53" as="geometry" />
        </mxCell>
        <mxCell id="ym168RmoMdldGewynsLo-6" value="" style="html=1;points=[[0,0,0,0,5],[0,1,0,0,-5],[1,0,0,0,5],[1,1,0,0,-5]];perimeter=orthogonalPerimeter;outlineConnect=0;targetShapes=umlLifeline;portConstraint=eastwest;newEdgeStyle={&quot;curved&quot;:0,&quot;rounded&quot;:0};" parent="ym168RmoMdldGewynsLo-4" vertex="1">
          <mxGeometry x="14" y="200" width="10" height="60" as="geometry" />
        </mxCell>
        <mxCell id="ym168RmoMdldGewynsLo-7" value="" style="shape=umlLifeline;perimeter=lifelinePerimeter;whiteSpace=wrap;html=1;container=1;dropTarget=0;collapsible=0;recursiveResize=0;outlineConnect=0;portConstraint=eastwest;newEdgeStyle={&quot;curved&quot;:0,&quot;rounded&quot;:0};participant=umlControl;" parent="ym168RmoMdldGewynsLo-217" vertex="1">
          <mxGeometry x="333.5" y="91" width="46.5" height="664" as="geometry" />
        </mxCell>
        <mxCell id="ym168RmoMdldGewynsLo-8" value="" style="html=1;points=[[0,0,0,0,5],[0,1,0,0,-5],[1,0,0,0,5],[1,1,0,0,-5]];perimeter=orthogonalPerimeter;outlineConnect=0;targetShapes=umlLifeline;portConstraint=eastwest;newEdgeStyle={&quot;curved&quot;:0,&quot;rounded&quot;:0};" parent="ym168RmoMdldGewynsLo-7" vertex="1">
          <mxGeometry x="15" y="84" width="10" height="86" as="geometry" />
        </mxCell>
        <mxCell id="ym168RmoMdldGewynsLo-9" value="" style="html=1;points=[[0,0,0,0,5],[0,1,0,0,-5],[1,0,0,0,5],[1,1,0,0,-5]];perimeter=orthogonalPerimeter;outlineConnect=0;targetShapes=umlLifeline;portConstraint=eastwest;newEdgeStyle={&quot;curved&quot;:0,&quot;rounded&quot;:0};" parent="ym168RmoMdldGewynsLo-7" vertex="1">
          <mxGeometry x="-283.68" y="284" width="10" height="86" as="geometry" />
        </mxCell>
        <mxCell id="ym168RmoMdldGewynsLo-10" value="" style="html=1;points=[[0,0,0,0,5],[0,1,0,0,-5],[1,0,0,0,5],[1,1,0,0,-5]];perimeter=orthogonalPerimeter;outlineConnect=0;targetShapes=umlLifeline;portConstraint=eastwest;newEdgeStyle={&quot;curved&quot;:0,&quot;rounded&quot;:0};" parent="ym168RmoMdldGewynsLo-7" vertex="1">
          <mxGeometry x="-128.1" y="321" width="10" height="124" as="geometry" />
        </mxCell>
        <mxCell id="ym168RmoMdldGewynsLo-11" value="" style="html=1;points=[[0,0,0,0,5],[0,1,0,0,-5],[1,0,0,0,5],[1,1,0,0,-5]];perimeter=orthogonalPerimeter;outlineConnect=0;targetShapes=umlLifeline;portConstraint=eastwest;newEdgeStyle={&quot;curved&quot;:0,&quot;rounded&quot;:0};" parent="ym168RmoMdldGewynsLo-7" vertex="1">
          <mxGeometry x="-128.09999999999997" y="474" width="10" height="131" as="geometry" />
        </mxCell>
        <mxCell id="ym168RmoMdldGewynsLo-12" value="" style="html=1;points=[[0,0,0,0,5],[0,1,0,0,-5],[1,0,0,0,5],[1,1,0,0,-5]];perimeter=orthogonalPerimeter;outlineConnect=0;targetShapes=umlLifeline;portConstraint=eastwest;newEdgeStyle={&quot;curved&quot;:0,&quot;rounded&quot;:0};" parent="ym168RmoMdldGewynsLo-7" vertex="1">
          <mxGeometry x="15.899999999999984" y="324" width="10" height="121" as="geometry" />
        </mxCell>
        <mxCell id="ym168RmoMdldGewynsLo-13" value="" style="html=1;points=[[0,0,0,0,5],[0,1,0,0,-5],[1,0,0,0,5],[1,1,0,0,-5]];perimeter=orthogonalPerimeter;outlineConnect=0;targetShapes=umlLifeline;portConstraint=eastwest;newEdgeStyle={&quot;curved&quot;:0,&quot;rounded&quot;:0};" parent="ym168RmoMdldGewynsLo-7" vertex="1">
          <mxGeometry x="15.899999999999984" y="489" width="10" height="106" as="geometry" />
        </mxCell>
        <mxCell id="ym168RmoMdldGewynsLo-14" value="" style="html=1;points=[[0,0,0,0,5],[0,1,0,0,-5],[1,0,0,0,5],[1,1,0,0,-5]];perimeter=orthogonalPerimeter;outlineConnect=0;targetShapes=umlLifeline;portConstraint=eastwest;newEdgeStyle={&quot;curved&quot;:0,&quot;rounded&quot;:0};" parent="ym168RmoMdldGewynsLo-7" vertex="1">
          <mxGeometry x="425.9" y="364" width="10" height="63" as="geometry" />
        </mxCell>
        <mxCell id="ym168RmoMdldGewynsLo-16" value="Cập nhật thông tin" style="html=1;verticalAlign=bottom;endArrow=block;curved=0;rounded=0;" parent="ym168RmoMdldGewynsLo-7" source="ym168RmoMdldGewynsLo-10" target="ym168RmoMdldGewynsLo-12" edge="1">
          <mxGeometry width="80" relative="1" as="geometry">
            <mxPoint x="-118.10000000000008" y="379" as="sourcePoint" />
            <mxPoint x="-38.10000000000007" y="379" as="targetPoint" />
            <Array as="points">
              <mxPoint x="-94.10000000000008" y="344" />
              <mxPoint x="-44.10000000000007" y="344" />
              <mxPoint x="-14.100000000000072" y="344" />
            </Array>
          </mxGeometry>
        </mxCell>
        <mxCell id="ym168RmoMdldGewynsLo-17" value="Cập nhật thông tin" style="html=1;verticalAlign=bottom;endArrow=block;curved=0;rounded=0;" parent="ym168RmoMdldGewynsLo-7" target="ym168RmoMdldGewynsLo-31" edge="1">
          <mxGeometry width="80" relative="1" as="geometry">
            <mxPoint x="25.899999999999928" y="374" as="sourcePoint" />
            <mxPoint x="425.8999999999999" y="374" as="targetPoint" />
            <Array as="points">
              <mxPoint x="80.89999999999992" y="374" />
              <mxPoint x="125.89999999999992" y="374" />
            </Array>
          </mxGeometry>
        </mxCell>
        <mxCell id="ym168RmoMdldGewynsLo-20" value="Xác nhận thanh toán" style="html=1;verticalAlign=bottom;endArrow=block;curved=0;rounded=0;" parent="ym168RmoMdldGewynsLo-7" edge="1">
          <mxGeometry width="80" relative="1" as="geometry">
            <mxPoint x="-280.2666666666666" y="506" as="sourcePoint" />
            <mxPoint x="304.5" y="506" as="targetPoint" />
            <Array as="points">
              <mxPoint x="-174.10000000000008" y="506" />
            </Array>
          </mxGeometry>
        </mxCell>
        <mxCell id="ym168RmoMdldGewynsLo-23" value="Kết quả thanh toán" style="html=1;verticalAlign=bottom;endArrow=open;dashed=1;endSize=8;curved=0;rounded=0;" parent="ym168RmoMdldGewynsLo-7" source="ym168RmoMdldGewynsLo-41" edge="1">
          <mxGeometry relative="1" as="geometry">
            <mxPoint x="570.5" y="559" as="sourcePoint" />
            <mxPoint x="-273.5" y="564" as="targetPoint" />
            <Array as="points" />
          </mxGeometry>
        </mxCell>
        <mxCell id="ym168RmoMdldGewynsLo-26" value="Xác nhận đơn hàng" style="html=1;verticalAlign=bottom;endArrow=block;curved=0;rounded=0;" parent="ym168RmoMdldGewynsLo-7" source="ym168RmoMdldGewynsLo-9" target="ym168RmoMdldGewynsLo-10" edge="1">
          <mxGeometry width="80" relative="1" as="geometry">
            <mxPoint x="-279.10000000000014" y="329" as="sourcePoint" />
            <mxPoint x="-199.10000000000014" y="329" as="targetPoint" />
          </mxGeometry>
        </mxCell>
        <mxCell id="ym168RmoMdldGewynsLo-27" value=": KiemTraDonHang" style="text;html=1;align=center;verticalAlign=middle;resizable=0;points=[];autosize=1;strokeColor=none;fillColor=none;" parent="ym168RmoMdldGewynsLo-217" vertex="1">
          <mxGeometry x="144.5" y="60" width="130" height="30" as="geometry" />
        </mxCell>
        <mxCell id="ym168RmoMdldGewynsLo-28" value=": Ctr_KiemTraDonHang" style="text;html=1;align=center;verticalAlign=middle;resizable=0;points=[];autosize=1;strokeColor=none;fillColor=none;" parent="ym168RmoMdldGewynsLo-217" vertex="1">
          <mxGeometry x="283.5" y="61" width="150" height="30" as="geometry" />
        </mxCell>
        <mxCell id="ym168RmoMdldGewynsLo-29" value="Hàng hóa" style="text;html=1;align=center;verticalAlign=middle;resizable=0;points=[];autosize=1;strokeColor=none;fillColor=none;" parent="ym168RmoMdldGewynsLo-217" vertex="1">
          <mxGeometry x="459.5" y="61" width="80" height="30" as="geometry" />
        </mxCell>
        <mxCell id="ym168RmoMdldGewynsLo-30" value=": DơnHang" style="text;html=1;align=center;verticalAlign=middle;resizable=0;points=[];autosize=1;strokeColor=none;fillColor=none;" parent="ym168RmoMdldGewynsLo-217" vertex="1">
          <mxGeometry x="598.5" y="61" width="80" height="30" as="geometry" />
        </mxCell>
        <mxCell id="ym168RmoMdldGewynsLo-31" value="" style="shape=umlLifeline;perimeter=lifelinePerimeter;whiteSpace=wrap;html=1;container=1;dropTarget=0;collapsible=0;recursiveResize=0;outlineConnect=0;portConstraint=eastwest;newEdgeStyle={&quot;curved&quot;:0,&quot;rounded&quot;:0};participant=umlEntity;" parent="ym168RmoMdldGewynsLo-217" vertex="1">
          <mxGeometry x="618.5" y="91" width="40" height="664" as="geometry" />
        </mxCell>
        <mxCell id="ym168RmoMdldGewynsLo-32" value="Khách hàng" style="text;html=1;align=center;verticalAlign=middle;resizable=0;points=[];autosize=1;strokeColor=none;fillColor=none;" parent="ym168RmoMdldGewynsLo-217" vertex="1">
          <mxGeometry x="8.5" y="62" width="90" height="30" as="geometry" />
        </mxCell>
        <mxCell id="ym168RmoMdldGewynsLo-33" value="1. Yêu cầu đơn đặt hàng" style="html=1;verticalAlign=bottom;endArrow=block;curved=0;rounded=0;" parent="ym168RmoMdldGewynsLo-217" source="ym168RmoMdldGewynsLo-1" target="ym168RmoMdldGewynsLo-3" edge="1">
          <mxGeometry width="80" relative="1" as="geometry">
            <mxPoint x="68.4973684210529" y="159.47000000000025" as="sourcePoint" />
            <mxPoint x="195.04999999999995" y="159.47000000000025" as="targetPoint" />
            <Array as="points">
              <mxPoint x="118.5" y="165" />
              <mxPoint x="178.5" y="165" />
            </Array>
          </mxGeometry>
        </mxCell>
        <mxCell id="ym168RmoMdldGewynsLo-34" value="2. Lấy Yêu cầu đặt hàng" style="html=1;verticalAlign=bottom;endArrow=block;curved=0;rounded=0;" parent="ym168RmoMdldGewynsLo-217" edge="1">
          <mxGeometry width="80" relative="1" as="geometry">
            <mxPoint x="214.49999999999955" y="183" as="sourcePoint" />
            <mxPoint x="348.5" y="183" as="targetPoint" />
            <Array as="points" />
          </mxGeometry>
        </mxCell>
        <mxCell id="ym168RmoMdldGewynsLo-35" value="&lt;b style=&quot;&quot;&gt;&lt;font style=&quot;font-size: 14px;&quot;&gt;Biểu đồ trình tự Cập nhật đơn hàng&lt;/font&gt;&lt;/b&gt;" style="text;html=1;strokeColor=none;fillColor=none;align=center;verticalAlign=middle;whiteSpace=wrap;rounded=0;" parent="ym168RmoMdldGewynsLo-217" vertex="1">
          <mxGeometry x="18.5" y="25" width="251.5" height="20" as="geometry" />
        </mxCell>
        <mxCell id="ym168RmoMdldGewynsLo-36" value="3. Lấy Yêu cầu đặt hàng" style="html=1;verticalAlign=bottom;endArrow=block;curved=0;rounded=0;exitX=1;exitY=1;exitDx=0;exitDy=-5;exitPerimeter=0;" parent="ym168RmoMdldGewynsLo-217" edge="1">
          <mxGeometry width="80" relative="1" as="geometry">
            <mxPoint x="358.5" y="204.99999999999955" as="sourcePoint" />
            <mxPoint x="493.5" y="204.99999999999955" as="targetPoint" />
            <Array as="points" />
          </mxGeometry>
        </mxCell>
        <mxCell id="ym168RmoMdldGewynsLo-37" value="4. Trả về Phiếu đặt hàng" style="html=1;verticalAlign=bottom;endArrow=open;dashed=1;endSize=8;curved=0;rounded=0;exitX=0;exitY=1;exitDx=0;exitDy=-5;exitPerimeter=0;" parent="ym168RmoMdldGewynsLo-217" source="ym168RmoMdldGewynsLo-5" target="ym168RmoMdldGewynsLo-8" edge="1">
          <mxGeometry x="-0.0065" relative="1" as="geometry">
            <mxPoint x="484.5" y="240.40999999999985" as="sourcePoint" />
            <mxPoint x="404.5" y="240.40999999999985" as="targetPoint" />
            <mxPoint as="offset" />
          </mxGeometry>
        </mxCell>
        <mxCell id="ym168RmoMdldGewynsLo-38" value="5. Trả về Phiếu đặt hàng" style="html=1;verticalAlign=bottom;endArrow=open;dashed=1;endSize=8;curved=0;rounded=0;exitX=0;exitY=1;exitDx=0;exitDy=-5;exitPerimeter=0;" parent="ym168RmoMdldGewynsLo-217" edge="1">
          <mxGeometry x="-0.0065" relative="1" as="geometry">
            <mxPoint x="348.5" y="255" as="sourcePoint" />
            <mxPoint x="213.5" y="255" as="targetPoint" />
            <mxPoint as="offset" />
          </mxGeometry>
        </mxCell>
        <mxCell id="ym168RmoMdldGewynsLo-39" value="Thay đổi thông tin đơn đặt hàng" style="html=1;verticalAlign=bottom;endArrow=block;curved=0;rounded=0;entryX=0;entryY=0;entryDx=0;entryDy=5;entryPerimeter=0;" parent="ym168RmoMdldGewynsLo-217" source="ym168RmoMdldGewynsLo-1" target="ym168RmoMdldGewynsLo-6" edge="1">
          <mxGeometry width="80" relative="1" as="geometry">
            <mxPoint x="60" y="297" as="sourcePoint" />
            <mxPoint x="348.49999999999955" y="296" as="targetPoint" />
          </mxGeometry>
        </mxCell>
        <mxCell id="ym168RmoMdldGewynsLo-40" value="Trả về kết quả" style="html=1;verticalAlign=bottom;endArrow=open;dashed=1;endSize=8;curved=0;rounded=0;entryX=0.5;entryY=0.363;entryDx=0;entryDy=0;entryPerimeter=0;" parent="ym168RmoMdldGewynsLo-217" source="ym168RmoMdldGewynsLo-6" target="ym168RmoMdldGewynsLo-1" edge="1">
          <mxGeometry relative="1" as="geometry">
            <mxPoint x="350.25" y="337" as="sourcePoint" />
            <mxPoint x="-48.86111111111131" y="337" as="targetPoint" />
          </mxGeometry>
        </mxCell>
        <mxCell id="ym168RmoMdldGewynsLo-41" value="" style="shape=umlLifeline;perimeter=lifelinePerimeter;whiteSpace=wrap;html=1;container=1;dropTarget=0;collapsible=0;recursiveResize=0;outlineConnect=0;portConstraint=eastwest;newEdgeStyle={&quot;curved&quot;:0,&quot;rounded&quot;:0};participant=umlEntity;" parent="ym168RmoMdldGewynsLo-217" vertex="1">
          <mxGeometry x="743.5" y="92" width="46.5" height="663" as="geometry" />
        </mxCell>
        <mxCell id="ym168RmoMdldGewynsLo-42" value="Database" style="text;html=1;align=center;verticalAlign=middle;resizable=0;points=[];autosize=1;strokeColor=none;fillColor=none;" parent="ym168RmoMdldGewynsLo-217" vertex="1">
          <mxGeometry x="728.5" y="62" width="70" height="30" as="geometry" />
        </mxCell>
        <mxCell id="ym168RmoMdldGewynsLo-64" value="Kiểm tồn" style="html=1;align=left;spacingLeft=2;endArrow=block;rounded=0;edgeStyle=orthogonalEdgeStyle;curved=0;rounded=0;" parent="ym168RmoMdldGewynsLo-217" edge="1">
          <mxGeometry relative="1" as="geometry">
            <mxPoint x="504.5" y="306.8899999999999" as="sourcePoint" />
            <Array as="points">
              <mxPoint x="534.5" y="336.8899999999999" />
            </Array>
            <mxPoint x="509.5" y="336.9426315789474" as="targetPoint" />
          </mxGeometry>
        </mxCell>
        <mxCell id="ym168RmoMdldGewynsLo-215" value="5. Trả về Phiếu đặt hàng" style="html=1;verticalAlign=bottom;endArrow=open;dashed=1;endSize=8;curved=0;rounded=0;" parent="ym168RmoMdldGewynsLo-217" target="ym168RmoMdldGewynsLo-1" edge="1">
          <mxGeometry x="-0.0065" relative="1" as="geometry">
            <mxPoint x="205" y="265" as="sourcePoint" />
            <mxPoint x="59" y="265" as="targetPoint" />
            <mxPoint as="offset" />
          </mxGeometry>
        </mxCell>
        <mxCell id="ym168RmoMdldGewynsLo-18" value="Trả về thông tin" style="html=1;verticalAlign=bottom;endArrow=open;dashed=1;endSize=8;curved=0;rounded=0;" parent="ym168RmoMdldGewynsLo-217" source="ym168RmoMdldGewynsLo-31" target="ym168RmoMdldGewynsLo-1" edge="1">
          <mxGeometry relative="1" as="geometry">
            <mxPoint x="759.4000000000001" y="505" as="sourcePoint" />
            <mxPoint x="359.39999999999986" y="507.99999999999955" as="targetPoint" />
            <Array as="points">
              <mxPoint x="419.39999999999986" y="508" />
            </Array>
          </mxGeometry>
        </mxCell>
        <mxCell id="ym168RmoMdldGewynsLo-22" value="Thông tin thanh toán" style="html=1;verticalAlign=bottom;endArrow=block;curved=0;rounded=0;" parent="ym168RmoMdldGewynsLo-217" source="ym168RmoMdldGewynsLo-31" target="ym168RmoMdldGewynsLo-41" edge="1">
          <mxGeometry width="80" relative="1" as="geometry">
            <mxPoint x="489.39999999999986" y="540" as="sourcePoint" />
            <mxPoint x="904" y="620" as="targetPoint" />
            <Array as="points">
              <mxPoint x="760" y="620" />
            </Array>
          </mxGeometry>
        </mxCell>
        <mxCell id="lJsuNtHJNpiVQFgNKzUB-21" value="" style="group" vertex="1" connectable="0" parent="1">
          <mxGeometry x="910" y="150" width="1208" height="790" as="geometry" />
        </mxCell>
        <mxCell id="lJsuNtHJNpiVQFgNKzUB-20" value="" style="rounded=0;whiteSpace=wrap;html=1;" vertex="1" parent="lJsuNtHJNpiVQFgNKzUB-21">
          <mxGeometry width="1208" height="790" as="geometry" />
        </mxCell>
        <mxCell id="ym168RmoMdldGewynsLo-219" value="" style="shape=umlLifeline;perimeter=lifelinePerimeter;whiteSpace=wrap;html=1;container=1;dropTarget=0;collapsible=0;recursiveResize=0;outlineConnect=0;portConstraint=eastwest;newEdgeStyle={&quot;curved&quot;:0,&quot;rounded&quot;:0};participant=umlBoundary;" parent="lJsuNtHJNpiVQFgNKzUB-21" vertex="1">
          <mxGeometry x="367.5" y="86" width="55.5" height="664" as="geometry" />
        </mxCell>
        <mxCell id="ym168RmoMdldGewynsLo-220" value="" style="html=1;points=[[0,0,0,0,5],[0,1,0,0,-5],[1,0,0,0,5],[1,1,0,0,-5]];perimeter=orthogonalPerimeter;outlineConnect=0;targetShapes=umlLifeline;portConstraint=eastwest;newEdgeStyle={&quot;curved&quot;:0,&quot;rounded&quot;:0};" parent="ym168RmoMdldGewynsLo-219" vertex="1">
          <mxGeometry x="20" y="60" width="10" height="150" as="geometry" />
        </mxCell>
        <mxCell id="ym168RmoMdldGewynsLo-221" value="" style="shape=umlLifeline;perimeter=lifelinePerimeter;whiteSpace=wrap;html=1;container=1;dropTarget=0;collapsible=0;recursiveResize=0;outlineConnect=0;portConstraint=eastwest;newEdgeStyle={&quot;curved&quot;:0,&quot;rounded&quot;:0};participant=umlEntity;" parent="lJsuNtHJNpiVQFgNKzUB-21" vertex="1">
          <mxGeometry x="662" y="87" width="40" height="663" as="geometry" />
        </mxCell>
        <mxCell id="ym168RmoMdldGewynsLo-222" value="" style="html=1;points=[[0,0,0,0,5],[0,1,0,0,-5],[1,0,0,0,5],[1,1,0,0,-5]];perimeter=orthogonalPerimeter;outlineConnect=0;targetShapes=umlLifeline;portConstraint=eastwest;newEdgeStyle={&quot;curved&quot;:0,&quot;rounded&quot;:0};" parent="ym168RmoMdldGewynsLo-221" vertex="1">
          <mxGeometry x="14" y="100" width="10" height="53" as="geometry" />
        </mxCell>
        <mxCell id="ym168RmoMdldGewynsLo-224" value="" style="shape=umlLifeline;perimeter=lifelinePerimeter;whiteSpace=wrap;html=1;container=1;dropTarget=0;collapsible=0;recursiveResize=0;outlineConnect=0;portConstraint=eastwest;newEdgeStyle={&quot;curved&quot;:0,&quot;rounded&quot;:0};participant=umlControl;" parent="lJsuNtHJNpiVQFgNKzUB-21" vertex="1">
          <mxGeometry x="516.5" y="86" width="46.5" height="664" as="geometry" />
        </mxCell>
        <mxCell id="ym168RmoMdldGewynsLo-225" value="" style="html=1;points=[[0,0,0,0,5],[0,1,0,0,-5],[1,0,0,0,5],[1,1,0,0,-5]];perimeter=orthogonalPerimeter;outlineConnect=0;targetShapes=umlLifeline;portConstraint=eastwest;newEdgeStyle={&quot;curved&quot;:0,&quot;rounded&quot;:0};" parent="ym168RmoMdldGewynsLo-224" vertex="1">
          <mxGeometry x="15" y="84" width="10" height="186" as="geometry" />
        </mxCell>
        <mxCell id="ym168RmoMdldGewynsLo-244" value=": XuLyDonHang" style="text;html=1;align=center;verticalAlign=middle;resizable=0;points=[];autosize=1;strokeColor=none;fillColor=none;" parent="lJsuNtHJNpiVQFgNKzUB-21" vertex="1">
          <mxGeometry x="337.5" y="55" width="110" height="30" as="geometry" />
        </mxCell>
        <mxCell id="ym168RmoMdldGewynsLo-245" value=": KiemKeKho" style="text;html=1;align=center;verticalAlign=middle;resizable=0;points=[];autosize=1;strokeColor=none;fillColor=none;" parent="lJsuNtHJNpiVQFgNKzUB-21" vertex="1">
          <mxGeometry x="496.5" y="56" width="90" height="30" as="geometry" />
        </mxCell>
        <mxCell id="ym168RmoMdldGewynsLo-246" value=": HangHoa" style="text;html=1;align=center;verticalAlign=middle;resizable=0;points=[];autosize=1;strokeColor=none;fillColor=none;" parent="lJsuNtHJNpiVQFgNKzUB-21" vertex="1">
          <mxGeometry x="642.5" y="56" width="80" height="30" as="geometry" />
        </mxCell>
        <mxCell id="ym168RmoMdldGewynsLo-247" value="Kế toán" style="text;html=1;align=center;verticalAlign=middle;resizable=0;points=[];autosize=1;strokeColor=none;fillColor=none;" parent="lJsuNtHJNpiVQFgNKzUB-21" vertex="1">
          <mxGeometry x="791.5" y="56" width="60" height="30" as="geometry" />
        </mxCell>
        <mxCell id="ym168RmoMdldGewynsLo-248" value="" style="shape=umlLifeline;perimeter=lifelinePerimeter;whiteSpace=wrap;html=1;container=1;dropTarget=0;collapsible=0;recursiveResize=0;outlineConnect=0;portConstraint=eastwest;newEdgeStyle={&quot;curved&quot;:0,&quot;rounded&quot;:0};participant=umlEntity;" parent="lJsuNtHJNpiVQFgNKzUB-21" vertex="1">
          <mxGeometry x="801.5" y="86" width="40" height="664" as="geometry" />
        </mxCell>
        <mxCell id="ym168RmoMdldGewynsLo-249" value="Hệ thống web app" style="text;html=1;align=center;verticalAlign=middle;resizable=0;points=[];autosize=1;strokeColor=none;fillColor=none;" parent="lJsuNtHJNpiVQFgNKzUB-21" vertex="1">
          <mxGeometry x="176.5" y="57" width="120" height="30" as="geometry" />
        </mxCell>
        <mxCell id="ym168RmoMdldGewynsLo-250" value="Chuyển thông tin đơn hàng" style="html=1;verticalAlign=bottom;endArrow=block;curved=0;rounded=0;" parent="lJsuNtHJNpiVQFgNKzUB-21" target="ym168RmoMdldGewynsLo-220" edge="1">
          <mxGeometry x="0.003" width="80" relative="1" as="geometry">
            <mxPoint x="236.80769230769238" y="160.00000000000006" as="sourcePoint" />
            <mxPoint x="378.0500000000002" y="154.47000000000025" as="targetPoint" />
            <Array as="points">
              <mxPoint x="301.5" y="160" />
              <mxPoint x="361.5" y="160" />
            </Array>
            <mxPoint as="offset" />
          </mxGeometry>
        </mxCell>
        <mxCell id="ym168RmoMdldGewynsLo-251" value="Lưu thông tin đơn hàng" style="html=1;verticalAlign=bottom;endArrow=block;curved=0;rounded=0;entryX=0;entryY=0;entryDx=0;entryDy=5;entryPerimeter=0;" parent="lJsuNtHJNpiVQFgNKzUB-21" edge="1" target="lJsuNtHJNpiVQFgNKzUB-69">
          <mxGeometry width="80" relative="1" as="geometry">
            <mxPoint x="397.49999999999955" y="165" as="sourcePoint" />
            <mxPoint x="949.25" y="165" as="targetPoint" />
            <Array as="points" />
          </mxGeometry>
        </mxCell>
        <mxCell id="ym168RmoMdldGewynsLo-252" value="&lt;font size=&quot;1&quot; style=&quot;&quot;&gt;&lt;b style=&quot;font-size: 20px;&quot;&gt;Biểu đồ trình tự Xử lý và vận chuyển đơn hàng&lt;/b&gt;&lt;/font&gt;" style="text;html=1;strokeColor=none;fillColor=none;align=center;verticalAlign=middle;whiteSpace=wrap;rounded=0;" parent="lJsuNtHJNpiVQFgNKzUB-21" vertex="1">
          <mxGeometry x="120" y="20" width="468" height="20" as="geometry" />
        </mxCell>
        <mxCell id="ym168RmoMdldGewynsLo-253" value="Yêu cầu kiểm tra tồn kho" style="html=1;verticalAlign=bottom;endArrow=block;curved=0;rounded=0;" parent="lJsuNtHJNpiVQFgNKzUB-21" edge="1" target="ym168RmoMdldGewynsLo-225">
          <mxGeometry width="80" relative="1" as="geometry">
            <mxPoint x="398" y="200" as="sourcePoint" />
            <mxPoint x="528" y="200" as="targetPoint" />
            <Array as="points" />
          </mxGeometry>
        </mxCell>
        <mxCell id="ym168RmoMdldGewynsLo-255" value="Trả về Yêu cầu kiểm tra" style="html=1;verticalAlign=bottom;endArrow=open;dashed=1;endSize=8;curved=0;rounded=0;" parent="lJsuNtHJNpiVQFgNKzUB-21" edge="1">
          <mxGeometry x="-0.0065" relative="1" as="geometry">
            <mxPoint x="949.2500000000005" y="257" as="sourcePoint" />
            <mxPoint x="541" y="257" as="targetPoint" />
            <mxPoint as="offset" />
          </mxGeometry>
        </mxCell>
        <mxCell id="ym168RmoMdldGewynsLo-258" value="" style="shape=umlLifeline;perimeter=lifelinePerimeter;whiteSpace=wrap;html=1;container=1;dropTarget=0;collapsible=0;recursiveResize=0;outlineConnect=0;portConstraint=eastwest;newEdgeStyle={&quot;curved&quot;:0,&quot;rounded&quot;:0};participant=umlEntity;" parent="lJsuNtHJNpiVQFgNKzUB-21" vertex="1">
          <mxGeometry x="926.5" y="87" width="46.5" height="663" as="geometry" />
        </mxCell>
        <mxCell id="ym168RmoMdldGewynsLo-259" value="Database" style="text;html=1;align=center;verticalAlign=middle;resizable=0;points=[];autosize=1;strokeColor=none;fillColor=none;" parent="lJsuNtHJNpiVQFgNKzUB-21" vertex="1">
          <mxGeometry x="911.5" y="57" width="70" height="30" as="geometry" />
        </mxCell>
        <mxCell id="ym168RmoMdldGewynsLo-260" value="" style="shape=umlLifeline;perimeter=lifelinePerimeter;whiteSpace=wrap;html=1;container=1;dropTarget=0;collapsible=0;recursiveResize=0;outlineConnect=0;portConstraint=eastwest;newEdgeStyle={&quot;curved&quot;:0,&quot;rounded&quot;:0};participant=umlEntity;" parent="lJsuNtHJNpiVQFgNKzUB-21" vertex="1">
          <mxGeometry x="1071.5" y="86" width="40" height="663" as="geometry" />
        </mxCell>
        <mxCell id="ym168RmoMdldGewynsLo-261" value="Bộ phận bán hàng" style="text;html=1;align=center;verticalAlign=middle;resizable=0;points=[];autosize=1;strokeColor=none;fillColor=none;" parent="lJsuNtHJNpiVQFgNKzUB-21" vertex="1">
          <mxGeometry x="1031.5" y="56" width="120" height="30" as="geometry" />
        </mxCell>
        <mxCell id="ym168RmoMdldGewynsLo-262" value="" style="shape=umlLifeline;perimeter=lifelinePerimeter;whiteSpace=wrap;html=1;container=1;dropTarget=0;collapsible=0;recursiveResize=0;outlineConnect=0;portConstraint=eastwest;newEdgeStyle={&quot;curved&quot;:0,&quot;rounded&quot;:0};participant=umlActor;" parent="lJsuNtHJNpiVQFgNKzUB-21" vertex="1">
          <mxGeometry x="123" y="89.25" width="20" height="657.5" as="geometry" />
        </mxCell>
        <mxCell id="ym168RmoMdldGewynsLo-263" value="Tài xế" style="text;html=1;align=center;verticalAlign=middle;resizable=0;points=[];autosize=1;strokeColor=none;fillColor=none;" parent="lJsuNtHJNpiVQFgNKzUB-21" vertex="1">
          <mxGeometry x="103" y="57.5" width="60" height="30" as="geometry" />
        </mxCell>
        <mxCell id="lJsuNtHJNpiVQFgNKzUB-1" value="Kiểm tra số lượng" style="html=1;verticalAlign=bottom;endArrow=block;curved=0;rounded=0;" edge="1" parent="lJsuNtHJNpiVQFgNKzUB-21" target="lJsuNtHJNpiVQFgNKzUB-69">
          <mxGeometry width="80" relative="1" as="geometry">
            <mxPoint x="542" y="220" as="sourcePoint" />
            <mxPoint x="676" y="220" as="targetPoint" />
            <Array as="points" />
          </mxGeometry>
        </mxCell>
        <mxCell id="lJsuNtHJNpiVQFgNKzUB-3" value="Xác nhận đủ hàng" style="html=1;verticalAlign=bottom;endArrow=block;curved=0;rounded=0;" edge="1" parent="lJsuNtHJNpiVQFgNKzUB-21">
          <mxGeometry width="80" relative="1" as="geometry">
            <mxPoint x="530" y="280" as="sourcePoint" />
            <mxPoint x="400" y="280" as="targetPoint" />
            <Array as="points" />
          </mxGeometry>
        </mxCell>
        <mxCell id="lJsuNtHJNpiVQFgNKzUB-4" value="Tạo lệnh xuất kho" style="html=1;verticalAlign=bottom;endArrow=block;curved=0;rounded=0;" edge="1" parent="lJsuNtHJNpiVQFgNKzUB-21" target="ym168RmoMdldGewynsLo-221">
          <mxGeometry width="80" relative="1" as="geometry">
            <mxPoint x="398" y="320" as="sourcePoint" />
            <mxPoint x="532" y="320" as="targetPoint" />
            <Array as="points" />
          </mxGeometry>
        </mxCell>
        <mxCell id="lJsuNtHJNpiVQFgNKzUB-5" value="Xuất hàng từ kho" style="html=1;verticalAlign=bottom;endArrow=block;curved=0;rounded=0;" edge="1" parent="lJsuNtHJNpiVQFgNKzUB-21">
          <mxGeometry width="80" relative="1" as="geometry">
            <mxPoint x="681.9100000000001" y="350" as="sourcePoint" />
            <mxPoint x="538" y="350" as="targetPoint" />
            <Array as="points" />
          </mxGeometry>
        </mxCell>
        <mxCell id="lJsuNtHJNpiVQFgNKzUB-6" value="Cập nhật tồn kho" style="html=1;verticalAlign=bottom;endArrow=block;curved=0;rounded=0;" edge="1" parent="lJsuNtHJNpiVQFgNKzUB-21" target="lJsuNtHJNpiVQFgNKzUB-69">
          <mxGeometry width="80" relative="1" as="geometry">
            <mxPoint x="540.5" y="380" as="sourcePoint" />
            <mxPoint x="824.5" y="380" as="targetPoint" />
            <Array as="points" />
          </mxGeometry>
        </mxCell>
        <mxCell id="lJsuNtHJNpiVQFgNKzUB-7" value="Gửi phiếu xuất kho" style="html=1;verticalAlign=bottom;endArrow=block;curved=0;rounded=0;" edge="1" parent="lJsuNtHJNpiVQFgNKzUB-21" source="ym168RmoMdldGewynsLo-221" target="lJsuNtHJNpiVQFgNKzUB-70">
          <mxGeometry width="80" relative="1" as="geometry">
            <mxPoint x="688" y="417.15999999999997" as="sourcePoint" />
            <mxPoint x="822" y="417.15999999999997" as="targetPoint" />
            <Array as="points" />
          </mxGeometry>
        </mxCell>
        <mxCell id="lJsuNtHJNpiVQFgNKzUB-8" value="Thông báo chuẩn bị giao hàng" style="html=1;verticalAlign=bottom;endArrow=block;curved=0;rounded=0;" edge="1" parent="lJsuNtHJNpiVQFgNKzUB-21">
          <mxGeometry width="80" relative="1" as="geometry">
            <mxPoint x="238" y="454" as="sourcePoint" />
            <mxPoint x="1091" y="454" as="targetPoint" />
            <Array as="points" />
          </mxGeometry>
        </mxCell>
        <mxCell id="lJsuNtHJNpiVQFgNKzUB-9" value="Xác nhận đơn hàng và chuyển tiếp vận chuyển" style="html=1;verticalAlign=bottom;endArrow=block;curved=0;rounded=0;" edge="1" parent="lJsuNtHJNpiVQFgNKzUB-21" target="lJsuNtHJNpiVQFgNKzUB-68">
          <mxGeometry width="80" relative="1" as="geometry">
            <mxPoint x="1091.91" y="500" as="sourcePoint" />
            <mxPoint x="948" y="500" as="targetPoint" />
            <Array as="points" />
          </mxGeometry>
        </mxCell>
        <mxCell id="lJsuNtHJNpiVQFgNKzUB-10" value="Tổ chức vận chuyển" style="html=1;verticalAlign=bottom;endArrow=block;curved=0;rounded=0;" edge="1" parent="lJsuNtHJNpiVQFgNKzUB-21" source="lJsuNtHJNpiVQFgNKzUB-68">
          <mxGeometry x="0.003" width="80" relative="1" as="geometry">
            <mxPoint x="134" y="545" as="sourcePoint" />
            <mxPoint x="235.99999999999977" y="544.9999999999999" as="targetPoint" />
            <Array as="points">
              <mxPoint x="199.5" y="545" />
            </Array>
            <mxPoint as="offset" />
          </mxGeometry>
        </mxCell>
        <mxCell id="lJsuNtHJNpiVQFgNKzUB-11" value="" style="shape=umlLifeline;perimeter=lifelinePerimeter;whiteSpace=wrap;html=1;container=1;dropTarget=0;collapsible=0;recursiveResize=0;outlineConnect=0;portConstraint=eastwest;newEdgeStyle={&quot;curved&quot;:0,&quot;rounded&quot;:0};participant=umlEntity;" vertex="1" parent="lJsuNtHJNpiVQFgNKzUB-21">
          <mxGeometry x="217" y="92.5" width="40" height="664" as="geometry" />
        </mxCell>
        <mxCell id="lJsuNtHJNpiVQFgNKzUB-12" value="" style="shape=umlLifeline;perimeter=lifelinePerimeter;whiteSpace=wrap;html=1;container=1;dropTarget=0;collapsible=0;recursiveResize=0;outlineConnect=0;portConstraint=eastwest;newEdgeStyle={&quot;curved&quot;:0,&quot;rounded&quot;:0};participant=umlActor;" vertex="1" parent="lJsuNtHJNpiVQFgNKzUB-21">
          <mxGeometry x="58" y="88.75" width="20" height="657.5" as="geometry" />
        </mxCell>
        <mxCell id="lJsuNtHJNpiVQFgNKzUB-13" value="Khách hàng" style="text;html=1;align=center;verticalAlign=middle;resizable=0;points=[];autosize=1;strokeColor=none;fillColor=none;" vertex="1" parent="lJsuNtHJNpiVQFgNKzUB-21">
          <mxGeometry x="23" y="57" width="90" height="30" as="geometry" />
        </mxCell>
        <mxCell id="lJsuNtHJNpiVQFgNKzUB-15" value="Giao hàng" style="html=1;verticalAlign=bottom;endArrow=block;curved=0;rounded=0;" edge="1" parent="lJsuNtHJNpiVQFgNKzUB-21" source="lJsuNtHJNpiVQFgNKzUB-68">
          <mxGeometry width="80" relative="1" as="geometry">
            <mxPoint x="128" y="570" as="sourcePoint" />
            <mxPoint x="68" y="570" as="targetPoint" />
            <Array as="points" />
          </mxGeometry>
        </mxCell>
        <mxCell id="lJsuNtHJNpiVQFgNKzUB-16" value="Xác nhận đơn hàng" style="html=1;verticalAlign=bottom;endArrow=block;curved=0;rounded=0;" edge="1" parent="lJsuNtHJNpiVQFgNKzUB-21" target="ym168RmoMdldGewynsLo-260">
          <mxGeometry width="80" relative="1" as="geometry">
            <mxPoint x="68" y="600" as="sourcePoint" />
            <mxPoint x="921" y="600" as="targetPoint" />
            <Array as="points" />
          </mxGeometry>
        </mxCell>
        <mxCell id="lJsuNtHJNpiVQFgNKzUB-17" value="Thông báo hoàn thành giao dịch" style="html=1;verticalAlign=bottom;endArrow=block;curved=0;rounded=0;" edge="1" parent="lJsuNtHJNpiVQFgNKzUB-21" target="ym168RmoMdldGewynsLo-248">
          <mxGeometry width="80" relative="1" as="geometry">
            <mxPoint x="1091.91" y="640" as="sourcePoint" />
            <mxPoint x="948" y="640" as="targetPoint" />
            <Array as="points" />
          </mxGeometry>
        </mxCell>
        <mxCell id="lJsuNtHJNpiVQFgNKzUB-18" value="Cập nhật trạng thái" style="html=1;verticalAlign=bottom;endArrow=block;curved=0;rounded=0;" edge="1" parent="lJsuNtHJNpiVQFgNKzUB-21">
          <mxGeometry width="80" relative="1" as="geometry">
            <mxPoint x="821" y="680" as="sourcePoint" />
            <mxPoint x="948" y="680" as="targetPoint" />
            <Array as="points" />
          </mxGeometry>
        </mxCell>
        <mxCell id="lJsuNtHJNpiVQFgNKzUB-68" value="" style="html=1;points=[[0,0,0,0,5],[0,1,0,0,-5],[1,0,0,0,5],[1,1,0,0,-5]];perimeter=orthogonalPerimeter;outlineConnect=0;targetShapes=umlLifeline;portConstraint=eastwest;newEdgeStyle={&quot;curved&quot;:0,&quot;rounded&quot;:0};" vertex="1" parent="lJsuNtHJNpiVQFgNKzUB-21">
          <mxGeometry x="128" y="480" width="10" height="150" as="geometry" />
        </mxCell>
        <mxCell id="lJsuNtHJNpiVQFgNKzUB-69" value="" style="html=1;points=[[0,0,0,0,5],[0,1,0,0,-5],[1,0,0,0,5],[1,1,0,0,-5]];perimeter=orthogonalPerimeter;outlineConnect=0;targetShapes=umlLifeline;portConstraint=eastwest;newEdgeStyle={&quot;curved&quot;:0,&quot;rounded&quot;:0};" vertex="1" parent="lJsuNtHJNpiVQFgNKzUB-21">
          <mxGeometry x="944.75" y="160" width="10" height="250" as="geometry" />
        </mxCell>
        <mxCell id="lJsuNtHJNpiVQFgNKzUB-70" value="" style="html=1;points=[[0,0,0,0,5],[0,1,0,0,-5],[1,0,0,0,5],[1,1,0,0,-5]];perimeter=orthogonalPerimeter;outlineConnect=0;targetShapes=umlLifeline;portConstraint=eastwest;newEdgeStyle={&quot;curved&quot;:0,&quot;rounded&quot;:0};" vertex="1" parent="lJsuNtHJNpiVQFgNKzUB-21">
          <mxGeometry x="816.5" y="392" width="10" height="53" as="geometry" />
        </mxCell>
        <mxCell id="lJsuNtHJNpiVQFgNKzUB-99" value="" style="group" vertex="1" connectable="0" parent="1">
          <mxGeometry x="969" y="1080" width="1051" height="830" as="geometry" />
        </mxCell>
        <mxCell id="lJsuNtHJNpiVQFgNKzUB-98" value="" style="rounded=0;whiteSpace=wrap;html=1;" vertex="1" parent="lJsuNtHJNpiVQFgNKzUB-99">
          <mxGeometry width="1051" height="830" as="geometry" />
        </mxCell>
        <mxCell id="lJsuNtHJNpiVQFgNKzUB-24" value="" style="shape=umlLifeline;perimeter=lifelinePerimeter;whiteSpace=wrap;html=1;container=1;dropTarget=0;collapsible=0;recursiveResize=0;outlineConnect=0;portConstraint=eastwest;newEdgeStyle={&quot;curved&quot;:0,&quot;rounded&quot;:0};participant=umlBoundary;" vertex="1" parent="lJsuNtHJNpiVQFgNKzUB-99">
          <mxGeometry x="388.5" y="106" width="55.5" height="664" as="geometry" />
        </mxCell>
        <mxCell id="lJsuNtHJNpiVQFgNKzUB-25" value="" style="html=1;points=[[0,0,0,0,5],[0,1,0,0,-5],[1,0,0,0,5],[1,1,0,0,-5]];perimeter=orthogonalPerimeter;outlineConnect=0;targetShapes=umlLifeline;portConstraint=eastwest;newEdgeStyle={&quot;curved&quot;:0,&quot;rounded&quot;:0};" vertex="1" parent="lJsuNtHJNpiVQFgNKzUB-24">
          <mxGeometry x="20" y="60" width="10" height="420" as="geometry" />
        </mxCell>
        <mxCell id="lJsuNtHJNpiVQFgNKzUB-26" value="" style="shape=umlLifeline;perimeter=lifelinePerimeter;whiteSpace=wrap;html=1;container=1;dropTarget=0;collapsible=0;recursiveResize=0;outlineConnect=0;portConstraint=eastwest;newEdgeStyle={&quot;curved&quot;:0,&quot;rounded&quot;:0};participant=umlEntity;" vertex="1" parent="lJsuNtHJNpiVQFgNKzUB-99">
          <mxGeometry x="683" y="107" width="40" height="663" as="geometry" />
        </mxCell>
        <mxCell id="lJsuNtHJNpiVQFgNKzUB-27" value="" style="html=1;points=[[0,0,0,0,5],[0,1,0,0,-5],[1,0,0,0,5],[1,1,0,0,-5]];perimeter=orthogonalPerimeter;outlineConnect=0;targetShapes=umlLifeline;portConstraint=eastwest;newEdgeStyle={&quot;curved&quot;:0,&quot;rounded&quot;:0};" vertex="1" parent="lJsuNtHJNpiVQFgNKzUB-26">
          <mxGeometry x="14" y="100" width="10" height="53" as="geometry" />
        </mxCell>
        <mxCell id="lJsuNtHJNpiVQFgNKzUB-28" value="" style="shape=umlLifeline;perimeter=lifelinePerimeter;whiteSpace=wrap;html=1;container=1;dropTarget=0;collapsible=0;recursiveResize=0;outlineConnect=0;portConstraint=eastwest;newEdgeStyle={&quot;curved&quot;:0,&quot;rounded&quot;:0};participant=umlControl;" vertex="1" parent="lJsuNtHJNpiVQFgNKzUB-99">
          <mxGeometry x="537.5" y="106" width="46.5" height="664" as="geometry" />
        </mxCell>
        <mxCell id="lJsuNtHJNpiVQFgNKzUB-29" value="" style="html=1;points=[[0,0,0,0,5],[0,1,0,0,-5],[1,0,0,0,5],[1,1,0,0,-5]];perimeter=orthogonalPerimeter;outlineConnect=0;targetShapes=umlLifeline;portConstraint=eastwest;newEdgeStyle={&quot;curved&quot;:0,&quot;rounded&quot;:0};" vertex="1" parent="lJsuNtHJNpiVQFgNKzUB-28">
          <mxGeometry x="15" y="84" width="10" height="366" as="geometry" />
        </mxCell>
        <mxCell id="lJsuNtHJNpiVQFgNKzUB-30" value=": KiemTraChatLuong" style="text;html=1;align=center;verticalAlign=middle;resizable=0;points=[];autosize=1;strokeColor=none;fillColor=none;" vertex="1" parent="lJsuNtHJNpiVQFgNKzUB-99">
          <mxGeometry x="348.5" y="75" width="130" height="30" as="geometry" />
        </mxCell>
        <mxCell id="lJsuNtHJNpiVQFgNKzUB-31" value=": KhoHang" style="text;html=1;align=center;verticalAlign=middle;resizable=0;points=[];autosize=1;strokeColor=none;fillColor=none;" vertex="1" parent="lJsuNtHJNpiVQFgNKzUB-99">
          <mxGeometry x="522.5" y="76" width="80" height="30" as="geometry" />
        </mxCell>
        <mxCell id="lJsuNtHJNpiVQFgNKzUB-32" value="Kế toán" style="text;html=1;align=center;verticalAlign=middle;resizable=0;points=[];autosize=1;strokeColor=none;fillColor=none;" vertex="1" parent="lJsuNtHJNpiVQFgNKzUB-99">
          <mxGeometry x="673.5" y="76" width="60" height="30" as="geometry" />
        </mxCell>
        <mxCell id="lJsuNtHJNpiVQFgNKzUB-33" value="Database" style="text;html=1;align=center;verticalAlign=middle;resizable=0;points=[];autosize=1;strokeColor=none;fillColor=none;" vertex="1" parent="lJsuNtHJNpiVQFgNKzUB-99">
          <mxGeometry x="807.5" y="76" width="70" height="30" as="geometry" />
        </mxCell>
        <mxCell id="lJsuNtHJNpiVQFgNKzUB-34" value="" style="shape=umlLifeline;perimeter=lifelinePerimeter;whiteSpace=wrap;html=1;container=1;dropTarget=0;collapsible=0;recursiveResize=0;outlineConnect=0;portConstraint=eastwest;newEdgeStyle={&quot;curved&quot;:0,&quot;rounded&quot;:0};participant=umlEntity;" vertex="1" parent="lJsuNtHJNpiVQFgNKzUB-99">
          <mxGeometry x="822.5" y="106" width="40" height="664" as="geometry" />
        </mxCell>
        <mxCell id="lJsuNtHJNpiVQFgNKzUB-77" value="" style="html=1;points=[[0,0,0,0,5],[0,1,0,0,-5],[1,0,0,0,5],[1,1,0,0,-5]];perimeter=orthogonalPerimeter;outlineConnect=0;targetShapes=umlLifeline;portConstraint=eastwest;newEdgeStyle={&quot;curved&quot;:0,&quot;rounded&quot;:0};" vertex="1" parent="lJsuNtHJNpiVQFgNKzUB-34">
          <mxGeometry x="15" y="71.5" width="10" height="127.25" as="geometry" />
        </mxCell>
        <mxCell id="lJsuNtHJNpiVQFgNKzUB-35" value="QuanLyDonHang" style="text;html=1;align=center;verticalAlign=middle;resizable=0;points=[];autosize=1;strokeColor=none;fillColor=none;" vertex="1" parent="lJsuNtHJNpiVQFgNKzUB-99">
          <mxGeometry x="197.5" y="77" width="120" height="30" as="geometry" />
        </mxCell>
        <mxCell id="lJsuNtHJNpiVQFgNKzUB-37" value="Kiểm tra thông tin đơn hàng" style="html=1;verticalAlign=bottom;endArrow=block;curved=0;rounded=0;" edge="1" parent="lJsuNtHJNpiVQFgNKzUB-99" source="lJsuNtHJNpiVQFgNKzUB-45">
          <mxGeometry width="80" relative="1" as="geometry">
            <mxPoint x="160.05555555555566" y="185" as="sourcePoint" />
            <mxPoint x="837" y="185" as="targetPoint" />
            <Array as="points" />
          </mxGeometry>
        </mxCell>
        <mxCell id="lJsuNtHJNpiVQFgNKzUB-38" value="&lt;font size=&quot;1&quot; style=&quot;&quot;&gt;&lt;b style=&quot;font-size: 20px;&quot;&gt;Biểu đồ trình tự Hoàn trả hàng&lt;/b&gt;&lt;/font&gt;" style="text;html=1;strokeColor=none;fillColor=none;align=center;verticalAlign=middle;whiteSpace=wrap;rounded=0;" vertex="1" parent="lJsuNtHJNpiVQFgNKzUB-99">
          <mxGeometry x="31" y="40" width="312" height="20" as="geometry" />
        </mxCell>
        <mxCell id="lJsuNtHJNpiVQFgNKzUB-41" value="" style="shape=umlLifeline;perimeter=lifelinePerimeter;whiteSpace=wrap;html=1;container=1;dropTarget=0;collapsible=0;recursiveResize=0;outlineConnect=0;portConstraint=eastwest;newEdgeStyle={&quot;curved&quot;:0,&quot;rounded&quot;:0};participant=umlEntity;" vertex="1" parent="lJsuNtHJNpiVQFgNKzUB-99">
          <mxGeometry x="947.5" y="107" width="46.5" height="663" as="geometry" />
        </mxCell>
        <mxCell id="lJsuNtHJNpiVQFgNKzUB-78" value="" style="html=1;points=[[0,0,0,0,5],[0,1,0,0,-5],[1,0,0,0,5],[1,1,0,0,-5]];perimeter=orthogonalPerimeter;outlineConnect=0;targetShapes=umlLifeline;portConstraint=eastwest;newEdgeStyle={&quot;curved&quot;:0,&quot;rounded&quot;:0};" vertex="1" parent="lJsuNtHJNpiVQFgNKzUB-41">
          <mxGeometry x="18.25" y="185" width="10" height="215" as="geometry" />
        </mxCell>
        <mxCell id="lJsuNtHJNpiVQFgNKzUB-42" value="Vận chuyển" style="text;html=1;align=center;verticalAlign=middle;resizable=0;points=[];autosize=1;strokeColor=none;fillColor=none;" vertex="1" parent="lJsuNtHJNpiVQFgNKzUB-99">
          <mxGeometry x="922.5" y="77" width="90" height="30" as="geometry" />
        </mxCell>
        <mxCell id="lJsuNtHJNpiVQFgNKzUB-45" value="" style="shape=umlLifeline;perimeter=lifelinePerimeter;whiteSpace=wrap;html=1;container=1;dropTarget=0;collapsible=0;recursiveResize=0;outlineConnect=0;portConstraint=eastwest;newEdgeStyle={&quot;curved&quot;:0,&quot;rounded&quot;:0};participant=umlActor;" vertex="1" parent="lJsuNtHJNpiVQFgNKzUB-99">
          <mxGeometry x="144" y="109.25" width="20" height="690.75" as="geometry" />
        </mxCell>
        <mxCell id="lJsuNtHJNpiVQFgNKzUB-73" value="" style="html=1;points=[[0,0,0,0,5],[0,1,0,0,-5],[1,0,0,0,5],[1,1,0,0,-5]];perimeter=orthogonalPerimeter;outlineConnect=0;targetShapes=umlLifeline;portConstraint=eastwest;newEdgeStyle={&quot;curved&quot;:0,&quot;rounded&quot;:0};" vertex="1" parent="lJsuNtHJNpiVQFgNKzUB-45">
          <mxGeometry x="5" y="162.75" width="10" height="127.25" as="geometry" />
        </mxCell>
        <mxCell id="lJsuNtHJNpiVQFgNKzUB-96" value="" style="html=1;points=[[0,0,0,0,5],[0,1,0,0,-5],[1,0,0,0,5],[1,1,0,0,-5]];perimeter=orthogonalPerimeter;outlineConnect=0;targetShapes=umlLifeline;portConstraint=eastwest;newEdgeStyle={&quot;curved&quot;:0,&quot;rounded&quot;:0};" vertex="1" parent="lJsuNtHJNpiVQFgNKzUB-45">
          <mxGeometry x="5" y="620.75" width="10" height="53" as="geometry" />
        </mxCell>
        <mxCell id="lJsuNtHJNpiVQFgNKzUB-46" value="CSKH" style="text;html=1;align=center;verticalAlign=middle;resizable=0;points=[];autosize=1;strokeColor=none;fillColor=none;" vertex="1" parent="lJsuNtHJNpiVQFgNKzUB-99">
          <mxGeometry x="124" y="77.5" width="60" height="30" as="geometry" />
        </mxCell>
        <mxCell id="lJsuNtHJNpiVQFgNKzUB-49" value="Tạo lệnh thu hồi hàng hóa" style="html=1;verticalAlign=bottom;endArrow=block;curved=0;rounded=0;" edge="1" parent="lJsuNtHJNpiVQFgNKzUB-99" target="lJsuNtHJNpiVQFgNKzUB-78">
          <mxGeometry width="80" relative="1" as="geometry">
            <mxPoint x="159" y="366.6250000000002" as="sourcePoint" />
            <mxPoint x="961" y="367" as="targetPoint" />
            <Array as="points" />
          </mxGeometry>
        </mxCell>
        <mxCell id="lJsuNtHJNpiVQFgNKzUB-56" value="" style="shape=umlLifeline;perimeter=lifelinePerimeter;whiteSpace=wrap;html=1;container=1;dropTarget=0;collapsible=0;recursiveResize=0;outlineConnect=0;portConstraint=eastwest;newEdgeStyle={&quot;curved&quot;:0,&quot;rounded&quot;:0};participant=umlEntity;" vertex="1" parent="lJsuNtHJNpiVQFgNKzUB-99">
          <mxGeometry x="238" y="112.5" width="40" height="664" as="geometry" />
        </mxCell>
        <mxCell id="lJsuNtHJNpiVQFgNKzUB-74" value="" style="html=1;points=[[0,0,0,0,5],[0,1,0,0,-5],[1,0,0,0,5],[1,1,0,0,-5]];perimeter=orthogonalPerimeter;outlineConnect=0;targetShapes=umlLifeline;portConstraint=eastwest;newEdgeStyle={&quot;curved&quot;:0,&quot;rounded&quot;:0};" vertex="1" parent="lJsuNtHJNpiVQFgNKzUB-56">
          <mxGeometry x="14.5" y="118.5" width="10" height="200" as="geometry" />
        </mxCell>
        <mxCell id="lJsuNtHJNpiVQFgNKzUB-85" value="" style="html=1;points=[[0,0,0,0,5],[0,1,0,0,-5],[1,0,0,0,5],[1,1,0,0,-5]];perimeter=orthogonalPerimeter;outlineConnect=0;targetShapes=umlLifeline;portConstraint=eastwest;newEdgeStyle={&quot;curved&quot;:0,&quot;rounded&quot;:0};" vertex="1" parent="lJsuNtHJNpiVQFgNKzUB-56">
          <mxGeometry x="14.5" y="428.5" width="10" height="53" as="geometry" />
        </mxCell>
        <mxCell id="lJsuNtHJNpiVQFgNKzUB-91" value="" style="html=1;points=[[0,0,0,0,5],[0,1,0,0,-5],[1,0,0,0,5],[1,1,0,0,-5]];perimeter=orthogonalPerimeter;outlineConnect=0;targetShapes=umlLifeline;portConstraint=eastwest;newEdgeStyle={&quot;curved&quot;:0,&quot;rounded&quot;:0};" vertex="1" parent="lJsuNtHJNpiVQFgNKzUB-56">
          <mxGeometry x="14.5" y="594" width="10" height="53" as="geometry" />
        </mxCell>
        <mxCell id="lJsuNtHJNpiVQFgNKzUB-57" value="" style="shape=umlLifeline;perimeter=lifelinePerimeter;whiteSpace=wrap;html=1;container=1;dropTarget=0;collapsible=0;recursiveResize=0;outlineConnect=0;portConstraint=eastwest;newEdgeStyle={&quot;curved&quot;:0,&quot;rounded&quot;:0};participant=umlActor;" vertex="1" parent="lJsuNtHJNpiVQFgNKzUB-99">
          <mxGeometry x="50" y="108.75" width="20" height="691.25" as="geometry" />
        </mxCell>
        <mxCell id="lJsuNtHJNpiVQFgNKzUB-76" value="" style="html=1;points=[[0,0,0,0,5],[0,1,0,0,-5],[1,0,0,0,5],[1,1,0,0,-5]];perimeter=orthogonalPerimeter;outlineConnect=0;targetShapes=umlLifeline;portConstraint=eastwest;newEdgeStyle={&quot;curved&quot;:0,&quot;rounded&quot;:0};" vertex="1" parent="lJsuNtHJNpiVQFgNKzUB-57">
          <mxGeometry x="5" y="191.25" width="10" height="168.75" as="geometry" />
        </mxCell>
        <mxCell id="lJsuNtHJNpiVQFgNKzUB-97" value="" style="html=1;points=[[0,0,0,0,5],[0,1,0,0,-5],[1,0,0,0,5],[1,1,0,0,-5]];perimeter=orthogonalPerimeter;outlineConnect=0;targetShapes=umlLifeline;portConstraint=eastwest;newEdgeStyle={&quot;curved&quot;:0,&quot;rounded&quot;:0};" vertex="1" parent="lJsuNtHJNpiVQFgNKzUB-57">
          <mxGeometry x="5" y="638.25" width="10" height="53" as="geometry" />
        </mxCell>
        <mxCell id="lJsuNtHJNpiVQFgNKzUB-58" value="Khách hàng" style="text;html=1;align=center;verticalAlign=middle;resizable=0;points=[];autosize=1;strokeColor=none;fillColor=none;" vertex="1" parent="lJsuNtHJNpiVQFgNKzUB-99">
          <mxGeometry x="15" y="77" width="90" height="30" as="geometry" />
        </mxCell>
        <mxCell id="lJsuNtHJNpiVQFgNKzUB-64" value="Yêu cầu trả hàng" style="html=1;verticalAlign=bottom;endArrow=block;curved=0;rounded=0;" edge="1" parent="lJsuNtHJNpiVQFgNKzUB-99" target="lJsuNtHJNpiVQFgNKzUB-45">
          <mxGeometry x="0.0068" width="80" relative="1" as="geometry">
            <mxPoint x="61" y="170" as="sourcePoint" />
            <mxPoint x="151" y="170" as="targetPoint" />
            <Array as="points">
              <mxPoint x="125.69230769230762" y="170" />
            </Array>
            <mxPoint as="offset" />
          </mxGeometry>
        </mxCell>
        <mxCell id="lJsuNtHJNpiVQFgNKzUB-65" value="Trả về Yêu cầu kiểm tra" style="html=1;verticalAlign=bottom;endArrow=open;dashed=1;endSize=8;curved=0;rounded=0;" edge="1" parent="lJsuNtHJNpiVQFgNKzUB-99" source="lJsuNtHJNpiVQFgNKzUB-77">
          <mxGeometry x="-0.0065" relative="1" as="geometry">
            <mxPoint x="842" y="214" as="sourcePoint" />
            <mxPoint x="154.02380952380963" y="214" as="targetPoint" />
            <mxPoint as="offset" />
          </mxGeometry>
        </mxCell>
        <mxCell id="lJsuNtHJNpiVQFgNKzUB-66" value="Chuyển yêu cầu xử lý" style="html=1;verticalAlign=bottom;endArrow=block;curved=0;rounded=0;" edge="1" parent="lJsuNtHJNpiVQFgNKzUB-99">
          <mxGeometry width="80" relative="1" as="geometry">
            <mxPoint x="262" y="250" as="sourcePoint" />
            <mxPoint x="409.5" y="250" as="targetPoint" />
            <Array as="points" />
          </mxGeometry>
        </mxCell>
        <mxCell id="lJsuNtHJNpiVQFgNKzUB-67" value="Kiểm tra chính sách trả hàng" style="html=1;verticalAlign=bottom;endArrow=block;curved=0;rounded=0;" edge="1" parent="lJsuNtHJNpiVQFgNKzUB-99" source="lJsuNtHJNpiVQFgNKzUB-25">
          <mxGeometry width="80" relative="1" as="geometry">
            <mxPoint x="425.75" y="270" as="sourcePoint" />
            <mxPoint x="838" y="270" as="targetPoint" />
            <Array as="points" />
          </mxGeometry>
        </mxCell>
        <mxCell id="lJsuNtHJNpiVQFgNKzUB-71" value="Thông tin chính sách" style="html=1;verticalAlign=bottom;endArrow=open;dashed=1;endSize=8;curved=0;rounded=0;" edge="1" parent="lJsuNtHJNpiVQFgNKzUB-99" source="lJsuNtHJNpiVQFgNKzUB-77">
          <mxGeometry x="-0.0065" relative="1" as="geometry">
            <mxPoint x="839.9761904761904" y="303" as="sourcePoint" />
            <mxPoint x="418.5" y="303.0000000000002" as="targetPoint" />
            <mxPoint as="offset" />
          </mxGeometry>
        </mxCell>
        <mxCell id="lJsuNtHJNpiVQFgNKzUB-72" value="Xác nhận điều kiện" style="html=1;verticalAlign=bottom;endArrow=block;curved=0;rounded=0;" edge="1" parent="lJsuNtHJNpiVQFgNKzUB-99">
          <mxGeometry width="80" relative="1" as="geometry">
            <mxPoint x="251" y="320" as="sourcePoint" />
            <mxPoint x="161" y="320" as="targetPoint" />
            <Array as="points" />
          </mxGeometry>
        </mxCell>
        <mxCell id="lJsuNtHJNpiVQFgNKzUB-75" value="Thông báo" style="html=1;verticalAlign=bottom;endArrow=block;curved=0;rounded=0;" edge="1" parent="lJsuNtHJNpiVQFgNKzUB-99" source="lJsuNtHJNpiVQFgNKzUB-73">
          <mxGeometry width="80" relative="1" as="geometry">
            <mxPoint x="142.91000000000008" y="350" as="sourcePoint" />
            <mxPoint x="65" y="350" as="targetPoint" />
            <Array as="points" />
          </mxGeometry>
        </mxCell>
        <mxCell id="lJsuNtHJNpiVQFgNKzUB-79" value="Liên hệ lấy hàng" style="html=1;verticalAlign=bottom;endArrow=block;curved=0;rounded=0;" edge="1" parent="lJsuNtHJNpiVQFgNKzUB-99" source="lJsuNtHJNpiVQFgNKzUB-78">
          <mxGeometry width="80" relative="1" as="geometry">
            <mxPoint x="959" y="416" as="sourcePoint" />
            <mxPoint x="65" y="416" as="targetPoint" />
            <Array as="points" />
          </mxGeometry>
        </mxCell>
        <mxCell id="lJsuNtHJNpiVQFgNKzUB-80" value="Giao hàng cần trả" style="html=1;verticalAlign=bottom;endArrow=block;curved=0;rounded=0;" edge="1" parent="lJsuNtHJNpiVQFgNKzUB-99">
          <mxGeometry width="80" relative="1" as="geometry">
            <mxPoint x="65" y="455" as="sourcePoint" />
            <mxPoint x="965.75" y="455.0000000000002" as="targetPoint" />
            <Array as="points" />
          </mxGeometry>
        </mxCell>
        <mxCell id="lJsuNtHJNpiVQFgNKzUB-81" value="Chuyển hàng về kho" style="html=1;verticalAlign=bottom;endArrow=block;curved=0;rounded=0;" edge="1" parent="lJsuNtHJNpiVQFgNKzUB-99" target="lJsuNtHJNpiVQFgNKzUB-28">
          <mxGeometry width="80" relative="1" as="geometry">
            <mxPoint x="965.5" y="490" as="sourcePoint" />
            <mxPoint x="875.5" y="490" as="targetPoint" />
            <Array as="points" />
          </mxGeometry>
        </mxCell>
        <mxCell id="lJsuNtHJNpiVQFgNKzUB-82" value="Yêu cầu kiểm tra hàng" style="html=1;verticalAlign=bottom;endArrow=block;curved=0;rounded=0;" edge="1" parent="lJsuNtHJNpiVQFgNKzUB-99" target="lJsuNtHJNpiVQFgNKzUB-25">
          <mxGeometry width="80" relative="1" as="geometry">
            <mxPoint x="551" y="507" as="sourcePoint" />
            <mxPoint x="421" y="507" as="targetPoint" />
            <Array as="points" />
          </mxGeometry>
        </mxCell>
        <mxCell id="lJsuNtHJNpiVQFgNKzUB-83" value="Kiểm tra tình trạng" style="html=1;verticalAlign=bottom;endArrow=block;curved=0;rounded=0;" edge="1" parent="lJsuNtHJNpiVQFgNKzUB-99">
          <mxGeometry width="80" relative="1" as="geometry">
            <mxPoint x="421" y="540" as="sourcePoint" />
            <mxPoint x="551" y="540" as="targetPoint" />
            <Array as="points" />
          </mxGeometry>
        </mxCell>
        <mxCell id="lJsuNtHJNpiVQFgNKzUB-84" value="Xác nhận hàng hóa" style="html=1;verticalAlign=bottom;endArrow=block;curved=0;rounded=0;" edge="1" parent="lJsuNtHJNpiVQFgNKzUB-99">
          <mxGeometry width="80" relative="1" as="geometry">
            <mxPoint x="410" y="560" as="sourcePoint" />
            <mxPoint x="261" y="560" as="targetPoint" />
            <Array as="points" />
          </mxGeometry>
        </mxCell>
        <mxCell id="lJsuNtHJNpiVQFgNKzUB-86" value="Nhập lại kho" style="html=1;verticalAlign=bottom;endArrow=block;curved=0;rounded=0;" edge="1" parent="lJsuNtHJNpiVQFgNKzUB-99">
          <mxGeometry width="80" relative="1" as="geometry">
            <mxPoint x="262" y="590" as="sourcePoint" />
            <mxPoint x="561" y="590" as="targetPoint" />
            <Array as="points" />
          </mxGeometry>
        </mxCell>
        <mxCell id="lJsuNtHJNpiVQFgNKzUB-87" value="Cập nhật tồn kho" style="html=1;verticalAlign=bottom;endArrow=block;curved=0;rounded=0;" edge="1" parent="lJsuNtHJNpiVQFgNKzUB-99">
          <mxGeometry width="80" relative="1" as="geometry">
            <mxPoint x="563.5" y="620" as="sourcePoint" />
            <mxPoint x="841" y="620" as="targetPoint" />
            <Array as="points" />
          </mxGeometry>
        </mxCell>
        <mxCell id="lJsuNtHJNpiVQFgNKzUB-88" value="Tạo phiếu hoàn tiền" style="html=1;verticalAlign=bottom;endArrow=block;curved=0;rounded=0;" edge="1" parent="lJsuNtHJNpiVQFgNKzUB-99" target="lJsuNtHJNpiVQFgNKzUB-26">
          <mxGeometry width="80" relative="1" as="geometry">
            <mxPoint x="259" y="659" as="sourcePoint" />
            <mxPoint x="558" y="659" as="targetPoint" />
            <Array as="points" />
          </mxGeometry>
        </mxCell>
        <mxCell id="lJsuNtHJNpiVQFgNKzUB-89" value="Ghi nhận giao dịch" style="html=1;verticalAlign=bottom;endArrow=block;curved=0;rounded=0;" edge="1" parent="lJsuNtHJNpiVQFgNKzUB-99">
          <mxGeometry width="80" relative="1" as="geometry">
            <mxPoint x="703.75" y="680" as="sourcePoint" />
            <mxPoint x="841" y="680" as="targetPoint" />
            <Array as="points" />
          </mxGeometry>
        </mxCell>
        <mxCell id="lJsuNtHJNpiVQFgNKzUB-90" value="Hoàn tiền" style="html=1;verticalAlign=bottom;endArrow=block;curved=0;rounded=0;" edge="1" parent="lJsuNtHJNpiVQFgNKzUB-99" target="lJsuNtHJNpiVQFgNKzUB-57">
          <mxGeometry width="80" relative="1" as="geometry">
            <mxPoint x="843.5" y="710" as="sourcePoint" />
            <mxPoint x="438" y="710" as="targetPoint" />
            <Array as="points" />
          </mxGeometry>
        </mxCell>
        <mxCell id="lJsuNtHJNpiVQFgNKzUB-92" value="Cập nhật trạng thái đơn hàng" style="html=1;verticalAlign=bottom;endArrow=block;curved=0;rounded=0;" edge="1" parent="lJsuNtHJNpiVQFgNKzUB-99" target="lJsuNtHJNpiVQFgNKzUB-34">
          <mxGeometry width="80" relative="1" as="geometry">
            <mxPoint x="263" y="740" as="sourcePoint" />
            <mxPoint x="562" y="740" as="targetPoint" />
            <Array as="points" />
          </mxGeometry>
        </mxCell>
        <mxCell id="lJsuNtHJNpiVQFgNKzUB-94" value="Thông báo hoàn tất" style="html=1;verticalAlign=bottom;endArrow=block;curved=0;rounded=0;" edge="1" parent="lJsuNtHJNpiVQFgNKzUB-99">
          <mxGeometry width="80" relative="1" as="geometry">
            <mxPoint x="251" y="750" as="sourcePoint" />
            <mxPoint x="161" y="750" as="targetPoint" />
            <Array as="points" />
          </mxGeometry>
        </mxCell>
        <mxCell id="lJsuNtHJNpiVQFgNKzUB-95" value="Xác nhận hoàn tất" style="html=1;verticalAlign=bottom;endArrow=block;curved=0;rounded=0;" edge="1" parent="lJsuNtHJNpiVQFgNKzUB-99">
          <mxGeometry width="80" relative="1" as="geometry">
            <mxPoint x="149" y="780" as="sourcePoint" />
            <mxPoint x="65" y="780" as="targetPoint" />
            <Array as="points" />
          </mxGeometry>
        </mxCell>
        <mxCell id="lJsuNtHJNpiVQFgNKzUB-221" value="" style="group" vertex="1" connectable="0" parent="1">
          <mxGeometry x="2481" y="974" width="950" height="780" as="geometry" />
        </mxCell>
        <mxCell id="lJsuNtHJNpiVQFgNKzUB-271" value="" style="rounded=0;whiteSpace=wrap;html=1;" vertex="1" parent="lJsuNtHJNpiVQFgNKzUB-221">
          <mxGeometry x="-23.66" y="-21.9" width="973.66" height="801.9" as="geometry" />
        </mxCell>
        <mxCell id="lJsuNtHJNpiVQFgNKzUB-222" value="&lt;font style=&quot;font-size: 18px;&quot;&gt;&lt;b&gt;Biểu đồ trình tự xuất kho&lt;/b&gt;&lt;/font&gt;" style="text;html=1;strokeColor=none;fillColor=none;align=center;verticalAlign=middle;whiteSpace=wrap;rounded=0;" vertex="1" parent="lJsuNtHJNpiVQFgNKzUB-221">
          <mxGeometry width="230" height="30.08" as="geometry" />
        </mxCell>
        <mxCell id="lJsuNtHJNpiVQFgNKzUB-223" value="&lt;span style=&quot;font-weight: normal;&quot;&gt;XuatKho&lt;/span&gt;" style="text;align=center;fontStyle=1;verticalAlign=middle;spacingLeft=3;spacingRight=3;strokeColor=none;rotatable=0;points=[[0,0.5],[1,0.5]];portConstraint=eastwest;html=1;" vertex="1" parent="lJsuNtHJNpiVQFgNKzUB-221">
          <mxGeometry x="145.36036036036032" y="38.101604278074866" width="66.45045045045045" height="26.06951871657754" as="geometry" />
        </mxCell>
        <mxCell id="lJsuNtHJNpiVQFgNKzUB-224" value="&lt;span style=&quot;font-weight: normal;&quot;&gt;Ctr_XuatKho&lt;/span&gt;" style="text;align=center;fontStyle=1;verticalAlign=middle;spacingLeft=3;spacingRight=3;strokeColor=none;rotatable=0;points=[[0,0.5],[1,0.5]];portConstraint=eastwest;html=1;" vertex="1" parent="lJsuNtHJNpiVQFgNKzUB-221">
          <mxGeometry x="312.73243243243235" y="38.101604278074866" width="66.45045045045045" height="26.06951871657754" as="geometry" />
        </mxCell>
        <mxCell id="lJsuNtHJNpiVQFgNKzUB-225" value="&lt;span style=&quot;font-weight: normal;&quot;&gt;YeuCauXuatKho&lt;/span&gt;" style="text;align=center;fontStyle=1;verticalAlign=middle;spacingLeft=3;spacingRight=3;strokeColor=none;rotatable=0;points=[[0,0.5],[1,0.5]];portConstraint=eastwest;html=1;" vertex="1" parent="lJsuNtHJNpiVQFgNKzUB-221">
          <mxGeometry x="456.8468468468468" y="38.101604278074866" width="66.45045045045045" height="26.06951871657754" as="geometry" />
        </mxCell>
        <mxCell id="lJsuNtHJNpiVQFgNKzUB-226" value="&lt;span style=&quot;font-weight: normal;&quot;&gt;KiemTraTonKho&lt;/span&gt;" style="text;align=center;fontStyle=1;verticalAlign=middle;spacingLeft=3;spacingRight=3;strokeColor=none;rotatable=0;points=[[0,0.5],[1,0.5]];portConstraint=eastwest;html=1;" vertex="1" parent="lJsuNtHJNpiVQFgNKzUB-221">
          <mxGeometry x="598.054054054054" y="38.101604278074866" width="66.45045045045045" height="26.06951871657754" as="geometry" />
        </mxCell>
        <mxCell id="lJsuNtHJNpiVQFgNKzUB-227" value="&lt;span style=&quot;font-weight: normal;&quot;&gt;LapPhieuXuat&lt;/span&gt;" style="text;align=center;fontStyle=1;verticalAlign=middle;spacingLeft=3;spacingRight=3;strokeColor=none;rotatable=0;points=[[0,0.5],[1,0.5]];portConstraint=eastwest;html=1;" vertex="1" parent="lJsuNtHJNpiVQFgNKzUB-221">
          <mxGeometry x="730.954954954955" y="38.101604278074866" width="66.45045045045045" height="26.06951871657754" as="geometry" />
        </mxCell>
        <mxCell id="lJsuNtHJNpiVQFgNKzUB-228" value="" style="shape=umlLifeline;perimeter=lifelinePerimeter;whiteSpace=wrap;html=1;container=1;dropTarget=0;collapsible=0;recursiveResize=0;outlineConnect=0;portConstraint=eastwest;newEdgeStyle={&quot;curved&quot;:0,&quot;rounded&quot;:0};participant=umlActor;" vertex="1" parent="lJsuNtHJNpiVQFgNKzUB-221">
          <mxGeometry x="22.842342342342345" y="72.19251336898395" width="26.99549549549549" height="675.8021390374331" as="geometry" />
        </mxCell>
        <mxCell id="lJsuNtHJNpiVQFgNKzUB-229" value="" style="html=1;points=[[0,0,0,0,5],[0,1,0,0,-5],[1,0,0,0,5],[1,1,0,0,-5]];perimeter=orthogonalPerimeter;outlineConnect=0;targetShapes=umlLifeline;portConstraint=eastwest;newEdgeStyle={&quot;curved&quot;:0,&quot;rounded&quot;:0};" vertex="1" parent="lJsuNtHJNpiVQFgNKzUB-228">
          <mxGeometry x="9.344594594594593" y="98.2620320855615" width="8.306306306306306" height="513.3689839572193" as="geometry" />
        </mxCell>
        <mxCell id="lJsuNtHJNpiVQFgNKzUB-230" value="" style="shape=umlLifeline;perimeter=lifelinePerimeter;whiteSpace=wrap;html=1;container=1;dropTarget=0;collapsible=0;recursiveResize=0;outlineConnect=0;portConstraint=eastwest;newEdgeStyle={&quot;curved&quot;:0,&quot;rounded&quot;:0};participant=umlBoundary;size=64;" vertex="1" parent="lJsuNtHJNpiVQFgNKzUB-221">
          <mxGeometry x="132.9009009009009" y="73.19518716577541" width="83.06306306306303" height="676.8048128342247" as="geometry" />
        </mxCell>
        <mxCell id="lJsuNtHJNpiVQFgNKzUB-231" value="" style="html=1;points=[[0,0,0,0,5],[0,1,0,0,-5],[1,0,0,0,5],[1,1,0,0,-5]];perimeter=orthogonalPerimeter;outlineConnect=0;targetShapes=umlLifeline;portConstraint=eastwest;newEdgeStyle={&quot;curved&quot;:0,&quot;rounded&quot;:0};" vertex="1" parent="lJsuNtHJNpiVQFgNKzUB-230">
          <mxGeometry x="37.37837837837837" y="91.2433155080214" width="8.306306306306302" height="139.3716577540107" as="geometry" />
        </mxCell>
        <mxCell id="lJsuNtHJNpiVQFgNKzUB-232" value="" style="html=1;points=[[0,0,0,0,5],[0,1,0,0,-5],[1,0,0,0,5],[1,1,0,0,-5]];perimeter=orthogonalPerimeter;outlineConnect=0;targetShapes=umlLifeline;portConstraint=eastwest;newEdgeStyle={&quot;curved&quot;:0,&quot;rounded&quot;:0};" vertex="1" parent="lJsuNtHJNpiVQFgNKzUB-230">
          <mxGeometry x="37.37837837837837" y="280.7486631016043" width="8.306306306306302" height="160.42780748663102" as="geometry" />
        </mxCell>
        <mxCell id="lJsuNtHJNpiVQFgNKzUB-233" value="" style="html=1;points=[[0,0,0,0,5],[0,1,0,0,-5],[1,0,0,0,5],[1,1,0,0,-5]];perimeter=orthogonalPerimeter;outlineConnect=0;targetShapes=umlLifeline;portConstraint=eastwest;newEdgeStyle={&quot;curved&quot;:0,&quot;rounded&quot;:0};" vertex="1" parent="lJsuNtHJNpiVQFgNKzUB-230">
          <mxGeometry x="37.37837837837837" y="496.3235294117647" width="8.306306306306302" height="115.30748663101605" as="geometry" />
        </mxCell>
        <mxCell id="lJsuNtHJNpiVQFgNKzUB-234" value="" style="shape=umlLifeline;perimeter=lifelinePerimeter;whiteSpace=wrap;html=1;container=1;dropTarget=0;collapsible=0;recursiveResize=0;outlineConnect=0;portConstraint=eastwest;newEdgeStyle={&quot;curved&quot;:0,&quot;rounded&quot;:0};participant=umlControl;size=77;" vertex="1" parent="lJsuNtHJNpiVQFgNKzUB-221">
          <mxGeometry x="315.43198198198195" y="64.1711229946524" width="69.35765765765765" height="675.8021390374331" as="geometry" />
        </mxCell>
        <mxCell id="lJsuNtHJNpiVQFgNKzUB-235" value="" style="html=1;points=[[0,0,0,0,5],[0,1,0,0,-5],[1,0,0,0,5],[1,1,0,0,-5]];perimeter=orthogonalPerimeter;outlineConnect=0;targetShapes=umlLifeline;portConstraint=eastwest;newEdgeStyle={&quot;curved&quot;:0,&quot;rounded&quot;:0};" vertex="1" parent="lJsuNtHJNpiVQFgNKzUB-234">
          <mxGeometry x="30.52567567567567" y="130.3475935828877" width="8.306306306306306" height="100.26737967914438" as="geometry" />
        </mxCell>
        <mxCell id="lJsuNtHJNpiVQFgNKzUB-236" value="" style="html=1;points=[[0,0,0,0,5],[0,1,0,0,-5],[1,0,0,0,5],[1,1,0,0,-5]];perimeter=orthogonalPerimeter;outlineConnect=0;targetShapes=umlLifeline;portConstraint=eastwest;newEdgeStyle={&quot;curved&quot;:0,&quot;rounded&quot;:0};" vertex="1" parent="lJsuNtHJNpiVQFgNKzUB-234">
          <mxGeometry x="30.52567567567567" y="310.32754010695186" width="8.306306306306306" height="160.92914438502675" as="geometry" />
        </mxCell>
        <mxCell id="lJsuNtHJNpiVQFgNKzUB-237" value="" style="html=1;points=[[0,0,0,0,5],[0,1,0,0,-5],[1,0,0,0,5],[1,1,0,0,-5]];perimeter=orthogonalPerimeter;outlineConnect=0;targetShapes=umlLifeline;portConstraint=eastwest;newEdgeStyle={&quot;curved&quot;:0,&quot;rounded&quot;:0};" vertex="1" parent="lJsuNtHJNpiVQFgNKzUB-234">
          <mxGeometry x="29.279729729729723" y="529.4117647058823" width="8.306306306306306" height="82.2192513368984" as="geometry" />
        </mxCell>
        <mxCell id="lJsuNtHJNpiVQFgNKzUB-238" value="" style="shape=umlLifeline;perimeter=lifelinePerimeter;whiteSpace=wrap;html=1;container=1;dropTarget=0;collapsible=0;recursiveResize=0;outlineConnect=0;portConstraint=eastwest;newEdgeStyle={&quot;curved&quot;:0,&quot;rounded&quot;:0};participant=umlEntity;size=60;" vertex="1" parent="lJsuNtHJNpiVQFgNKzUB-221">
          <mxGeometry x="465.153153153153" y="73.19518716577541" width="66.45045045045045" height="626.6711229946524" as="geometry" />
        </mxCell>
        <mxCell id="lJsuNtHJNpiVQFgNKzUB-239" value="" style="html=1;points=[[0,0,0,0,5],[0,1,0,0,-5],[1,0,0,0,5],[1,1,0,0,-5]];perimeter=orthogonalPerimeter;outlineConnect=0;targetShapes=umlLifeline;portConstraint=eastwest;newEdgeStyle={&quot;curved&quot;:0,&quot;rounded&quot;:0};" vertex="1" parent="lJsuNtHJNpiVQFgNKzUB-238">
          <mxGeometry x="26.58018018018018" y="136.36363636363637" width="8.306306306306306" height="80.21390374331551" as="geometry" />
        </mxCell>
        <mxCell id="lJsuNtHJNpiVQFgNKzUB-240" value="" style="shape=umlLifeline;perimeter=lifelinePerimeter;whiteSpace=wrap;html=1;container=1;dropTarget=0;collapsible=0;recursiveResize=0;outlineConnect=0;portConstraint=eastwest;newEdgeStyle={&quot;curved&quot;:0,&quot;rounded&quot;:0};participant=umlEntity;size=60;" vertex="1" parent="lJsuNtHJNpiVQFgNKzUB-221">
          <mxGeometry x="598.054054054054" y="71.18983957219251" width="58.14414414414413" height="626.6711229946524" as="geometry" />
        </mxCell>
        <mxCell id="lJsuNtHJNpiVQFgNKzUB-241" value="" style="html=1;points=[[0,0,0,0,5],[0,1,0,0,-5],[1,0,0,0,5],[1,1,0,0,-5]];perimeter=orthogonalPerimeter;outlineConnect=0;targetShapes=umlLifeline;portConstraint=eastwest;newEdgeStyle={&quot;curved&quot;:0,&quot;rounded&quot;:0};" vertex="1" parent="lJsuNtHJNpiVQFgNKzUB-240">
          <mxGeometry x="22.427027027027023" y="333.8903743315508" width="8.306306306306306" height="97.25935828877006" as="geometry" />
        </mxCell>
        <mxCell id="lJsuNtHJNpiVQFgNKzUB-242" value="" style="shape=umlLifeline;perimeter=lifelinePerimeter;whiteSpace=wrap;html=1;container=1;dropTarget=0;collapsible=0;recursiveResize=0;outlineConnect=0;portConstraint=eastwest;newEdgeStyle={&quot;curved&quot;:0,&quot;rounded&quot;:0};participant=umlEntity;size=60;" vertex="1" parent="lJsuNtHJNpiVQFgNKzUB-221">
          <mxGeometry x="739.2612612612611" y="71.18983957219251" width="58.14414414414413" height="626.6711229946524" as="geometry" />
        </mxCell>
        <mxCell id="lJsuNtHJNpiVQFgNKzUB-243" value="" style="html=1;points=[[0,0,0,0,5],[0,1,0,0,-5],[1,0,0,0,5],[1,1,0,0,-5]];perimeter=orthogonalPerimeter;outlineConnect=0;targetShapes=umlLifeline;portConstraint=eastwest;newEdgeStyle={&quot;curved&quot;:0,&quot;rounded&quot;:0};" vertex="1" parent="lJsuNtHJNpiVQFgNKzUB-242">
          <mxGeometry x="22.427027027027023" y="361.96524064171126" width="8.306306306306306" height="59.157754010695186" as="geometry" />
        </mxCell>
        <mxCell id="lJsuNtHJNpiVQFgNKzUB-244" value="&lt;span style=&quot;font-weight: normal;&quot;&gt;Kế toán&lt;/span&gt;" style="text;align=center;fontStyle=1;verticalAlign=middle;spacingLeft=3;spacingRight=3;strokeColor=none;rotatable=0;points=[[0,0.5],[1,0.5]];portConstraint=eastwest;html=1;" vertex="1" parent="lJsuNtHJNpiVQFgNKzUB-221">
          <mxGeometry x="9.344594594594593" y="38.101604278074866" width="66.45045045045045" height="26.06951871657754" as="geometry" />
        </mxCell>
        <mxCell id="lJsuNtHJNpiVQFgNKzUB-245" value="" style="endArrow=block;endFill=1;html=1;edgeStyle=orthogonalEdgeStyle;align=left;verticalAlign=top;rounded=0;" edge="1" parent="lJsuNtHJNpiVQFgNKzUB-221">
          <mxGeometry x="-1" relative="1" as="geometry">
            <mxPoint x="178.58558558558556" y="208.58479755538582" as="sourcePoint" />
            <mxPoint x="348.8648648648648" y="208.55614973262033" as="targetPoint" />
            <Array as="points">
              <mxPoint x="307.3333333333333" y="208.55614973262033" />
              <mxPoint x="307.3333333333333" y="208.55614973262033" />
            </Array>
            <mxPoint as="offset" />
          </mxGeometry>
        </mxCell>
        <mxCell id="lJsuNtHJNpiVQFgNKzUB-246" value="Lấy yêu cầu xuất kho" style="edgeLabel;resizable=0;html=1;align=left;verticalAlign=bottom;" connectable="0" vertex="1" parent="lJsuNtHJNpiVQFgNKzUB-245">
          <mxGeometry x="-1" relative="1" as="geometry">
            <mxPoint x="22" as="offset" />
          </mxGeometry>
        </mxCell>
        <mxCell id="lJsuNtHJNpiVQFgNKzUB-247" value="" style="endArrow=block;endFill=1;html=1;edgeStyle=orthogonalEdgeStyle;align=left;verticalAlign=top;rounded=0;exitX=0.93;exitY=0.293;exitDx=0;exitDy=0;exitPerimeter=0;" edge="1" parent="lJsuNtHJNpiVQFgNKzUB-221" source="lJsuNtHJNpiVQFgNKzUB-235" target="lJsuNtHJNpiVQFgNKzUB-239">
          <mxGeometry x="-1" relative="1" as="geometry">
            <mxPoint x="357.1711711711711" y="219.5855614973262" as="sourcePoint" />
            <mxPoint x="481.7657657657657" y="219.5855614973262" as="targetPoint" />
            <Array as="points">
              <mxPoint x="353.8486486486486" y="219.5855614973262" />
            </Array>
            <mxPoint as="offset" />
          </mxGeometry>
        </mxCell>
        <mxCell id="lJsuNtHJNpiVQFgNKzUB-248" value="&amp;nbsp; &amp;nbsp;Lấy yêu cầu xuất kho" style="edgeLabel;resizable=0;html=1;align=left;verticalAlign=bottom;" connectable="0" vertex="1" parent="lJsuNtHJNpiVQFgNKzUB-247">
          <mxGeometry x="-1" relative="1" as="geometry">
            <mxPoint x="1" y="-4" as="offset" />
          </mxGeometry>
        </mxCell>
        <mxCell id="lJsuNtHJNpiVQFgNKzUB-249" value="&amp;nbsp; Trả về yêu cầu xuất kho" style="html=1;verticalAlign=bottom;endArrow=open;dashed=1;endSize=8;curved=0;rounded=0;" edge="1" parent="lJsuNtHJNpiVQFgNKzUB-221">
          <mxGeometry x="-0.003" relative="1" as="geometry">
            <mxPoint x="494.2252252252251" y="274.44184491978615" as="sourcePoint" />
            <mxPoint x="354.2639639639639" y="274.44184491978615" as="targetPoint" />
            <mxPoint as="offset" />
          </mxGeometry>
        </mxCell>
        <mxCell id="lJsuNtHJNpiVQFgNKzUB-250" value="&amp;nbsp;Trả về yêu cầu xuất kho" style="html=1;verticalAlign=bottom;endArrow=open;dashed=1;endSize=8;curved=0;rounded=0;exitX=-0.141;exitY=0.909;exitDx=0;exitDy=0;exitPerimeter=0;" edge="1" parent="lJsuNtHJNpiVQFgNKzUB-221" source="lJsuNtHJNpiVQFgNKzUB-235" target="lJsuNtHJNpiVQFgNKzUB-231">
          <mxGeometry relative="1" as="geometry">
            <mxPoint x="347.61891891891884" y="284.75935828877004" as="sourcePoint" />
            <mxPoint x="207.65765765765764" y="284.75935828877004" as="targetPoint" />
          </mxGeometry>
        </mxCell>
        <mxCell id="lJsuNtHJNpiVQFgNKzUB-251" value="Tạo yêu cầu xuất kho" style="html=1;verticalAlign=bottom;endArrow=block;curved=0;rounded=0;exitX=0.125;exitY=0.028;exitDx=0;exitDy=0;exitPerimeter=0;" edge="1" parent="lJsuNtHJNpiVQFgNKzUB-221" source="lJsuNtHJNpiVQFgNKzUB-229" target="lJsuNtHJNpiVQFgNKzUB-231">
          <mxGeometry width="80" relative="1" as="geometry">
            <mxPoint x="34.7868108108108" y="184.49197860962568" as="sourcePoint" />
            <mxPoint x="164.5728468468468" y="184.49197860962568" as="targetPoint" />
          </mxGeometry>
        </mxCell>
        <mxCell id="lJsuNtHJNpiVQFgNKzUB-252" value="&lt;font style=&quot;font-size: 10px;&quot;&gt;&amp;nbsp;Xét duyệt yêu cầu xuất kho&lt;/font&gt;" style="html=1;verticalAlign=bottom;endArrow=block;curved=0;rounded=0;entryX=0;entryY=0;entryDx=0;entryDy=5;" edge="1" parent="lJsuNtHJNpiVQFgNKzUB-221" target="lJsuNtHJNpiVQFgNKzUB-232">
          <mxGeometry x="0.0323" relative="1" as="geometry">
            <mxPoint x="41.53153153153151" y="358.9572192513369" as="sourcePoint" />
            <mxPoint as="offset" />
          </mxGeometry>
        </mxCell>
        <mxCell id="lJsuNtHJNpiVQFgNKzUB-253" value="&amp;nbsp;Lấy phiếu xuất kho" style="html=1;verticalAlign=bottom;endArrow=block;curved=0;rounded=0;entryX=0;entryY=0;entryDx=0;entryDy=5;" edge="1" parent="lJsuNtHJNpiVQFgNKzUB-221" source="lJsuNtHJNpiVQFgNKzUB-232" target="lJsuNtHJNpiVQFgNKzUB-236">
          <mxGeometry relative="1" as="geometry">
            <mxPoint x="287.81351351351344" y="379.5120320855615" as="sourcePoint" />
          </mxGeometry>
        </mxCell>
        <mxCell id="lJsuNtHJNpiVQFgNKzUB-254" value="&amp;nbsp;Trả về phiếu xuất" style="html=1;verticalAlign=bottom;endArrow=open;dashed=1;endSize=8;curved=0;rounded=0;" edge="1" parent="lJsuNtHJNpiVQFgNKzUB-221">
          <mxGeometry relative="1" as="geometry">
            <mxPoint x="178.58558558558556" y="509.3582887700535" as="targetPoint" />
            <mxPoint x="345.9576576576576" y="509.3582887700535" as="sourcePoint" />
            <Array as="points">
              <mxPoint x="265.8018018018018" y="509.3582887700535" />
            </Array>
          </mxGeometry>
        </mxCell>
        <mxCell id="lJsuNtHJNpiVQFgNKzUB-255" value="&amp;nbsp;Kiểm tra tồn kho" style="html=1;verticalAlign=bottom;endArrow=block;curved=0;rounded=0;entryX=0;entryY=0;entryDx=0;entryDy=5;" edge="1" parent="lJsuNtHJNpiVQFgNKzUB-221" source="lJsuNtHJNpiVQFgNKzUB-236" target="lJsuNtHJNpiVQFgNKzUB-241">
          <mxGeometry relative="1" as="geometry">
            <mxPoint x="573.135135135135" y="410.09358288770056" as="sourcePoint" />
          </mxGeometry>
        </mxCell>
        <mxCell id="lJsuNtHJNpiVQFgNKzUB-256" value="&amp;nbsp;Trả về thông tin tồn kho" style="html=1;verticalAlign=bottom;endArrow=open;dashed=1;endSize=8;curved=0;rounded=0;exitX=0;exitY=1;exitDx=0;exitDy=-5;" edge="1" parent="lJsuNtHJNpiVQFgNKzUB-221" source="lJsuNtHJNpiVQFgNKzUB-241" target="lJsuNtHJNpiVQFgNKzUB-236">
          <mxGeometry relative="1" as="geometry">
            <mxPoint x="573.135135135135" y="480.28074866310163" as="targetPoint" />
          </mxGeometry>
        </mxCell>
        <mxCell id="lJsuNtHJNpiVQFgNKzUB-257" value="&amp;nbsp;Lập phiếu xuất kho" style="html=1;verticalAlign=bottom;endArrow=block;curved=0;rounded=0;entryX=0;entryY=0;entryDx=0;entryDy=5;" edge="1" parent="lJsuNtHJNpiVQFgNKzUB-221" source="lJsuNtHJNpiVQFgNKzUB-241" target="lJsuNtHJNpiVQFgNKzUB-243">
          <mxGeometry relative="1" as="geometry">
            <mxPoint x="703.5441441441441" y="438.168449197861" as="sourcePoint" />
          </mxGeometry>
        </mxCell>
        <mxCell id="lJsuNtHJNpiVQFgNKzUB-258" value="&amp;nbsp;Trả về phiếu xuất" style="html=1;verticalAlign=bottom;endArrow=open;dashed=1;endSize=8;curved=0;rounded=0;exitX=0;exitY=1;exitDx=0;exitDy=-5;" edge="1" parent="lJsuNtHJNpiVQFgNKzUB-221" source="lJsuNtHJNpiVQFgNKzUB-243" target="lJsuNtHJNpiVQFgNKzUB-241">
          <mxGeometry relative="1" as="geometry">
            <mxPoint x="703.5441441441441" y="508.35561497326205" as="targetPoint" />
          </mxGeometry>
        </mxCell>
        <mxCell id="lJsuNtHJNpiVQFgNKzUB-259" value="" style="shape=umlLifeline;perimeter=lifelinePerimeter;whiteSpace=wrap;html=1;container=1;dropTarget=0;collapsible=0;recursiveResize=0;outlineConnect=0;portConstraint=eastwest;newEdgeStyle={&quot;curved&quot;:0,&quot;rounded&quot;:0};participant=umlEntity;size=60;" vertex="1" parent="lJsuNtHJNpiVQFgNKzUB-221">
          <mxGeometry x="863.8558558558557" y="72.19251336898395" width="58.14414414414413" height="626.6711229946524" as="geometry" />
        </mxCell>
        <mxCell id="lJsuNtHJNpiVQFgNKzUB-260" value="" style="html=1;points=[[0,0,0,0,5],[0,1,0,0,-5],[1,0,0,0,5],[1,1,0,0,-5]];perimeter=orthogonalPerimeter;outlineConnect=0;targetShapes=umlLifeline;portConstraint=eastwest;newEdgeStyle={&quot;curved&quot;:0,&quot;rounded&quot;:0};" vertex="1" parent="lJsuNtHJNpiVQFgNKzUB-259">
          <mxGeometry x="24.918918918918916" y="537.433155080214" width="8.306306306306306" height="44.11764705882353" as="geometry" />
        </mxCell>
        <mxCell id="lJsuNtHJNpiVQFgNKzUB-261" value="&lt;span style=&quot;font-weight: normal;&quot;&gt;Database&lt;/span&gt;" style="text;align=center;fontStyle=1;verticalAlign=middle;spacingLeft=3;spacingRight=3;strokeColor=none;rotatable=0;points=[[0,0.5],[1,0.5]];portConstraint=eastwest;html=1;" vertex="1" parent="lJsuNtHJNpiVQFgNKzUB-221">
          <mxGeometry x="855.5495495495493" y="38.101604278074866" width="66.45045045045045" height="26.06951871657754" as="geometry" />
        </mxCell>
        <mxCell id="lJsuNtHJNpiVQFgNKzUB-262" value="&amp;nbsp;Cập nhật thông tin" style="html=1;verticalAlign=bottom;endArrow=block;curved=0;rounded=0;entryX=0;entryY=0;entryDx=0;entryDy=5;" edge="1" parent="lJsuNtHJNpiVQFgNKzUB-221" source="lJsuNtHJNpiVQFgNKzUB-229" target="lJsuNtHJNpiVQFgNKzUB-233">
          <mxGeometry relative="1" as="geometry">
            <mxPoint x="112.13513513513512" y="574.5320855614973" as="sourcePoint" />
          </mxGeometry>
        </mxCell>
        <mxCell id="lJsuNtHJNpiVQFgNKzUB-263" value="&amp;nbsp;Trả về thông tin" style="html=1;verticalAlign=bottom;endArrow=open;dashed=1;endSize=8;curved=0;rounded=0;exitX=0;exitY=1;exitDx=0;exitDy=-5;" edge="1" parent="lJsuNtHJNpiVQFgNKzUB-221" source="lJsuNtHJNpiVQFgNKzUB-233" target="lJsuNtHJNpiVQFgNKzUB-229">
          <mxGeometry relative="1" as="geometry">
            <mxPoint x="112.13513513513512" y="644.7192513368984" as="targetPoint" />
          </mxGeometry>
        </mxCell>
        <mxCell id="lJsuNtHJNpiVQFgNKzUB-264" value="&amp;nbsp;Cập nhật thông tin" style="html=1;verticalAlign=bottom;endArrow=block;curved=0;rounded=0;entryX=0;entryY=0;entryDx=0;entryDy=5;" edge="1" parent="lJsuNtHJNpiVQFgNKzUB-221" source="lJsuNtHJNpiVQFgNKzUB-233" target="lJsuNtHJNpiVQFgNKzUB-237">
          <mxGeometry relative="1" as="geometry">
            <mxPoint x="232.5765765765765" y="599.5989304812834" as="sourcePoint" />
          </mxGeometry>
        </mxCell>
        <mxCell id="lJsuNtHJNpiVQFgNKzUB-265" value="&amp;nbsp;Trả về thông tin" style="html=1;verticalAlign=bottom;endArrow=open;dashed=1;endSize=8;curved=0;rounded=0;exitX=0;exitY=1;exitDx=0;exitDy=-5;" edge="1" parent="lJsuNtHJNpiVQFgNKzUB-221" source="lJsuNtHJNpiVQFgNKzUB-237" target="lJsuNtHJNpiVQFgNKzUB-233">
          <mxGeometry relative="1" as="geometry">
            <mxPoint x="286.5675675675675" y="668.783422459893" as="targetPoint" />
          </mxGeometry>
        </mxCell>
        <mxCell id="lJsuNtHJNpiVQFgNKzUB-266" value="&amp;nbsp;Cập nhật thông tin" style="html=1;verticalAlign=bottom;endArrow=block;curved=0;rounded=0;entryX=0;entryY=0;entryDx=0;entryDy=5;" edge="1" parent="lJsuNtHJNpiVQFgNKzUB-221" source="lJsuNtHJNpiVQFgNKzUB-237" target="lJsuNtHJNpiVQFgNKzUB-260">
          <mxGeometry relative="1" as="geometry">
            <mxPoint x="830.6306306306305" y="584.5588235294118" as="sourcePoint" />
          </mxGeometry>
        </mxCell>
        <mxCell id="lJsuNtHJNpiVQFgNKzUB-267" value="Trả về thông tin" style="html=1;verticalAlign=bottom;endArrow=open;dashed=1;endSize=8;curved=0;rounded=0;" edge="1" parent="lJsuNtHJNpiVQFgNKzUB-221" target="lJsuNtHJNpiVQFgNKzUB-237">
          <mxGeometry relative="1" as="geometry">
            <mxPoint x="830.6306306306305" y="654.7459893048128" as="targetPoint" />
            <mxPoint x="888.7747747747746" y="648.7299465240642" as="sourcePoint" />
          </mxGeometry>
        </mxCell>
        <mxCell id="lJsuNtHJNpiVQFgNKzUB-269" value="" style="group" vertex="1" connectable="0" parent="1">
          <mxGeometry x="2458.5" y="140" width="1071.5" height="770" as="geometry" />
        </mxCell>
        <mxCell id="lJsuNtHJNpiVQFgNKzUB-268" value="" style="rounded=0;whiteSpace=wrap;html=1;" vertex="1" parent="lJsuNtHJNpiVQFgNKzUB-269">
          <mxGeometry width="1071.5" height="770" as="geometry" />
        </mxCell>
        <mxCell id="lJsuNtHJNpiVQFgNKzUB-100" value="" style="shape=umlLifeline;perimeter=lifelinePerimeter;whiteSpace=wrap;html=1;container=1;dropTarget=0;collapsible=0;recursiveResize=0;outlineConnect=0;portConstraint=eastwest;newEdgeStyle={&quot;curved&quot;:0,&quot;rounded&quot;:0};participant=umlActor;" vertex="1" parent="lJsuNtHJNpiVQFgNKzUB-269">
          <mxGeometry x="140" y="92.5" width="20" height="657.5" as="geometry" />
        </mxCell>
        <mxCell id="lJsuNtHJNpiVQFgNKzUB-101" value="" style="shape=umlLifeline;perimeter=lifelinePerimeter;whiteSpace=wrap;html=1;container=1;dropTarget=0;collapsible=0;recursiveResize=0;outlineConnect=0;portConstraint=eastwest;newEdgeStyle={&quot;curved&quot;:0,&quot;rounded&quot;:0};participant=umlBoundary;" vertex="1" parent="lJsuNtHJNpiVQFgNKzUB-269">
          <mxGeometry x="281" y="86" width="55.5" height="664" as="geometry" />
        </mxCell>
        <mxCell id="lJsuNtHJNpiVQFgNKzUB-102" value="" style="html=1;points=[[0,0,0,0,5],[0,1,0,0,-5],[1,0,0,0,5],[1,1,0,0,-5]];perimeter=orthogonalPerimeter;outlineConnect=0;targetShapes=umlLifeline;portConstraint=eastwest;newEdgeStyle={&quot;curved&quot;:0,&quot;rounded&quot;:0};" vertex="1" parent="lJsuNtHJNpiVQFgNKzUB-101">
          <mxGeometry x="20" y="60" width="10" height="120" as="geometry" />
        </mxCell>
        <mxCell id="lJsuNtHJNpiVQFgNKzUB-103" value="" style="shape=umlLifeline;perimeter=lifelinePerimeter;whiteSpace=wrap;html=1;container=1;dropTarget=0;collapsible=0;recursiveResize=0;outlineConnect=0;portConstraint=eastwest;newEdgeStyle={&quot;curved&quot;:0,&quot;rounded&quot;:0};participant=umlEntity;" vertex="1" parent="lJsuNtHJNpiVQFgNKzUB-269">
          <mxGeometry x="576" y="87" width="40" height="663" as="geometry" />
        </mxCell>
        <mxCell id="lJsuNtHJNpiVQFgNKzUB-104" value="" style="html=1;points=[[0,0,0,0,5],[0,1,0,0,-5],[1,0,0,0,5],[1,1,0,0,-5]];perimeter=orthogonalPerimeter;outlineConnect=0;targetShapes=umlLifeline;portConstraint=eastwest;newEdgeStyle={&quot;curved&quot;:0,&quot;rounded&quot;:0};" vertex="1" parent="lJsuNtHJNpiVQFgNKzUB-103">
          <mxGeometry x="14" y="100" width="10" height="53" as="geometry" />
        </mxCell>
        <mxCell id="lJsuNtHJNpiVQFgNKzUB-105" value="" style="html=1;points=[[0,0,0,0,5],[0,1,0,0,-5],[1,0,0,0,5],[1,1,0,0,-5]];perimeter=orthogonalPerimeter;outlineConnect=0;targetShapes=umlLifeline;portConstraint=eastwest;newEdgeStyle={&quot;curved&quot;:0,&quot;rounded&quot;:0};" vertex="1" parent="lJsuNtHJNpiVQFgNKzUB-103">
          <mxGeometry x="14" y="200" width="10" height="60" as="geometry" />
        </mxCell>
        <mxCell id="lJsuNtHJNpiVQFgNKzUB-106" value="" style="shape=umlLifeline;perimeter=lifelinePerimeter;whiteSpace=wrap;html=1;container=1;dropTarget=0;collapsible=0;recursiveResize=0;outlineConnect=0;portConstraint=eastwest;newEdgeStyle={&quot;curved&quot;:0,&quot;rounded&quot;:0};participant=umlControl;" vertex="1" parent="lJsuNtHJNpiVQFgNKzUB-269">
          <mxGeometry x="430" y="86" width="46.5" height="664" as="geometry" />
        </mxCell>
        <mxCell id="lJsuNtHJNpiVQFgNKzUB-107" value="" style="html=1;points=[[0,0,0,0,5],[0,1,0,0,-5],[1,0,0,0,5],[1,1,0,0,-5]];perimeter=orthogonalPerimeter;outlineConnect=0;targetShapes=umlLifeline;portConstraint=eastwest;newEdgeStyle={&quot;curved&quot;:0,&quot;rounded&quot;:0};" vertex="1" parent="lJsuNtHJNpiVQFgNKzUB-106">
          <mxGeometry x="15" y="84" width="10" height="86" as="geometry" />
        </mxCell>
        <mxCell id="lJsuNtHJNpiVQFgNKzUB-108" value="" style="html=1;points=[[0,0,0,0,5],[0,1,0,0,-5],[1,0,0,0,5],[1,1,0,0,-5]];perimeter=orthogonalPerimeter;outlineConnect=0;targetShapes=umlLifeline;portConstraint=eastwest;newEdgeStyle={&quot;curved&quot;:0,&quot;rounded&quot;:0};" vertex="1" parent="lJsuNtHJNpiVQFgNKzUB-106">
          <mxGeometry x="-283.68" y="284" width="10" height="53.5" as="geometry" />
        </mxCell>
        <mxCell id="lJsuNtHJNpiVQFgNKzUB-109" value="" style="html=1;points=[[0,0,0,0,5],[0,1,0,0,-5],[1,0,0,0,5],[1,1,0,0,-5]];perimeter=orthogonalPerimeter;outlineConnect=0;targetShapes=umlLifeline;portConstraint=eastwest;newEdgeStyle={&quot;curved&quot;:0,&quot;rounded&quot;:0};" vertex="1" parent="lJsuNtHJNpiVQFgNKzUB-106">
          <mxGeometry x="-128.1" y="321" width="10" height="124" as="geometry" />
        </mxCell>
        <mxCell id="lJsuNtHJNpiVQFgNKzUB-110" value="" style="html=1;points=[[0,0,0,0,5],[0,1,0,0,-5],[1,0,0,0,5],[1,1,0,0,-5]];perimeter=orthogonalPerimeter;outlineConnect=0;targetShapes=umlLifeline;portConstraint=eastwest;newEdgeStyle={&quot;curved&quot;:0,&quot;rounded&quot;:0};" vertex="1" parent="lJsuNtHJNpiVQFgNKzUB-106">
          <mxGeometry x="-128.09999999999997" y="474" width="10" height="131" as="geometry" />
        </mxCell>
        <mxCell id="lJsuNtHJNpiVQFgNKzUB-111" value="" style="html=1;points=[[0,0,0,0,5],[0,1,0,0,-5],[1,0,0,0,5],[1,1,0,0,-5]];perimeter=orthogonalPerimeter;outlineConnect=0;targetShapes=umlLifeline;portConstraint=eastwest;newEdgeStyle={&quot;curved&quot;:0,&quot;rounded&quot;:0};" vertex="1" parent="lJsuNtHJNpiVQFgNKzUB-106">
          <mxGeometry x="15.899999999999984" y="324" width="10" height="121" as="geometry" />
        </mxCell>
        <mxCell id="lJsuNtHJNpiVQFgNKzUB-112" value="" style="html=1;points=[[0,0,0,0,5],[0,1,0,0,-5],[1,0,0,0,5],[1,1,0,0,-5]];perimeter=orthogonalPerimeter;outlineConnect=0;targetShapes=umlLifeline;portConstraint=eastwest;newEdgeStyle={&quot;curved&quot;:0,&quot;rounded&quot;:0};" vertex="1" parent="lJsuNtHJNpiVQFgNKzUB-106">
          <mxGeometry x="15.899999999999984" y="489" width="10" height="106" as="geometry" />
        </mxCell>
        <mxCell id="lJsuNtHJNpiVQFgNKzUB-113" value="" style="html=1;points=[[0,0,0,0,5],[0,1,0,0,-5],[1,0,0,0,5],[1,1,0,0,-5]];perimeter=orthogonalPerimeter;outlineConnect=0;targetShapes=umlLifeline;portConstraint=eastwest;newEdgeStyle={&quot;curved&quot;:0,&quot;rounded&quot;:0};" vertex="1" parent="lJsuNtHJNpiVQFgNKzUB-106">
          <mxGeometry x="425.9" y="364" width="10" height="63" as="geometry" />
        </mxCell>
        <mxCell id="lJsuNtHJNpiVQFgNKzUB-114" value="" style="html=1;points=[[0,0,0,0,5],[0,1,0,0,-5],[1,0,0,0,5],[1,1,0,0,-5]];perimeter=orthogonalPerimeter;outlineConnect=0;targetShapes=umlLifeline;portConstraint=eastwest;newEdgeStyle={&quot;curved&quot;:0,&quot;rounded&quot;:0};" vertex="1" parent="lJsuNtHJNpiVQFgNKzUB-106">
          <mxGeometry x="570.9000000000001" y="514" width="10" height="61" as="geometry" />
        </mxCell>
        <mxCell id="lJsuNtHJNpiVQFgNKzUB-115" value="Cập nhật thông tin" style="html=1;verticalAlign=bottom;endArrow=block;curved=0;rounded=0;" edge="1" parent="lJsuNtHJNpiVQFgNKzUB-106" source="lJsuNtHJNpiVQFgNKzUB-109" target="lJsuNtHJNpiVQFgNKzUB-111">
          <mxGeometry width="80" relative="1" as="geometry">
            <mxPoint x="-118.10000000000008" y="379" as="sourcePoint" />
            <mxPoint x="-38.10000000000007" y="379" as="targetPoint" />
            <Array as="points">
              <mxPoint x="-94.10000000000008" y="344" />
              <mxPoint x="-44.10000000000007" y="344" />
              <mxPoint x="-14.100000000000072" y="344" />
            </Array>
          </mxGeometry>
        </mxCell>
        <mxCell id="lJsuNtHJNpiVQFgNKzUB-116" value="Cập nhật thông tin" style="html=1;verticalAlign=bottom;endArrow=block;curved=0;rounded=0;" edge="1" parent="lJsuNtHJNpiVQFgNKzUB-106">
          <mxGeometry width="80" relative="1" as="geometry">
            <mxPoint x="25.899999999999928" y="374" as="sourcePoint" />
            <mxPoint x="425.8999999999999" y="374" as="targetPoint" />
            <Array as="points">
              <mxPoint x="80.89999999999992" y="374" />
              <mxPoint x="125.89999999999992" y="374" />
            </Array>
          </mxGeometry>
        </mxCell>
        <mxCell id="lJsuNtHJNpiVQFgNKzUB-117" value="Trả về thông tin" style="html=1;verticalAlign=bottom;endArrow=open;dashed=1;endSize=8;curved=0;rounded=0;entryX=1;entryY=1;entryDx=0;entryDy=-5;entryPerimeter=0;" edge="1" parent="lJsuNtHJNpiVQFgNKzUB-106">
          <mxGeometry relative="1" as="geometry">
            <mxPoint x="425.8999999999999" y="414" as="sourcePoint" />
            <mxPoint x="25.899999999999928" y="416.99999999999955" as="targetPoint" />
            <Array as="points">
              <mxPoint x="85.89999999999992" y="417" />
            </Array>
          </mxGeometry>
        </mxCell>
        <mxCell id="lJsuNtHJNpiVQFgNKzUB-118" value="Trả về thông tin" style="html=1;verticalAlign=bottom;endArrow=open;dashed=1;endSize=8;curved=0;rounded=0;" edge="1" parent="lJsuNtHJNpiVQFgNKzUB-106">
          <mxGeometry relative="1" as="geometry">
            <mxPoint x="15.899999999999928" y="434" as="sourcePoint" />
            <mxPoint x="-118.10000000000053" y="434" as="targetPoint" />
          </mxGeometry>
        </mxCell>
        <mxCell id="lJsuNtHJNpiVQFgNKzUB-119" value="Lập Biên bản kiểm kê" style="html=1;verticalAlign=bottom;endArrow=block;curved=0;rounded=0;" edge="1" parent="lJsuNtHJNpiVQFgNKzUB-106" target="lJsuNtHJNpiVQFgNKzUB-110">
          <mxGeometry width="80" relative="1" as="geometry">
            <mxPoint x="-280.2666666666666" y="489" as="sourcePoint" />
            <mxPoint x="135.89999999999992" y="449" as="targetPoint" />
            <Array as="points">
              <mxPoint x="-174.10000000000008" y="489" />
            </Array>
          </mxGeometry>
        </mxCell>
        <mxCell id="lJsuNtHJNpiVQFgNKzUB-120" value="Lập biên bản kiểm kê" style="html=1;verticalAlign=bottom;endArrow=block;curved=0;rounded=0;" edge="1" parent="lJsuNtHJNpiVQFgNKzUB-106">
          <mxGeometry width="80" relative="1" as="geometry">
            <mxPoint x="-118.10000000000008" y="509" as="sourcePoint" />
            <mxPoint x="15.899999999999928" y="509" as="targetPoint" />
          </mxGeometry>
        </mxCell>
        <mxCell id="lJsuNtHJNpiVQFgNKzUB-121" value="Lập Biên bản kiểm kê" style="html=1;verticalAlign=bottom;endArrow=block;curved=0;rounded=0;" edge="1" parent="lJsuNtHJNpiVQFgNKzUB-106" source="lJsuNtHJNpiVQFgNKzUB-112" target="lJsuNtHJNpiVQFgNKzUB-114">
          <mxGeometry width="80" relative="1" as="geometry">
            <mxPoint x="155.89999999999992" y="449" as="sourcePoint" />
            <mxPoint x="235.89999999999992" y="449" as="targetPoint" />
            <Array as="points">
              <mxPoint x="495.8999999999999" y="529" />
            </Array>
          </mxGeometry>
        </mxCell>
        <mxCell id="lJsuNtHJNpiVQFgNKzUB-122" value="Trả về Biên bản kiểm kê" style="html=1;verticalAlign=bottom;endArrow=open;dashed=1;endSize=8;curved=0;rounded=0;" edge="1" parent="lJsuNtHJNpiVQFgNKzUB-106" source="lJsuNtHJNpiVQFgNKzUB-114">
          <mxGeometry relative="1" as="geometry">
            <mxPoint x="585.9" y="559" as="sourcePoint" />
            <mxPoint x="25.899999999999928" y="559" as="targetPoint" />
            <Array as="points">
              <mxPoint x="495.8999999999999" y="559" />
            </Array>
          </mxGeometry>
        </mxCell>
        <mxCell id="lJsuNtHJNpiVQFgNKzUB-123" value="Trả về Biên bản kiểm kê" style="html=1;verticalAlign=bottom;endArrow=open;dashed=1;endSize=8;curved=0;rounded=0;" edge="1" parent="lJsuNtHJNpiVQFgNKzUB-106" source="lJsuNtHJNpiVQFgNKzUB-112">
          <mxGeometry relative="1" as="geometry">
            <mxPoint x="19.899999999999928" y="579" as="sourcePoint" />
            <mxPoint x="-114.10000000000008" y="579" as="targetPoint" />
          </mxGeometry>
        </mxCell>
        <mxCell id="lJsuNtHJNpiVQFgNKzUB-124" value="Ghi thẻ kho" style="html=1;verticalAlign=bottom;endArrow=block;curved=0;rounded=0;entryX=0;entryY=0;entryDx=0;entryDy=5;" edge="1" parent="lJsuNtHJNpiVQFgNKzUB-106" target="lJsuNtHJNpiVQFgNKzUB-108">
          <mxGeometry relative="1" as="geometry">
            <mxPoint x="-383.49818181818137" y="288.99999999999955" as="sourcePoint" />
          </mxGeometry>
        </mxCell>
        <mxCell id="lJsuNtHJNpiVQFgNKzUB-125" value="Cập nhật thông tin" style="html=1;verticalAlign=bottom;endArrow=block;curved=0;rounded=0;" edge="1" parent="lJsuNtHJNpiVQFgNKzUB-106" source="lJsuNtHJNpiVQFgNKzUB-108" target="lJsuNtHJNpiVQFgNKzUB-109">
          <mxGeometry width="80" relative="1" as="geometry">
            <mxPoint x="-279.10000000000014" y="329" as="sourcePoint" />
            <mxPoint x="-199.10000000000014" y="329" as="targetPoint" />
          </mxGeometry>
        </mxCell>
        <mxCell id="lJsuNtHJNpiVQFgNKzUB-126" value=": KiemKeHangHoa" style="text;html=1;align=center;verticalAlign=middle;resizable=0;points=[];autosize=1;strokeColor=none;fillColor=none;" vertex="1" parent="lJsuNtHJNpiVQFgNKzUB-269">
          <mxGeometry x="246" y="55" width="120" height="30" as="geometry" />
        </mxCell>
        <mxCell id="lJsuNtHJNpiVQFgNKzUB-127" value=": Ctr_KiemKeHangHoa" style="text;html=1;align=center;verticalAlign=middle;resizable=0;points=[];autosize=1;strokeColor=none;fillColor=none;" vertex="1" parent="lJsuNtHJNpiVQFgNKzUB-269">
          <mxGeometry x="380" y="56" width="150" height="30" as="geometry" />
        </mxCell>
        <mxCell id="lJsuNtHJNpiVQFgNKzUB-128" value="Hàng hóa" style="text;html=1;align=center;verticalAlign=middle;resizable=0;points=[];autosize=1;strokeColor=none;fillColor=none;" vertex="1" parent="lJsuNtHJNpiVQFgNKzUB-269">
          <mxGeometry x="556" y="56" width="80" height="30" as="geometry" />
        </mxCell>
        <mxCell id="lJsuNtHJNpiVQFgNKzUB-129" value=": PhieuKiemKe" style="text;html=1;align=center;verticalAlign=middle;resizable=0;points=[];autosize=1;strokeColor=none;fillColor=none;" vertex="1" parent="lJsuNtHJNpiVQFgNKzUB-269">
          <mxGeometry x="685" y="56" width="100" height="30" as="geometry" />
        </mxCell>
        <mxCell id="lJsuNtHJNpiVQFgNKzUB-130" value="" style="shape=umlLifeline;perimeter=lifelinePerimeter;whiteSpace=wrap;html=1;container=1;dropTarget=0;collapsible=0;recursiveResize=0;outlineConnect=0;portConstraint=eastwest;newEdgeStyle={&quot;curved&quot;:0,&quot;rounded&quot;:0};participant=umlEntity;" vertex="1" parent="lJsuNtHJNpiVQFgNKzUB-269">
          <mxGeometry x="715" y="86" width="40" height="664" as="geometry" />
        </mxCell>
        <mxCell id="lJsuNtHJNpiVQFgNKzUB-131" value="Kế toán" style="text;html=1;align=center;verticalAlign=middle;resizable=0;points=[];autosize=1;strokeColor=none;fillColor=none;" vertex="1" parent="lJsuNtHJNpiVQFgNKzUB-269">
          <mxGeometry x="120" y="57" width="60" height="30" as="geometry" />
        </mxCell>
        <mxCell id="lJsuNtHJNpiVQFgNKzUB-132" value="Yêu cầu chức năng" style="html=1;verticalAlign=bottom;endArrow=block;curved=0;rounded=0;" edge="1" parent="lJsuNtHJNpiVQFgNKzUB-269" source="lJsuNtHJNpiVQFgNKzUB-100" target="lJsuNtHJNpiVQFgNKzUB-102">
          <mxGeometry width="80" relative="1" as="geometry">
            <mxPoint x="164.99736842105267" y="154.47000000000025" as="sourcePoint" />
            <mxPoint x="291.5500000000002" y="154.47000000000025" as="targetPoint" />
            <Array as="points">
              <mxPoint x="215" y="160" />
              <mxPoint x="275" y="160" />
            </Array>
          </mxGeometry>
        </mxCell>
        <mxCell id="lJsuNtHJNpiVQFgNKzUB-133" value="Lấy Yêu cầu kiểm kê" style="html=1;verticalAlign=bottom;endArrow=block;curved=0;rounded=0;" edge="1" parent="lJsuNtHJNpiVQFgNKzUB-269">
          <mxGeometry width="80" relative="1" as="geometry">
            <mxPoint x="310.99999999999955" y="178" as="sourcePoint" />
            <mxPoint x="445" y="178" as="targetPoint" />
            <Array as="points" />
          </mxGeometry>
        </mxCell>
        <mxCell id="lJsuNtHJNpiVQFgNKzUB-134" value="&lt;font size=&quot;1&quot; style=&quot;&quot;&gt;&lt;b style=&quot;font-size: 20px;&quot;&gt;Biểu đồ trình tự Kiểm kê hàng hóa&lt;/b&gt;&lt;/font&gt;" style="text;html=1;strokeColor=none;fillColor=none;align=center;verticalAlign=middle;whiteSpace=wrap;rounded=0;" vertex="1" parent="lJsuNtHJNpiVQFgNKzUB-269">
          <mxGeometry x="22.5" y="20" width="376.5" height="20" as="geometry" />
        </mxCell>
        <mxCell id="lJsuNtHJNpiVQFgNKzUB-135" value="Lấy Yêu cầu kiểm kê" style="html=1;verticalAlign=bottom;endArrow=block;curved=0;rounded=0;exitX=1;exitY=1;exitDx=0;exitDy=-5;exitPerimeter=0;" edge="1" parent="lJsuNtHJNpiVQFgNKzUB-269">
          <mxGeometry width="80" relative="1" as="geometry">
            <mxPoint x="455" y="199.99999999999955" as="sourcePoint" />
            <mxPoint x="590" y="199.99999999999955" as="targetPoint" />
            <Array as="points" />
          </mxGeometry>
        </mxCell>
        <mxCell id="lJsuNtHJNpiVQFgNKzUB-136" value="Trả về Yêu cầu kiểm kê" style="html=1;verticalAlign=bottom;endArrow=open;dashed=1;endSize=8;curved=0;rounded=0;exitX=0;exitY=1;exitDx=0;exitDy=-5;exitPerimeter=0;" edge="1" parent="lJsuNtHJNpiVQFgNKzUB-269" source="lJsuNtHJNpiVQFgNKzUB-104" target="lJsuNtHJNpiVQFgNKzUB-107">
          <mxGeometry x="-0.0065" relative="1" as="geometry">
            <mxPoint x="581" y="235.40999999999985" as="sourcePoint" />
            <mxPoint x="501" y="235.40999999999985" as="targetPoint" />
            <mxPoint as="offset" />
          </mxGeometry>
        </mxCell>
        <mxCell id="lJsuNtHJNpiVQFgNKzUB-137" value="Trả về Yêu cầu kiểm kê" style="html=1;verticalAlign=bottom;endArrow=open;dashed=1;endSize=8;curved=0;rounded=0;exitX=0;exitY=1;exitDx=0;exitDy=-5;exitPerimeter=0;" edge="1" parent="lJsuNtHJNpiVQFgNKzUB-269">
          <mxGeometry x="-0.0065" relative="1" as="geometry">
            <mxPoint x="445" y="250" as="sourcePoint" />
            <mxPoint x="310" y="250" as="targetPoint" />
            <mxPoint as="offset" />
          </mxGeometry>
        </mxCell>
        <mxCell id="lJsuNtHJNpiVQFgNKzUB-138" value="Tiến hành kiểm kê" style="html=1;verticalAlign=bottom;endArrow=block;curved=0;rounded=0;entryX=0;entryY=0;entryDx=0;entryDy=5;entryPerimeter=0;" edge="1" parent="lJsuNtHJNpiVQFgNKzUB-269" source="lJsuNtHJNpiVQFgNKzUB-218" target="lJsuNtHJNpiVQFgNKzUB-105">
          <mxGeometry width="80" relative="1" as="geometry">
            <mxPoint x="460" y="280" as="sourcePoint" />
            <mxPoint x="444.99999999999955" y="291" as="targetPoint" />
          </mxGeometry>
        </mxCell>
        <mxCell id="lJsuNtHJNpiVQFgNKzUB-139" value="Trả về kết quả" style="html=1;verticalAlign=bottom;endArrow=open;dashed=1;endSize=8;curved=0;rounded=0;" edge="1" parent="lJsuNtHJNpiVQFgNKzUB-269" source="lJsuNtHJNpiVQFgNKzUB-105">
          <mxGeometry relative="1" as="geometry">
            <mxPoint x="446.75" y="332" as="sourcePoint" />
            <mxPoint x="47.63888888888869" y="332" as="targetPoint" />
          </mxGeometry>
        </mxCell>
        <mxCell id="lJsuNtHJNpiVQFgNKzUB-140" value="" style="shape=umlLifeline;perimeter=lifelinePerimeter;whiteSpace=wrap;html=1;container=1;dropTarget=0;collapsible=0;recursiveResize=0;outlineConnect=0;portConstraint=eastwest;newEdgeStyle={&quot;curved&quot;:0,&quot;rounded&quot;:0};participant=umlEntity;" vertex="1" parent="lJsuNtHJNpiVQFgNKzUB-269">
          <mxGeometry x="840" y="87" width="46.5" height="663" as="geometry" />
        </mxCell>
        <mxCell id="lJsuNtHJNpiVQFgNKzUB-141" value="Database" style="text;html=1;align=center;verticalAlign=middle;resizable=0;points=[];autosize=1;strokeColor=none;fillColor=none;" vertex="1" parent="lJsuNtHJNpiVQFgNKzUB-269">
          <mxGeometry x="825" y="57" width="70" height="30" as="geometry" />
        </mxCell>
        <mxCell id="lJsuNtHJNpiVQFgNKzUB-142" value="" style="shape=umlLifeline;perimeter=lifelinePerimeter;whiteSpace=wrap;html=1;container=1;dropTarget=0;collapsible=0;recursiveResize=0;outlineConnect=0;portConstraint=eastwest;newEdgeStyle={&quot;curved&quot;:0,&quot;rounded&quot;:0};participant=umlEntity;" vertex="1" parent="lJsuNtHJNpiVQFgNKzUB-269">
          <mxGeometry x="985" y="86" width="40" height="663" as="geometry" />
        </mxCell>
        <mxCell id="lJsuNtHJNpiVQFgNKzUB-143" value=": BienBanKiemKe" style="text;html=1;align=center;verticalAlign=middle;resizable=0;points=[];autosize=1;strokeColor=none;fillColor=none;" vertex="1" parent="lJsuNtHJNpiVQFgNKzUB-269">
          <mxGeometry x="945" y="56" width="120" height="30" as="geometry" />
        </mxCell>
        <mxCell id="lJsuNtHJNpiVQFgNKzUB-218" value="" style="shape=umlLifeline;perimeter=lifelinePerimeter;whiteSpace=wrap;html=1;container=1;dropTarget=0;collapsible=0;recursiveResize=0;outlineConnect=0;portConstraint=eastwest;newEdgeStyle={&quot;curved&quot;:0,&quot;rounded&quot;:0};participant=umlActor;" vertex="1" parent="lJsuNtHJNpiVQFgNKzUB-269">
          <mxGeometry x="36.5" y="89.25" width="20" height="657.5" as="geometry" />
        </mxCell>
        <mxCell id="lJsuNtHJNpiVQFgNKzUB-219" value="Thủ kho" style="text;html=1;align=center;verticalAlign=middle;resizable=0;points=[];autosize=1;strokeColor=none;fillColor=none;" vertex="1" parent="lJsuNtHJNpiVQFgNKzUB-269">
          <mxGeometry x="11.5" y="57.5" width="70" height="30" as="geometry" />
        </mxCell>
        <mxCell id="lJsuNtHJNpiVQFgNKzUB-220" value="so sánh" style="html=1;align=left;spacingLeft=2;endArrow=block;rounded=0;edgeStyle=orthogonalEdgeStyle;curved=0;rounded=0;" edge="1" parent="lJsuNtHJNpiVQFgNKzUB-269">
          <mxGeometry relative="1" as="geometry">
            <mxPoint x="601" y="301.8899999999999" as="sourcePoint" />
            <Array as="points">
              <mxPoint x="631" y="331.8899999999999" />
            </Array>
            <mxPoint x="606" y="331.9426315789474" as="targetPoint" />
          </mxGeometry>
        </mxCell>
        <mxCell id="lJsuNtHJNpiVQFgNKzUB-273" value="" style="group" vertex="1" connectable="0" parent="1">
          <mxGeometry x="2430" y="1870" width="1010" height="870" as="geometry" />
        </mxCell>
        <mxCell id="lJsuNtHJNpiVQFgNKzUB-272" value="" style="rounded=0;whiteSpace=wrap;html=1;" vertex="1" parent="lJsuNtHJNpiVQFgNKzUB-273">
          <mxGeometry width="1010" height="870" as="geometry" />
        </mxCell>
        <mxCell id="lJsuNtHJNpiVQFgNKzUB-144" value="Kế toán" style="shape=umlActor;verticalLabelPosition=bottom;verticalAlign=top;html=1;outlineConnect=0;" vertex="1" parent="lJsuNtHJNpiVQFgNKzUB-273">
          <mxGeometry x="251.5" y="79.5" width="30" height="60" as="geometry" />
        </mxCell>
        <mxCell id="lJsuNtHJNpiVQFgNKzUB-145" value="Thủ kho" style="shape=umlActor;verticalLabelPosition=bottom;verticalAlign=top;html=1;outlineConnect=0;" vertex="1" parent="lJsuNtHJNpiVQFgNKzUB-273">
          <mxGeometry x="36.25" y="79.5" width="30" height="60" as="geometry" />
        </mxCell>
        <mxCell id="lJsuNtHJNpiVQFgNKzUB-146" value="&lt;font style=&quot;font-size: 18px;&quot;&gt;&lt;b&gt;Biểu đồ trình tự nhập kho&lt;/b&gt;&lt;/font&gt;" style="text;html=1;strokeColor=none;fillColor=none;align=center;verticalAlign=middle;whiteSpace=wrap;rounded=0;" vertex="1" parent="lJsuNtHJNpiVQFgNKzUB-273">
          <mxGeometry x="10" y="20" width="260" height="30" as="geometry" />
        </mxCell>
        <mxCell id="lJsuNtHJNpiVQFgNKzUB-147" value="" style="shape=umlLifeline;perimeter=lifelinePerimeter;whiteSpace=wrap;html=1;container=1;dropTarget=0;collapsible=0;recursiveResize=0;outlineConnect=0;portConstraint=eastwest;newEdgeStyle={&quot;curved&quot;:0,&quot;rounded&quot;:0};participant=umlBoundary;" vertex="1" parent="lJsuNtHJNpiVQFgNKzUB-273">
          <mxGeometry x="342.6199999999999" y="123" width="50" height="710" as="geometry" />
        </mxCell>
        <mxCell id="lJsuNtHJNpiVQFgNKzUB-148" value="" style="html=1;points=[[0,0,0,0,5],[0,1,0,0,-5],[1,0,0,0,5],[1,1,0,0,-5]];perimeter=orthogonalPerimeter;outlineConnect=0;targetShapes=umlLifeline;portConstraint=eastwest;newEdgeStyle={&quot;curved&quot;:0,&quot;rounded&quot;:0};" vertex="1" parent="lJsuNtHJNpiVQFgNKzUB-147">
          <mxGeometry x="20.63" y="56" width="10" height="104" as="geometry" />
        </mxCell>
        <mxCell id="lJsuNtHJNpiVQFgNKzUB-149" value="" style="html=1;points=[[0,0,0,0,5],[0,1,0,0,-5],[1,0,0,0,5],[1,1,0,0,-5]];perimeter=orthogonalPerimeter;outlineConnect=0;targetShapes=umlLifeline;portConstraint=eastwest;newEdgeStyle={&quot;curved&quot;:0,&quot;rounded&quot;:0};" vertex="1" parent="lJsuNtHJNpiVQFgNKzUB-147">
          <mxGeometry x="20.63" y="218" width="10" height="72" as="geometry" />
        </mxCell>
        <mxCell id="lJsuNtHJNpiVQFgNKzUB-150" value="Boundary Nhập kho" style="text;html=1;strokeColor=none;fillColor=none;align=center;verticalAlign=middle;whiteSpace=wrap;rounded=0;" vertex="1" parent="lJsuNtHJNpiVQFgNKzUB-273">
          <mxGeometry x="337.6199999999999" y="79.5" width="60" height="30" as="geometry" />
        </mxCell>
        <mxCell id="lJsuNtHJNpiVQFgNKzUB-151" value="" style="shape=umlLifeline;perimeter=lifelinePerimeter;whiteSpace=wrap;html=1;container=1;dropTarget=0;collapsible=0;recursiveResize=0;outlineConnect=0;portConstraint=eastwest;newEdgeStyle={&quot;curved&quot;:0,&quot;rounded&quot;:0};participant=umlControl;" vertex="1" parent="lJsuNtHJNpiVQFgNKzUB-273">
          <mxGeometry x="496.25" y="123" width="40" height="710" as="geometry" />
        </mxCell>
        <mxCell id="lJsuNtHJNpiVQFgNKzUB-152" value="" style="html=1;points=[[0,0,0,0,5],[0,1,0,0,-5],[1,0,0,0,5],[1,1,0,0,-5]];perimeter=orthogonalPerimeter;outlineConnect=0;targetShapes=umlLifeline;portConstraint=eastwest;newEdgeStyle={&quot;curved&quot;:0,&quot;rounded&quot;:0};" vertex="1" parent="lJsuNtHJNpiVQFgNKzUB-151">
          <mxGeometry x="15" y="80" width="10" height="70" as="geometry" />
        </mxCell>
        <mxCell id="lJsuNtHJNpiVQFgNKzUB-153" value="" style="html=1;points=[[0,0,0,0,5],[0,1,0,0,-5],[1,0,0,0,5],[1,1,0,0,-5]];perimeter=orthogonalPerimeter;outlineConnect=0;targetShapes=umlLifeline;portConstraint=eastwest;newEdgeStyle={&quot;curved&quot;:0,&quot;rounded&quot;:0};" vertex="1" parent="lJsuNtHJNpiVQFgNKzUB-151">
          <mxGeometry x="15" y="244" width="10" height="46" as="geometry" />
        </mxCell>
        <mxCell id="lJsuNtHJNpiVQFgNKzUB-154" value="" style="html=1;points=[[0,0,0,0,5],[0,1,0,0,-5],[1,0,0,0,5],[1,1,0,0,-5]];perimeter=orthogonalPerimeter;outlineConnect=0;targetShapes=umlLifeline;portConstraint=eastwest;newEdgeStyle={&quot;curved&quot;:0,&quot;rounded&quot;:0};" vertex="1" parent="lJsuNtHJNpiVQFgNKzUB-151">
          <mxGeometry x="15" y="530" width="10" height="70" as="geometry" />
        </mxCell>
        <mxCell id="lJsuNtHJNpiVQFgNKzUB-155" value="Control Nhập kho" style="text;html=1;strokeColor=none;fillColor=none;align=center;verticalAlign=middle;whiteSpace=wrap;rounded=0;" vertex="1" parent="lJsuNtHJNpiVQFgNKzUB-273">
          <mxGeometry x="486.25" y="81.5" width="60" height="30" as="geometry" />
        </mxCell>
        <mxCell id="lJsuNtHJNpiVQFgNKzUB-156" value="" style="shape=umlLifeline;perimeter=lifelinePerimeter;whiteSpace=wrap;html=1;container=1;dropTarget=0;collapsible=0;recursiveResize=0;outlineConnect=0;portConstraint=eastwest;newEdgeStyle={&quot;curved&quot;:0,&quot;rounded&quot;:0};participant=umlEntity;" vertex="1" parent="lJsuNtHJNpiVQFgNKzUB-273">
          <mxGeometry x="598.25" y="123" width="40" height="710" as="geometry" />
        </mxCell>
        <mxCell id="lJsuNtHJNpiVQFgNKzUB-157" value="" style="html=1;points=[[0,0,0,0,5],[0,1,0,0,-5],[1,0,0,0,5],[1,1,0,0,-5]];perimeter=orthogonalPerimeter;outlineConnect=0;targetShapes=umlLifeline;portConstraint=eastwest;newEdgeStyle={&quot;curved&quot;:0,&quot;rounded&quot;:0};" vertex="1" parent="lJsuNtHJNpiVQFgNKzUB-156">
          <mxGeometry x="16.75" y="172" width="10" height="28" as="geometry" />
        </mxCell>
        <mxCell id="lJsuNtHJNpiVQFgNKzUB-158" value="" style="html=1;points=[[0,0,0,0,5],[0,1,0,0,-5],[1,0,0,0,5],[1,1,0,0,-5]];perimeter=orthogonalPerimeter;outlineConnect=0;targetShapes=umlLifeline;portConstraint=eastwest;newEdgeStyle={&quot;curved&quot;:0,&quot;rounded&quot;:0};" vertex="1" parent="lJsuNtHJNpiVQFgNKzUB-156">
          <mxGeometry x="16.75" y="380" width="10" height="50" as="geometry" />
        </mxCell>
        <mxCell id="lJsuNtHJNpiVQFgNKzUB-159" value="Sản phẩm" style="text;html=1;strokeColor=none;fillColor=none;align=center;verticalAlign=middle;whiteSpace=wrap;rounded=0;" vertex="1" parent="lJsuNtHJNpiVQFgNKzUB-273">
          <mxGeometry x="588.25" y="89.5" width="60" height="20" as="geometry" />
        </mxCell>
        <mxCell id="lJsuNtHJNpiVQFgNKzUB-160" value="" style="shape=umlLifeline;perimeter=lifelinePerimeter;whiteSpace=wrap;html=1;container=1;dropTarget=0;collapsible=0;recursiveResize=0;outlineConnect=0;portConstraint=eastwest;newEdgeStyle={&quot;curved&quot;:0,&quot;rounded&quot;:0};participant=umlEntity;" vertex="1" parent="lJsuNtHJNpiVQFgNKzUB-273">
          <mxGeometry x="685.1199999999999" y="126" width="40" height="707" as="geometry" />
        </mxCell>
        <mxCell id="lJsuNtHJNpiVQFgNKzUB-161" value="" style="html=1;points=[[0,0,0,0,5],[0,1,0,0,-5],[1,0,0,0,5],[1,1,0,0,-5]];perimeter=orthogonalPerimeter;outlineConnect=0;targetShapes=umlLifeline;portConstraint=eastwest;newEdgeStyle={&quot;curved&quot;:0,&quot;rounded&quot;:0};" vertex="1" parent="lJsuNtHJNpiVQFgNKzUB-160">
          <mxGeometry x="13.38" y="267" width="10" height="53" as="geometry" />
        </mxCell>
        <mxCell id="lJsuNtHJNpiVQFgNKzUB-162" value="" style="shape=umlLifeline;perimeter=lifelinePerimeter;whiteSpace=wrap;html=1;container=1;dropTarget=0;collapsible=0;recursiveResize=0;outlineConnect=0;portConstraint=eastwest;newEdgeStyle={&quot;curved&quot;:0,&quot;rounded&quot;:0};participant=umlEntity;" vertex="1" parent="lJsuNtHJNpiVQFgNKzUB-273">
          <mxGeometry x="797.5" y="126" width="40" height="707" as="geometry" />
        </mxCell>
        <mxCell id="lJsuNtHJNpiVQFgNKzUB-163" value="" style="html=1;points=[[0,0,0,0,5],[0,1,0,0,-5],[1,0,0,0,5],[1,1,0,0,-5]];perimeter=orthogonalPerimeter;outlineConnect=0;targetShapes=umlLifeline;portConstraint=eastwest;newEdgeStyle={&quot;curved&quot;:0,&quot;rounded&quot;:0};" vertex="1" parent="lJsuNtHJNpiVQFgNKzUB-162">
          <mxGeometry x="15" y="415.5" width="10" height="70.5" as="geometry" />
        </mxCell>
        <mxCell id="lJsuNtHJNpiVQFgNKzUB-164" value="Phiếu nhập kho" style="text;html=1;strokeColor=none;fillColor=none;align=center;verticalAlign=middle;whiteSpace=wrap;rounded=0;" vertex="1" parent="lJsuNtHJNpiVQFgNKzUB-273">
          <mxGeometry x="675.1199999999999" y="84.5" width="60" height="30" as="geometry" />
        </mxCell>
        <mxCell id="lJsuNtHJNpiVQFgNKzUB-165" value="Thẻ kho" style="text;html=1;strokeColor=none;fillColor=none;align=center;verticalAlign=middle;whiteSpace=wrap;rounded=0;" vertex="1" parent="lJsuNtHJNpiVQFgNKzUB-273">
          <mxGeometry x="787.5" y="84.5" width="60" height="30" as="geometry" />
        </mxCell>
        <mxCell id="lJsuNtHJNpiVQFgNKzUB-166" value="" style="shape=umlLifeline;perimeter=lifelinePerimeter;whiteSpace=wrap;html=1;container=1;dropTarget=0;collapsible=0;recursiveResize=0;outlineConnect=0;portConstraint=eastwest;newEdgeStyle={&quot;curved&quot;:0,&quot;rounded&quot;:0};participant=umlEntity;" vertex="1" parent="lJsuNtHJNpiVQFgNKzUB-273">
          <mxGeometry x="925.75" y="123.75" width="40" height="710" as="geometry" />
        </mxCell>
        <mxCell id="lJsuNtHJNpiVQFgNKzUB-167" value="" style="html=1;points=[[0,0,0,0,5],[0,1,0,0,-5],[1,0,0,0,5],[1,1,0,0,-5]];perimeter=orthogonalPerimeter;outlineConnect=0;targetShapes=umlLifeline;portConstraint=eastwest;newEdgeStyle={&quot;curved&quot;:0,&quot;rounded&quot;:0};" vertex="1" parent="lJsuNtHJNpiVQFgNKzUB-166">
          <mxGeometry x="15" y="92" width="10" height="38" as="geometry" />
        </mxCell>
        <mxCell id="lJsuNtHJNpiVQFgNKzUB-168" value="" style="html=1;points=[[0,0,0,0,5],[0,1,0,0,-5],[1,0,0,0,5],[1,1,0,0,-5]];perimeter=orthogonalPerimeter;outlineConnect=0;targetShapes=umlLifeline;portConstraint=eastwest;newEdgeStyle={&quot;curved&quot;:0,&quot;rounded&quot;:0};" vertex="1" parent="lJsuNtHJNpiVQFgNKzUB-166">
          <mxGeometry x="15" y="550" width="10" height="40" as="geometry" />
        </mxCell>
        <mxCell id="lJsuNtHJNpiVQFgNKzUB-169" value="Database" style="text;html=1;strokeColor=none;fillColor=none;align=center;verticalAlign=middle;whiteSpace=wrap;rounded=0;" vertex="1" parent="lJsuNtHJNpiVQFgNKzUB-273">
          <mxGeometry x="915.75" y="82.25" width="60" height="30" as="geometry" />
        </mxCell>
        <mxCell id="lJsuNtHJNpiVQFgNKzUB-170" value="" style="endArrow=none;dashed=1;html=1;rounded=0;" edge="1" parent="lJsuNtHJNpiVQFgNKzUB-273">
          <mxGeometry width="50" height="50" relative="1" as="geometry">
            <mxPoint x="51.25" y="833" as="sourcePoint" />
            <mxPoint x="50.75" y="163" as="targetPoint" />
          </mxGeometry>
        </mxCell>
        <mxCell id="lJsuNtHJNpiVQFgNKzUB-171" value="" style="endArrow=none;dashed=1;html=1;rounded=0;" edge="1" parent="lJsuNtHJNpiVQFgNKzUB-273" source="lJsuNtHJNpiVQFgNKzUB-173">
          <mxGeometry width="50" height="50" relative="1" as="geometry">
            <mxPoint x="265.27000000000044" y="543" as="sourcePoint" />
            <mxPoint x="265.27000000000044" y="163" as="targetPoint" />
          </mxGeometry>
        </mxCell>
        <mxCell id="lJsuNtHJNpiVQFgNKzUB-172" value="" style="endArrow=none;dashed=1;html=1;rounded=0;" edge="1" parent="lJsuNtHJNpiVQFgNKzUB-273" source="lJsuNtHJNpiVQFgNKzUB-181" target="lJsuNtHJNpiVQFgNKzUB-173">
          <mxGeometry width="50" height="50" relative="1" as="geometry">
            <mxPoint x="265.27000000000044" y="543" as="sourcePoint" />
            <mxPoint x="265.27000000000044" y="163" as="targetPoint" />
          </mxGeometry>
        </mxCell>
        <mxCell id="lJsuNtHJNpiVQFgNKzUB-173" value="" style="html=1;points=[[0,0,0,0,5],[0,1,0,0,-5],[1,0,0,0,5],[1,1,0,0,-5]];perimeter=orthogonalPerimeter;outlineConnect=0;targetShapes=umlLifeline;portConstraint=eastwest;newEdgeStyle={&quot;curved&quot;:0,&quot;rounded&quot;:0};" vertex="1" parent="lJsuNtHJNpiVQFgNKzUB-273">
          <mxGeometry x="260" y="179" width="10" height="104" as="geometry" />
        </mxCell>
        <mxCell id="lJsuNtHJNpiVQFgNKzUB-174" value="" style="endArrow=classic;html=1;rounded=0;exitX=1;exitY=0;exitDx=0;exitDy=5;exitPerimeter=0;" edge="1" parent="lJsuNtHJNpiVQFgNKzUB-273">
          <mxGeometry width="50" height="50" relative="1" as="geometry">
            <mxPoint x="270" y="193" as="sourcePoint" />
            <mxPoint x="363.25" y="193" as="targetPoint" />
          </mxGeometry>
        </mxCell>
        <mxCell id="lJsuNtHJNpiVQFgNKzUB-175" value="Tạo yêu cầu nhập kho" style="text;html=1;strokeColor=none;fillColor=none;align=center;verticalAlign=middle;whiteSpace=wrap;rounded=0;" vertex="1" parent="lJsuNtHJNpiVQFgNKzUB-273">
          <mxGeometry x="281.5" y="216" width="60" height="30" as="geometry" />
        </mxCell>
        <mxCell id="lJsuNtHJNpiVQFgNKzUB-176" value="Lấy thông tin yêu cầu" style="html=1;verticalAlign=bottom;startArrow=oval;endArrow=block;startSize=8;curved=0;rounded=0;entryX=0;entryY=0;entryDx=0;entryDy=5;" edge="1" parent="lJsuNtHJNpiVQFgNKzUB-273" source="lJsuNtHJNpiVQFgNKzUB-148" target="lJsuNtHJNpiVQFgNKzUB-152">
          <mxGeometry relative="1" as="geometry">
            <mxPoint x="397.6199999999999" y="208" as="sourcePoint" />
          </mxGeometry>
        </mxCell>
        <mxCell id="lJsuNtHJNpiVQFgNKzUB-177" value="Xác thực yêu cầu" style="html=1;verticalAlign=bottom;startArrow=oval;endArrow=block;startSize=8;curved=0;rounded=0;entryX=0;entryY=0;entryDx=0;entryDy=5;" edge="1" parent="lJsuNtHJNpiVQFgNKzUB-273" source="lJsuNtHJNpiVQFgNKzUB-152" target="lJsuNtHJNpiVQFgNKzUB-167">
          <mxGeometry relative="1" as="geometry">
            <mxPoint x="523.75" y="223" as="sourcePoint" />
          </mxGeometry>
        </mxCell>
        <mxCell id="lJsuNtHJNpiVQFgNKzUB-178" value="Kết quả xác thực" style="html=1;verticalAlign=bottom;endArrow=open;dashed=1;endSize=8;curved=0;rounded=0;exitX=0;exitY=1;exitDx=0;exitDy=-5;exitPerimeter=0;" edge="1" parent="lJsuNtHJNpiVQFgNKzUB-273" source="lJsuNtHJNpiVQFgNKzUB-167" target="lJsuNtHJNpiVQFgNKzUB-151">
          <mxGeometry relative="1" as="geometry">
            <mxPoint x="1063.75" y="243" as="sourcePoint" />
            <mxPoint x="965.1199999999999" y="253" as="targetPoint" />
          </mxGeometry>
        </mxCell>
        <mxCell id="lJsuNtHJNpiVQFgNKzUB-179" value="Kết quả yêu cầu" style="html=1;verticalAlign=bottom;endArrow=open;dashed=1;endSize=8;curved=0;rounded=0;exitX=0;exitY=1;exitDx=0;exitDy=-5;exitPerimeter=0;" edge="1" parent="lJsuNtHJNpiVQFgNKzUB-273" source="lJsuNtHJNpiVQFgNKzUB-152" target="lJsuNtHJNpiVQFgNKzUB-148">
          <mxGeometry relative="1" as="geometry">
            <mxPoint x="646.25" y="323" as="sourcePoint" />
            <mxPoint x="406.25" y="263" as="targetPoint" />
          </mxGeometry>
        </mxCell>
        <mxCell id="lJsuNtHJNpiVQFgNKzUB-180" value="" style="endArrow=none;dashed=1;html=1;rounded=0;" edge="1" parent="lJsuNtHJNpiVQFgNKzUB-273" source="lJsuNtHJNpiVQFgNKzUB-184" target="lJsuNtHJNpiVQFgNKzUB-181">
          <mxGeometry width="50" height="50" relative="1" as="geometry">
            <mxPoint x="265.27000000000044" y="543" as="sourcePoint" />
            <mxPoint x="265.25" y="283" as="targetPoint" />
          </mxGeometry>
        </mxCell>
        <mxCell id="lJsuNtHJNpiVQFgNKzUB-181" value="" style="html=1;points=[[0,0,0,0,5],[0,1,0,0,-5],[1,0,0,0,5],[1,1,0,0,-5]];perimeter=orthogonalPerimeter;outlineConnect=0;targetShapes=umlLifeline;portConstraint=eastwest;newEdgeStyle={&quot;curved&quot;:0,&quot;rounded&quot;:0};" vertex="1" parent="lJsuNtHJNpiVQFgNKzUB-273">
          <mxGeometry x="260" y="295" width="10" height="38" as="geometry" />
        </mxCell>
        <mxCell id="lJsuNtHJNpiVQFgNKzUB-182" value="Kiểm tra" style="html=1;verticalAlign=bottom;startArrow=oval;endArrow=block;startSize=8;curved=0;rounded=0;entryX=0;entryY=0;entryDx=0;entryDy=5;exitX=1;exitY=0;exitDx=0;exitDy=5;exitPerimeter=0;" edge="1" parent="lJsuNtHJNpiVQFgNKzUB-273" source="lJsuNtHJNpiVQFgNKzUB-181" target="lJsuNtHJNpiVQFgNKzUB-157">
          <mxGeometry relative="1" as="geometry">
            <mxPoint x="606.25" y="298" as="sourcePoint" />
          </mxGeometry>
        </mxCell>
        <mxCell id="lJsuNtHJNpiVQFgNKzUB-183" value="" style="endArrow=none;dashed=1;html=1;rounded=0;" edge="1" parent="lJsuNtHJNpiVQFgNKzUB-273" target="lJsuNtHJNpiVQFgNKzUB-184">
          <mxGeometry width="50" height="50" relative="1" as="geometry">
            <mxPoint x="266.25" y="833" as="sourcePoint" />
            <mxPoint x="265.25" y="333" as="targetPoint" />
          </mxGeometry>
        </mxCell>
        <mxCell id="lJsuNtHJNpiVQFgNKzUB-184" value="" style="html=1;points=[[0,0,0,0,5],[0,1,0,0,-5],[1,0,0,0,5],[1,1,0,0,-5]];perimeter=orthogonalPerimeter;outlineConnect=0;targetShapes=umlLifeline;portConstraint=eastwest;newEdgeStyle={&quot;curved&quot;:0,&quot;rounded&quot;:0};" vertex="1" parent="lJsuNtHJNpiVQFgNKzUB-273">
          <mxGeometry x="260" y="341" width="10" height="132" as="geometry" />
        </mxCell>
        <mxCell id="lJsuNtHJNpiVQFgNKzUB-185" value="Yêu câu nhập kho" style="html=1;verticalAlign=bottom;startArrow=oval;endArrow=block;startSize=8;curved=0;rounded=0;exitX=1;exitY=0;exitDx=0;exitDy=5;exitPerimeter=0;entryX=0;entryY=0;entryDx=0;entryDy=5;entryPerimeter=0;" edge="1" parent="lJsuNtHJNpiVQFgNKzUB-273" source="lJsuNtHJNpiVQFgNKzUB-193" target="lJsuNtHJNpiVQFgNKzUB-173">
          <mxGeometry relative="1" as="geometry">
            <mxPoint x="173.25" y="203" as="sourcePoint" />
            <mxPoint x="243.25" y="203" as="targetPoint" />
          </mxGeometry>
        </mxCell>
        <mxCell id="lJsuNtHJNpiVQFgNKzUB-186" value="" style="endArrow=classic;html=1;rounded=0;exitX=1;exitY=0;exitDx=0;exitDy=5;exitPerimeter=0;entryX=0;entryY=0;entryDx=0;entryDy=5;entryPerimeter=0;" edge="1" parent="lJsuNtHJNpiVQFgNKzUB-273" source="lJsuNtHJNpiVQFgNKzUB-184" target="lJsuNtHJNpiVQFgNKzUB-149">
          <mxGeometry width="50" height="50" relative="1" as="geometry">
            <mxPoint x="506.25" y="283" as="sourcePoint" />
            <mxPoint x="556.25" y="233" as="targetPoint" />
          </mxGeometry>
        </mxCell>
        <mxCell id="lJsuNtHJNpiVQFgNKzUB-187" value="Nhập thông tin phiếu nhập kho" style="text;html=1;strokeColor=none;fillColor=none;align=center;verticalAlign=middle;whiteSpace=wrap;rounded=0;" vertex="1" parent="lJsuNtHJNpiVQFgNKzUB-273">
          <mxGeometry x="276.5" y="353" width="70" height="30" as="geometry" />
        </mxCell>
        <mxCell id="lJsuNtHJNpiVQFgNKzUB-188" value="Lấy thông tin phiếu nhập" style="html=1;verticalAlign=bottom;startArrow=oval;endArrow=block;startSize=8;curved=0;rounded=0;entryX=0;entryY=0;entryDx=0;entryDy=5;" edge="1" parent="lJsuNtHJNpiVQFgNKzUB-273" source="lJsuNtHJNpiVQFgNKzUB-149" target="lJsuNtHJNpiVQFgNKzUB-153">
          <mxGeometry relative="1" as="geometry">
            <mxPoint x="503.75" y="372" as="sourcePoint" />
          </mxGeometry>
        </mxCell>
        <mxCell id="lJsuNtHJNpiVQFgNKzUB-189" value="Gửi thông tin đến hệ thống" style="html=1;verticalAlign=bottom;startArrow=oval;endArrow=block;startSize=8;curved=0;rounded=0;entryX=0;entryY=0;entryDx=0;entryDy=5;" edge="1" parent="lJsuNtHJNpiVQFgNKzUB-273" source="lJsuNtHJNpiVQFgNKzUB-153" target="lJsuNtHJNpiVQFgNKzUB-161">
          <mxGeometry relative="1" as="geometry">
            <mxPoint x="738.5" y="398" as="sourcePoint" />
          </mxGeometry>
        </mxCell>
        <mxCell id="lJsuNtHJNpiVQFgNKzUB-190" value="In phiếu" style="html=1;verticalAlign=bottom;endArrow=open;dashed=1;endSize=8;curved=0;rounded=0;exitX=0;exitY=1;exitDx=0;exitDy=-5;exitPerimeter=0;" edge="1" parent="lJsuNtHJNpiVQFgNKzUB-273" source="lJsuNtHJNpiVQFgNKzUB-161" target="lJsuNtHJNpiVQFgNKzUB-184">
          <mxGeometry relative="1" as="geometry">
            <mxPoint x="746.25" y="441" as="sourcePoint" />
            <mxPoint x="392.6199999999999" y="441" as="targetPoint" />
          </mxGeometry>
        </mxCell>
        <mxCell id="lJsuNtHJNpiVQFgNKzUB-191" value="Hàng hóa" style="shape=umlActor;verticalLabelPosition=bottom;verticalAlign=top;html=1;outlineConnect=0;" vertex="1" parent="lJsuNtHJNpiVQFgNKzUB-273">
          <mxGeometry x="146.25" y="79.5" width="30" height="60" as="geometry" />
        </mxCell>
        <mxCell id="lJsuNtHJNpiVQFgNKzUB-192" value="" style="endArrow=none;dashed=1;html=1;rounded=0;" edge="1" parent="lJsuNtHJNpiVQFgNKzUB-273">
          <mxGeometry width="50" height="50" relative="1" as="geometry">
            <mxPoint x="161.25" y="833" as="sourcePoint" />
            <mxPoint x="160.75" y="163" as="targetPoint" />
          </mxGeometry>
        </mxCell>
        <mxCell id="lJsuNtHJNpiVQFgNKzUB-193" value="" style="html=1;points=[[0,0,0,0,5],[0,1,0,0,-5],[1,0,0,0,5],[1,1,0,0,-5]];perimeter=orthogonalPerimeter;outlineConnect=0;targetShapes=umlLifeline;portConstraint=eastwest;newEdgeStyle={&quot;curved&quot;:0,&quot;rounded&quot;:0};" vertex="1" parent="lJsuNtHJNpiVQFgNKzUB-273">
          <mxGeometry x="155.75" y="179" width="10" height="314" as="geometry" />
        </mxCell>
        <mxCell id="lJsuNtHJNpiVQFgNKzUB-194" value="Đưa phiếu" style="html=1;verticalAlign=bottom;endArrow=open;dashed=1;endSize=8;curved=0;rounded=0;exitX=0;exitY=1;exitDx=0;exitDy=-5;exitPerimeter=0;" edge="1" parent="lJsuNtHJNpiVQFgNKzUB-273" source="lJsuNtHJNpiVQFgNKzUB-184" target="lJsuNtHJNpiVQFgNKzUB-193">
          <mxGeometry relative="1" as="geometry">
            <mxPoint x="516.25" y="393" as="sourcePoint" />
            <mxPoint x="436.25" y="393" as="targetPoint" />
          </mxGeometry>
        </mxCell>
        <mxCell id="lJsuNtHJNpiVQFgNKzUB-195" value="" style="endArrow=none;dashed=1;html=1;rounded=0;" edge="1" parent="lJsuNtHJNpiVQFgNKzUB-273" target="lJsuNtHJNpiVQFgNKzUB-196">
          <mxGeometry width="50" height="50" relative="1" as="geometry">
            <mxPoint x="50.75" y="543" as="sourcePoint" />
            <mxPoint x="50.75" y="163" as="targetPoint" />
          </mxGeometry>
        </mxCell>
        <mxCell id="lJsuNtHJNpiVQFgNKzUB-196" value="" style="html=1;points=[[0,0,0,0,5],[0,1,0,0,-5],[1,0,0,0,5],[1,1,0,0,-5]];perimeter=orthogonalPerimeter;outlineConnect=0;targetShapes=umlLifeline;portConstraint=eastwest;newEdgeStyle={&quot;curved&quot;:0,&quot;rounded&quot;:0};" vertex="1" parent="lJsuNtHJNpiVQFgNKzUB-273">
          <mxGeometry x="46.25" y="473" width="10" height="60" as="geometry" />
        </mxCell>
        <mxCell id="lJsuNtHJNpiVQFgNKzUB-197" value="" style="html=1;verticalAlign=bottom;endArrow=open;dashed=1;endSize=8;curved=0;rounded=0;exitX=0.05;exitY=0.968;exitDx=0;exitDy=0;exitPerimeter=0;" edge="1" parent="lJsuNtHJNpiVQFgNKzUB-273" source="lJsuNtHJNpiVQFgNKzUB-193" target="lJsuNtHJNpiVQFgNKzUB-196">
          <mxGeometry relative="1" as="geometry">
            <mxPoint x="146.25" y="483" as="sourcePoint" />
            <mxPoint x="66.25" y="483" as="targetPoint" />
          </mxGeometry>
        </mxCell>
        <mxCell id="lJsuNtHJNpiVQFgNKzUB-198" value="Đưa phiếu nhập và hàng hóa" style="text;html=1;strokeColor=none;fillColor=none;align=center;verticalAlign=middle;whiteSpace=wrap;rounded=0;" vertex="1" parent="lJsuNtHJNpiVQFgNKzUB-273">
          <mxGeometry x="80.75" y="443" width="60" height="30" as="geometry" />
        </mxCell>
        <mxCell id="lJsuNtHJNpiVQFgNKzUB-199" value="Sắp xếp&amp;nbsp;" style="text;html=1;strokeColor=none;fillColor=none;align=center;verticalAlign=middle;whiteSpace=wrap;rounded=0;" vertex="1" parent="lJsuNtHJNpiVQFgNKzUB-273">
          <mxGeometry x="368" y="503" width="104.75" height="30" as="geometry" />
        </mxCell>
        <mxCell id="lJsuNtHJNpiVQFgNKzUB-200" value="" style="endArrow=none;dashed=1;html=1;rounded=0;" edge="1" parent="lJsuNtHJNpiVQFgNKzUB-273" target="lJsuNtHJNpiVQFgNKzUB-201">
          <mxGeometry width="50" height="50" relative="1" as="geometry">
            <mxPoint x="51.25" y="605.0000000000005" as="sourcePoint" />
            <mxPoint x="50.75" y="149" as="targetPoint" />
          </mxGeometry>
        </mxCell>
        <mxCell id="lJsuNtHJNpiVQFgNKzUB-201" value="" style="html=1;points=[[0,0,0,0,5],[0,1,0,0,-5],[1,0,0,0,5],[1,1,0,0,-5]];perimeter=orthogonalPerimeter;outlineConnect=0;targetShapes=umlLifeline;portConstraint=eastwest;newEdgeStyle={&quot;curved&quot;:0,&quot;rounded&quot;:0};" vertex="1" parent="lJsuNtHJNpiVQFgNKzUB-273">
          <mxGeometry x="46.25" y="559" width="10" height="30" as="geometry" />
        </mxCell>
        <mxCell id="lJsuNtHJNpiVQFgNKzUB-202" value="" style="endArrow=open;endFill=1;endSize=12;html=1;rounded=0;exitX=1;exitY=1;exitDx=0;exitDy=-5;exitPerimeter=0;" edge="1" parent="lJsuNtHJNpiVQFgNKzUB-273" source="lJsuNtHJNpiVQFgNKzUB-196" target="lJsuNtHJNpiVQFgNKzUB-156">
          <mxGeometry width="160" relative="1" as="geometry">
            <mxPoint x="66.25" y="523" as="sourcePoint" />
            <mxPoint x="666.25" y="393" as="targetPoint" />
          </mxGeometry>
        </mxCell>
        <mxCell id="lJsuNtHJNpiVQFgNKzUB-203" value="" style="endArrow=open;endFill=1;endSize=12;html=1;rounded=0;exitX=1;exitY=0;exitDx=0;exitDy=5;exitPerimeter=0;" edge="1" parent="lJsuNtHJNpiVQFgNKzUB-273" source="lJsuNtHJNpiVQFgNKzUB-201" target="lJsuNtHJNpiVQFgNKzUB-163">
          <mxGeometry width="160" relative="1" as="geometry">
            <mxPoint x="66.25" y="560.94" as="sourcePoint" />
            <mxPoint x="726.25" y="564" as="targetPoint" />
          </mxGeometry>
        </mxCell>
        <mxCell id="lJsuNtHJNpiVQFgNKzUB-204" value="Viết thẻ" style="text;html=1;strokeColor=none;fillColor=none;align=center;verticalAlign=middle;whiteSpace=wrap;rounded=0;" vertex="1" parent="lJsuNtHJNpiVQFgNKzUB-273">
          <mxGeometry x="416.25" y="539" width="60" height="30" as="geometry" />
        </mxCell>
        <mxCell id="lJsuNtHJNpiVQFgNKzUB-205" value="" style="endArrow=none;dashed=1;html=1;rounded=0;" edge="1" parent="lJsuNtHJNpiVQFgNKzUB-273" target="lJsuNtHJNpiVQFgNKzUB-206">
          <mxGeometry width="50" height="50" relative="1" as="geometry">
            <mxPoint x="51.25" y="693" as="sourcePoint" />
            <mxPoint x="51.25" y="603" as="targetPoint" />
          </mxGeometry>
        </mxCell>
        <mxCell id="lJsuNtHJNpiVQFgNKzUB-206" value="" style="html=1;points=[[0,0,0,0,5],[0,1,0,0,-5],[1,0,0,0,5],[1,1,0,0,-5]];perimeter=orthogonalPerimeter;outlineConnect=0;targetShapes=umlLifeline;portConstraint=eastwest;newEdgeStyle={&quot;curved&quot;:0,&quot;rounded&quot;:0};" vertex="1" parent="lJsuNtHJNpiVQFgNKzUB-273">
          <mxGeometry x="46.25" y="619" width="10" height="80" as="geometry" />
        </mxCell>
        <mxCell id="lJsuNtHJNpiVQFgNKzUB-207" value="" style="html=1;points=[[0,0,0,0,5],[0,1,0,0,-5],[1,0,0,0,5],[1,1,0,0,-5]];perimeter=orthogonalPerimeter;outlineConnect=0;targetShapes=umlLifeline;portConstraint=eastwest;newEdgeStyle={&quot;curved&quot;:0,&quot;rounded&quot;:0};" vertex="1" parent="lJsuNtHJNpiVQFgNKzUB-273">
          <mxGeometry x="260" y="619" width="10" height="34" as="geometry" />
        </mxCell>
        <mxCell id="lJsuNtHJNpiVQFgNKzUB-208" value="" style="endArrow=open;endFill=1;endSize=12;html=1;rounded=0;" edge="1" parent="lJsuNtHJNpiVQFgNKzUB-273" target="lJsuNtHJNpiVQFgNKzUB-207">
          <mxGeometry width="160" relative="1" as="geometry">
            <mxPoint x="58.25" y="633" as="sourcePoint" />
            <mxPoint x="218" y="633" as="targetPoint" />
          </mxGeometry>
        </mxCell>
        <mxCell id="lJsuNtHJNpiVQFgNKzUB-209" value="Chuyển thẻ" style="text;html=1;strokeColor=none;fillColor=none;align=center;verticalAlign=middle;whiteSpace=wrap;rounded=0;" vertex="1" parent="lJsuNtHJNpiVQFgNKzUB-273">
          <mxGeometry x="106.36999999999989" y="603" width="80" height="30" as="geometry" />
        </mxCell>
        <mxCell id="lJsuNtHJNpiVQFgNKzUB-210" value="" style="html=1;points=[[0,0,0,0,5],[0,1,0,0,-5],[1,0,0,0,5],[1,1,0,0,-5]];perimeter=orthogonalPerimeter;outlineConnect=0;targetShapes=umlLifeline;portConstraint=eastwest;newEdgeStyle={&quot;curved&quot;:0,&quot;rounded&quot;:0};" vertex="1" parent="lJsuNtHJNpiVQFgNKzUB-273">
          <mxGeometry x="358" y="643" width="10" height="130" as="geometry" />
        </mxCell>
        <mxCell id="lJsuNtHJNpiVQFgNKzUB-211" value="Lấy thông tin" style="html=1;verticalAlign=bottom;startArrow=oval;endArrow=block;startSize=8;curved=0;rounded=0;entryX=0;entryY=0;entryDx=0;entryDy=5;" edge="1" parent="lJsuNtHJNpiVQFgNKzUB-273" source="lJsuNtHJNpiVQFgNKzUB-210" target="lJsuNtHJNpiVQFgNKzUB-154">
          <mxGeometry relative="1" as="geometry">
            <mxPoint x="973.8699999999999" y="648" as="sourcePoint" />
          </mxGeometry>
        </mxCell>
        <mxCell id="lJsuNtHJNpiVQFgNKzUB-212" value="thêm thông tin" style="html=1;verticalAlign=bottom;startArrow=oval;endArrow=block;startSize=8;curved=0;rounded=0;entryX=0;entryY=0;entryDx=0;entryDy=5;" edge="1" parent="lJsuNtHJNpiVQFgNKzUB-273" source="lJsuNtHJNpiVQFgNKzUB-154" target="lJsuNtHJNpiVQFgNKzUB-168">
          <mxGeometry relative="1" as="geometry">
            <mxPoint x="906.3699999999999" y="678" as="sourcePoint" />
          </mxGeometry>
        </mxCell>
        <mxCell id="lJsuNtHJNpiVQFgNKzUB-213" value="Kết quả thêm thông tin" style="html=1;verticalAlign=bottom;endArrow=open;dashed=1;endSize=8;curved=0;rounded=0;exitX=0;exitY=1;exitDx=0;exitDy=-5;exitPerimeter=0;" edge="1" parent="lJsuNtHJNpiVQFgNKzUB-273" source="lJsuNtHJNpiVQFgNKzUB-168" target="lJsuNtHJNpiVQFgNKzUB-151">
          <mxGeometry relative="1" as="geometry">
            <mxPoint x="493.75" y="583" as="sourcePoint" />
            <mxPoint x="413.75" y="583" as="targetPoint" />
          </mxGeometry>
        </mxCell>
        <mxCell id="lJsuNtHJNpiVQFgNKzUB-214" value="Kết quả thêm" style="html=1;verticalAlign=bottom;endArrow=open;dashed=1;endSize=8;curved=0;rounded=0;exitX=0;exitY=1;exitDx=0;exitDy=-5;exitPerimeter=0;" edge="1" parent="lJsuNtHJNpiVQFgNKzUB-273" source="lJsuNtHJNpiVQFgNKzUB-154" target="lJsuNtHJNpiVQFgNKzUB-210">
          <mxGeometry relative="1" as="geometry">
            <mxPoint x="516" y="733" as="sourcePoint" />
            <mxPoint x="436" y="733" as="targetPoint" />
          </mxGeometry>
        </mxCell>
        <mxCell id="lJsuNtHJNpiVQFgNKzUB-215" value="Hiển thị thông tin" style="html=1;align=left;spacingLeft=2;endArrow=block;rounded=0;edgeStyle=orthogonalEdgeStyle;curved=0;rounded=0;" edge="1" parent="lJsuNtHJNpiVQFgNKzUB-273">
          <mxGeometry relative="1" as="geometry">
            <mxPoint x="367.1199999999999" y="743" as="sourcePoint" />
            <Array as="points">
              <mxPoint x="385.75" y="743" />
              <mxPoint x="385.75" y="763" />
            </Array>
            <mxPoint x="365.75" y="763" as="targetPoint" />
          </mxGeometry>
        </mxCell>
        <mxCell id="lJsuNtHJNpiVQFgNKzUB-216" value="" style="endArrow=open;endFill=1;endSize=12;html=1;rounded=0;exitX=1;exitY=1;exitDx=0;exitDy=-5;exitPerimeter=0;" edge="1" parent="lJsuNtHJNpiVQFgNKzUB-273" source="lJsuNtHJNpiVQFgNKzUB-207" target="lJsuNtHJNpiVQFgNKzUB-210">
          <mxGeometry width="160" relative="1" as="geometry">
            <mxPoint x="346.25" y="603" as="sourcePoint" />
            <mxPoint x="506.25" y="603" as="targetPoint" />
          </mxGeometry>
        </mxCell>
        <mxCell id="lJsuNtHJNpiVQFgNKzUB-217" value="Nhập thông tin" style="text;html=1;strokeColor=none;fillColor=none;align=center;verticalAlign=middle;whiteSpace=wrap;rounded=0;" vertex="1" parent="lJsuNtHJNpiVQFgNKzUB-273">
          <mxGeometry x="282.6199999999999" y="613" width="60" height="30" as="geometry" />
        </mxCell>
      </root>
    </mxGraphModel>
  </diagram>
</mxfile>
